<svg data-v-421a01b6="" width="24" height="24" viewBox="0 0 24 24" fill="none" xmlns="http://www.w3.org/2000/svg"><path data-v-421a01b6="" d="M4.31445 18.848V15.8297C4.31445 15.367 4.68953 14.992 5.1522 14.992H18.8482C19.3109 14.992 19.6859 15.367 19.6859 15.8297V18.848C19.6859 19.3107 19.3109 19.6857 18.8482 19.6857H5.1522C4.68953 19.6857 4.31445 19.3107 4.31445 18.848ZM16.6321 19.6857V14.9918V19.6857ZM13.5529 19.6857V14.9918V19.6857ZM10.4732 19.6857V14.9918V19.6857ZM7.39404 19.6857V14.9918V19.6857Z" fill="white"></path><path data-v-421a01b6="" d="M16.6321 19.6857V14.9918M13.5529 19.6857V14.9918M10.4732 19.6857V14.9918M7.39404 19.6857V14.9918M4.31445 18.848V15.8297C4.31445 15.367 4.68953 14.992 5.1522 14.992H18.8482C19.3109 14.992 19.6859 15.367 19.6859 15.8297V18.848C19.6859 19.3107 19.3109 19.6857 18.8482 19.6857H5.1522C4.68953 19.6857 4.31445 19.3107 4.31445 18.848Z" stroke="#25282B" stroke-width="0.924672" stroke-linecap="round" stroke-linejoin="round"></path><path data-v-421a01b6="" d="M6.70387 19.4365L4.56959 17.3023C4.24243 16.9751 4.24243 16.4447 4.56959 16.1175L14.2541 6.433C14.5813 6.10583 15.1117 6.10583 15.4389 6.433L17.5731 8.56727C17.9003 8.89444 17.9003 9.42479 17.5731 9.75196L7.88855 19.4365C7.56139 19.7637 7.03103 19.7637 6.70387 19.4365ZM16.0062 11.319L12.6871 7.99986L16.0062 11.319ZM13.8288 13.4963L10.5097 10.1772L13.8288 13.4963ZM11.6512 15.674L8.33207 12.3549L11.6512 15.674ZM9.47385 17.8513L6.15475 14.5322L9.47385 17.8513Z" fill="white"></path><path data-v-421a01b6="" d="M16.0062 11.319L12.6871 7.99986M13.8288 13.4963L10.5097 10.1772M11.6512 15.674L8.33207 12.3549M9.47385 17.8513L6.15475 14.5322M6.70387 19.4365L4.56959 17.3023C4.24243 16.9751 4.24243 16.4447 4.56959 16.1175L14.2541 6.433C14.5813 6.10583 15.1117 6.10583 15.4389 6.433L17.5731 8.56727C17.9003 8.89444 17.9003 9.42479 17.5731 9.75196L7.88855 19.4365C7.56139 19.7637 7.03103 19.7637 6.70387 19.4365Z" stroke="#25282B" stroke-width="0.924672" stroke-linecap="round" stroke-linejoin="round"></path><path data-v-421a01b6="" d="M9.00837 14.328V18.8482C9.00837 19.3109 8.63301 19.6858 8.17029 19.6858H5.15205C4.68933 19.6858 4.31445 19.3109 4.31445 18.8482V14.328" fill="white"></path><path data-v-421a01b6="" d="M9.00837 14.328V18.8482C9.00837 19.3109 8.63301 19.6858 8.17029 19.6858H5.15205C4.68933 19.6858 4.31445 19.3109 4.31445 18.8482V14.328" stroke="#25282B" stroke-width="0.924672" stroke-linecap="round" stroke-linejoin="round"></path><path data-v-421a01b6="" d="M4.31445 14.328V5.15181C4.31445 4.68909 4.68933 4.31421 5.15205 4.31421H8.17029C8.63301 4.31421 9.00837 4.68909 9.00837 5.15181V14.328" fill="white"></path><path data-v-421a01b6="" d="M4.31445 14.328V5.15181C4.31445 4.68909 4.68933 4.31421 5.15205 4.31421H8.17029C8.63301 4.31421 9.00837 4.68909 9.00837 5.15181V14.328" stroke="#F63854" stroke-width="0.924672" stroke-linecap="round" stroke-linejoin="round"></path><path data-v-421a01b6="" d="M5.95312 12.8159V9.35999M7.36917 12.8159V10.9439" stroke="#25282B" stroke-width="0.924672" stroke-linecap="round" stroke-linejoin="round"></path><path data-v-421a01b6="" d="M7.38623 18.168H7.38973" stroke="#F63854" stroke-width="1.38163" stroke-linecap="round" stroke-linejoin="round"></path><path data-v-421a01b6="" d="M9.00837 14.328H4.31445" stroke="#F63854" stroke-width="0.924672" stroke-linecap="round" stroke-linejoin="round"></path></svg>