<svg width="24" height="24" viewBox="0 0 24 24" fill="none" xmlns="http://www.w3.org/2000/svg" data-v-421a01b6=""><path d="M7.11328 5.73962V18.3048" stroke="#25282B" stroke-width="0.99456" stroke-linecap="round" stroke-linejoin="round" data-v-421a01b6=""></path><path d="M11.9087 5.73962V18.3048" stroke="#25282B" stroke-width="0.99456" stroke-linecap="round" stroke-linejoin="round" data-v-421a01b6=""></path><path d="M16.7036 5.73962V18.3048" stroke="#25282B" stroke-width="0.99456" stroke-linecap="round" stroke-linejoin="round" data-v-421a01b6=""></path><path d="M7.12701 8.35901C7.4361 8.35915 7.73249 8.482 7.95105 8.70056C8.16961 8.91912 8.29246 9.21551 8.2926 9.5246C8.29246 9.83369 8.16961 10.1301 7.95105 10.3486C7.73249 10.5672 7.4361 10.69 7.12701 10.6902C6.81792 10.69 6.52153 10.5672 6.30297 10.3486C6.08442 10.1301 5.96157 9.83369 5.96143 9.5246C5.96157 9.21551 6.08442 8.91912 6.30297 8.70056C6.52153 8.482 6.81792 8.35915 7.12701 8.35901Z" fill="white" stroke="#F63854" stroke-width="0.99456" data-v-421a01b6=""></path><path d="M11.9224 13.2874C12.2315 13.2875 12.5279 13.4103 12.7465 13.6289C12.965 13.8475 13.0879 14.1439 13.088 14.4529C13.0879 14.762 12.965 15.0584 12.7465 15.277C12.5279 15.4955 12.2315 15.6184 11.9224 15.6185C11.6133 15.6184 11.3169 15.4955 11.0984 15.277C10.8798 15.0584 10.757 14.762 10.7568 14.4529C10.757 14.1439 10.8798 13.8475 11.0984 13.6289C11.3169 13.4103 11.6133 13.2875 11.9224 13.2874Z" fill="white" stroke="#F63854" stroke-width="0.99456" data-v-421a01b6=""></path><path d="M16.7173 11.9998C17.0264 11.9999 17.3228 12.1227 17.5414 12.3413C17.7599 12.5599 17.8828 12.8563 17.8829 13.1653C17.8828 13.4744 17.7599 13.7708 17.5414 13.9894C17.3228 14.2079 17.0264 14.3308 16.7173 14.3309C16.4083 14.3308 16.1119 14.2079 15.8933 13.9894C15.6747 13.7708 15.5519 13.4744 15.5518 13.1653C15.5519 12.8563 15.6747 12.5599 15.8933 12.3413C16.1119 12.1227 16.4083 11.9999 16.7173 11.9998Z" fill="white" stroke="#F63854" stroke-width="0.99456" data-v-421a01b6=""></path></svg>