<svg data-v-421a01b6="" width="24" height="24" viewBox="0 0 24 24" fill="none" xmlns="http://www.w3.org/2000/svg"><path data-v-421a01b6="" d="M12 20.13C10.0527 20.13 8.39933 19.4617 7.04 18.125C5.68 16.7883 5 15.1633 5 13.25C5 12.2653 5.186 11.3707 5.558 10.566C5.92933 9.76067 6.424 9.02967 7.042 8.373L11.162 4.348C11.286 4.228 11.4203 4.14 11.565 4.084C11.7103 4.028 11.8553 4 12 4C12.1447 4 12.2897 4.028 12.435 4.084C12.5797 4.14 12.714 4.228 12.838 4.348L16.958 8.373C17.576 9.02967 18.0707 9.77 18.442 10.594C18.814 11.418 19 12.3033 19 13.25C19 15.164 18.32 16.7893 16.96 18.126C15.6013 19.462 13.948 20.13 12 20.13ZM12 19.13V4.93L7.75 9.13C7.16667 9.68 6.729 10.304 6.437 11.002C6.14567 11.7007 6 12.45 6 13.25C6 14.8667 6.58333 16.251 7.75 17.403C8.91667 18.5543 10.3333 19.13 12 19.13Z" fill="#25282B"></path><path data-v-421a01b6="" d="M12.3352 4.97397C12.2089 4.92467 12.0828 4.90002 11.957 4.90002V5.71875V18.2197V19.1C13.6506 19.1 15.0879 18.512 16.2691 17.3358C17.4514 16.1591 18.0426 14.7282 18.0426 13.0432C18.0426 12.2098 17.8809 11.4304 17.5575 10.705C17.2346 9.97963 16.8046 9.32788 16.2673 8.74978L12.6856 5.20639C12.5778 5.10074 12.461 5.02327 12.3352 4.97397Z" fill="#F63854"></path></svg>