<svg width="24" height="24" viewBox="0 0 24 24" fill="none" xmlns="http://www.w3.org/2000/svg" data-v-421a01b6=""><path d="M14.9279 17.7H9.36792L9.38522 17.1582C9.38522 15.1287 11.0307 13.4833 13.0601 13.4833H17.2625C19.2919 13.4833 20.9374 15.1287 20.9374 17.1582L20.9201 17.7H14.9279Z" fill="white" stroke="#F63854" stroke-width="0.880782" stroke-linecap="round" stroke-linejoin="round" data-v-421a01b6=""></path><path d="M17.1995 7.65107C17.6022 8.12967 17.8225 8.73529 17.8216 9.36073C17.8216 10.8298 16.6304 12.0209 15.1614 12.0209C13.6924 12.0209 12.5012 10.8298 12.5012 9.36073C12.5012 7.89171 13.6921 6.70056 15.1614 6.70056C15.9795 6.70056 16.7114 7.06991 17.1995 7.65107Z" fill="white" stroke="#F63854" stroke-width="0.880782" stroke-linecap="round" stroke-linejoin="round" data-v-421a01b6=""></path><path d="M8.64075 17.7004H3.08081L3.09811 17.1585C3.09811 15.1291 4.74355 13.4836 6.77302 13.4836H10.9753C13.0048 13.4836 14.6503 15.1291 14.6503 17.1585L14.633 17.7004H8.64075Z" fill="white" stroke="#F63854" stroke-width="0.880782" stroke-linecap="round" stroke-linejoin="round" data-v-421a01b6=""></path><path d="M10.9114 7.65132C11.3141 8.12992 11.5344 8.73553 11.5335 9.36098C11.5335 10.83 10.3423 12.0212 8.87331 12.0212C7.40429 12.0212 6.21313 10.83 6.21313 9.36098C6.21313 7.89196 7.40403 6.70081 8.87331 6.70081C9.69144 6.70081 10.4233 7.07016 10.9114 7.65132Z" fill="white" stroke="#F63854" stroke-width="0.880782" stroke-linecap="round" stroke-linejoin="round" data-v-421a01b6=""></path><path d="M11.688 18.1736H5.51025L5.52948 17.5715C5.52948 15.3165 7.35774 13.4883 9.61271 13.4883H14.282C16.5369 13.4883 18.3652 15.3165 18.3652 17.5715L18.346 18.1736H11.688Z" fill="white" stroke="#25282B" stroke-width="0.978647" stroke-linecap="round" stroke-linejoin="round" data-v-421a01b6=""></path><path d="M14.211 7.00803C14.6584 7.5398 14.9033 8.21271 14.9022 8.90765C14.9022 10.5399 13.5787 11.8634 11.9465 11.8634C10.3142 11.8634 8.99072 10.5399 8.99072 8.90765C8.99072 7.27541 10.3139 5.9519 11.9465 5.9519C12.8555 5.9519 13.6687 6.3623 14.211 7.00803Z" fill="white" stroke="#25282B" stroke-width="0.978647" stroke-linecap="round" stroke-linejoin="round" data-v-421a01b6=""></path></svg>