<svg width="24" height="24" viewBox="0 0 24 24" fill="none" xmlns="http://www.w3.org/2000/svg" data-v-421a01b6=""><g clip-path="url(#clip0_742_3481)" data-v-421a01b6=""><mask id="mask0_742_3481" maskUnits="userSpaceOnUse" x="0" y="0" width="24" height="24" style="mask-type:luminance" data-v-421a01b6=""><path d="M0 0H24V24H0V0Z" fill="white" data-v-421a01b6=""></path></mask><g mask="url(#mask0_742_3481)" data-v-421a01b6=""><path d="M16.6573 9.38601H19.3955M16.6573 12.189H19.3955M16.6573 14.9921H19.3955M20.9668 17.9649H14.9632V6.03503H20.9668V17.9649ZM10.5366 9.11395C10.5366 9.85823 11.14 10.4616 11.8843 10.4616C12.6286 10.4616 13.232 9.85823 13.232 9.11395C13.232 8.36966 12.6286 7.76625 11.8843 7.76625C11.14 7.76625 10.5366 8.36966 10.5366 9.11395Z" stroke="#F63854" stroke-width="0.924672" stroke-linecap="round" stroke-linejoin="round" data-v-421a01b6=""></path><path d="M11.4425 15.8596L7.86196 9.65769L3.06599 17.9647M10.2274 17.9649L12.5941 13.8657L14.9607 17.9649M14.963 17.9649H3.0332V6.03503H14.963V17.9649Z" stroke="#25282B" stroke-width="0.924672" stroke-linecap="round" stroke-linejoin="round" data-v-421a01b6=""></path><path d="M18.3652 9.38599H18.3658M17.5962 12.189H17.5968M18.3652 14.9921H18.3658" stroke="#25282B" stroke-width="1.3" stroke-linecap="round" stroke-linejoin="round" data-v-421a01b6=""></path></g></g><defs data-v-421a01b6=""><clipPath id="clip0_742_3481" data-v-421a01b6=""><rect width="24" height="24" fill="white" data-v-421a01b6=""></rect></clipPath></defs></svg>