<svg data-v-421a01b6="" width="24" height="24" viewBox="0 0 24 24" fill="none" xmlns="http://www.w3.org/2000/svg"><path data-v-421a01b6="" d="M17.8667 7.19998V6.66665C17.8654 6.24268 17.6965 5.83643 17.3967 5.53664C17.0969 5.23685 16.6906 5.06788 16.2667 5.06665H5.6C5.17603 5.06788 4.76978 5.23685 4.46999 5.53664C4.1702 5.83643 4.00123 6.24268 4 6.66665V15.2C4.00123 15.624 4.1702 16.0302 4.46999 16.33C4.76978 16.6298 5.17603 16.7988 5.6 16.8H6.13333" stroke="#F63854" stroke-width="1.2" stroke-linejoin="round"></path><path data-v-421a01b6="" d="M18.4671 7.73328H8.19975C7.3531 7.73328 6.66675 8.41962 6.66675 9.26628V17.4003C6.66675 18.2469 7.3531 18.9333 8.19975 18.9333H18.4671C19.3137 18.9333 20.0001 18.2469 20.0001 17.4003V9.26628C20.0001 8.41962 19.3137 7.73328 18.4671 7.73328Z" stroke="#25282B" stroke-width="1.2" stroke-linejoin="round"></path><path data-v-421a01b6="" d="M15.8972 11.8063C16.4637 11.8063 16.9229 11.3504 16.9229 10.788C16.9229 10.2256 16.4637 9.76965 15.8972 9.76965C15.3308 9.76965 14.8716 10.2256 14.8716 10.788C14.8716 11.3504 15.3308 11.8063 15.8972 11.8063Z" stroke="#25282B" stroke-width="1.2" stroke-miterlimit="10"></path><path data-v-421a01b6="" d="M14.8717 15.8723L11.9667 12.9927C11.781 12.8092 11.5326 12.703 11.2717 12.6955C11.0107 12.688 10.7567 12.7798 10.5607 12.9523L6.66675 16.388M12.3077 18.9333L16.2607 15.009C16.4426 14.8296 16.6846 14.7239 16.9398 14.7124C17.195 14.7009 17.4454 14.7844 17.6427 14.9467L20.0001 16.897" stroke="#25282B" stroke-width="1.2" stroke-linecap="round" stroke-linejoin="round"></path></svg>