<svg width="24" height="24" viewBox="0 0 24 24" fill="none" xmlns="http://www.w3.org/2000/svg" data-v-421a01b6=""><g clip-path="url(#clip0_742_3472)" data-v-421a01b6=""><mask id="mask0_742_3472" maskUnits="userSpaceOnUse" x="-1" y="0" width="25" height="24" style="mask-type:luminance" data-v-421a01b6=""><path d="M-0.000976562 0H23.999V24H-0.000976562V0Z" fill="white" data-v-421a01b6=""></path></mask><g mask="url(#mask0_742_3472)" data-v-421a01b6=""><path d="M9.6748 15.5115L14.6707 12.983" stroke="#25282B" stroke-width="1.44" stroke-linecap="round" stroke-linejoin="round" data-v-421a01b6=""></path><path d="M9.74751 17.2816C9.37917 18.4864 8.10388 19.1645 6.89911 18.7962C5.69435 18.4278 5.0162 17.1524 5.38453 15.9476C5.75286 14.7429 7.02816 14.0648 8.23292 14.4331C9.43768 14.8015 10.1158 16.0769 9.74751 17.2816Z" fill="white" stroke="#F63854" stroke-width="0.89591" stroke-linecap="round" stroke-linejoin="round" data-v-421a01b6=""></path><path d="M9.67432 8.39392L14.6706 10.9227" stroke="#25282B" stroke-width="1.44" stroke-linecap="round" stroke-linejoin="round" data-v-421a01b6=""></path><path d="M8.34644 9.43452C7.1626 9.8654 5.85356 9.25498 5.42268 8.07115C4.9918 6.88732 5.60222 5.57828 6.78605 5.1474C7.96988 4.71652 9.27892 5.32693 9.7098 6.51077C10.1407 7.6946 9.53027 9.00364 8.34644 9.43452Z" fill="white" stroke="#F63854" stroke-width="0.89591" stroke-linecap="round" stroke-linejoin="round" data-v-421a01b6=""></path><path d="M18.3917 13.5659C17.5009 14.4567 16.0565 14.4567 15.1657 13.5659C14.2749 12.6751 14.2749 11.2307 15.1657 10.3399C16.0565 9.44905 17.5009 9.44905 18.3917 10.3399C19.2825 11.2307 19.2825 12.6751 18.3917 13.5659Z" fill="white" stroke="#F63854" stroke-width="0.89591" stroke-linecap="round" stroke-linejoin="round" data-v-421a01b6=""></path></g></g><defs data-v-421a01b6=""><clipPath id="clip0_742_3472" data-v-421a01b6=""><rect width="24" height="24" fill="white" data-v-421a01b6=""></rect></clipPath></defs></svg>