<svg width="24" height="24" viewBox="0 0 24 24" fill="none" xmlns="http://www.w3.org/2000/svg" data-v-421a01b6=""><path d="M19.3636 8.72639C19.7976 8.72639 20.2138 8.8988 20.5207 9.20567C20.8276 9.51255 21 9.92877 21 10.3628V13.6355C21 14.0695 20.8276 14.4857 20.5207 14.7926C20.2138 15.0994 19.7976 15.2718 19.3636 15.2718H18.4947C18.2953 16.8536 17.5254 18.3083 16.3296 19.3628C15.1338 20.4172 13.5943 20.9991 12 20.9991V19.3628C13.302 19.3628 14.5506 18.8456 15.4713 17.9249C16.3919 17.0043 16.9091 15.7556 16.9091 14.4537V9.54457C16.9091 8.2426 16.3919 6.99396 15.4713 6.07332C14.5506 5.15269 13.302 4.63548 12 4.63548C10.698 4.63548 9.44938 5.15269 8.52875 6.07332C7.60812 6.99396 7.09091 8.2426 7.09091 9.54457V15.2718H4.63636C4.20237 15.2718 3.78616 15.0994 3.47928 14.7926C3.1724 14.4857 3 14.0695 3 13.6355V10.3628C3 9.92877 3.1724 9.51255 3.47928 9.20567C3.78616 8.8988 4.20237 8.72639 4.63636 8.72639H5.50527C5.70493 7.14476 6.47488 5.69034 7.67065 4.63604C8.86642 3.58173 10.4058 3 12 3C13.5942 3 15.1336 3.58173 16.3293 4.63604C17.5251 5.69034 18.2951 7.14476 18.4947 8.72639H19.3636Z" fill="#25282B" data-v-421a01b6=""></path><path d="M9.43085 15.4854C9.02123 15.2955 8.90675 14.7858 9.14606 14.4029C9.38574 14.0195 9.88949 13.9104 10.3074 14.0831C10.8993 14.3278 11.5362 14.4548 12.182 14.4537C12.8278 14.4548 13.4646 14.3278 14.0566 14.0831C14.4745 13.9104 14.9782 14.0195 15.2179 14.4029C15.4572 14.7858 15.3427 15.2955 14.9331 15.4854C14.0741 15.8838 13.1354 16.0916 12.182 16.0901C11.2286 16.0916 10.2899 15.8838 9.43085 15.4854Z" fill="#F63854" data-v-421a01b6=""></path><ellipse cx="19.5452" cy="12.0001" rx="0.818182" ry="0.818182" fill="#F63854" data-v-421a01b6=""></ellipse><ellipse cx="4.81818" cy="12.0001" rx="0.818182" ry="0.818182" fill="#F63854" data-v-421a01b6=""></ellipse></svg>