<svg data-v-421a01b6="" width="24" height="24" viewBox="0 0 24 24" fill="none" xmlns="http://www.w3.org/2000/svg"><path data-v-421a01b6="" d="M8.96688 8.96688C8.85493 9.07881 8.76613 9.2117 8.70554 9.35795C8.64495 9.5042 8.61377 9.66096 8.61377 9.81926C8.61377 9.97757 8.64495 10.1343 8.70554 10.2806C8.76613 10.4268 8.85493 10.5597 8.96688 10.6716L10.6762 12.381L12.381 10.6762L10.6716 8.96688C10.5597 8.85493 10.4268 8.76613 10.2806 8.70554C10.1343 8.64495 9.97757 8.61377 9.81926 8.61377C9.66096 8.61377 9.5042 8.64495 9.35795 8.70554C9.2117 8.76613 9.07881 8.85493 8.96688 8.96688Z" fill="#F63854"></path><path data-v-421a01b6="" d="M10.6612 8.96346C10.1923 8.49453 9.43204 8.49447 8.96319 8.96333C8.49434 9.43218 8.4944 10.1924 8.96332 10.6613L17.4529 19.1509C17.9218 19.6198 18.682 19.6199 19.1509 19.151C19.6197 18.6822 19.6197 17.922 19.1508 17.453L10.6612 8.96346Z" stroke="black" stroke-width="1.2" stroke-miterlimit="10"></path><path data-v-421a01b6="" d="M4 9.4857H5.82857H4ZM5.60685 5.60685L6.8998 6.8998L5.60685 5.60685ZM9.4857 4V5.82857V4ZM13.3646 5.60685L12.0716 6.8998L13.3646 5.60685ZM6.8998 12.0716L5.60685 13.3646L6.8998 12.0716Z" fill="#F63854"></path><path data-v-421a01b6="" d="M4 9.4857H5.82857M5.60685 5.60685L6.8998 6.8998M9.4857 4V5.82857M13.3646 5.60685L12.0716 6.8998M6.8998 12.0716L5.60685 13.3646" stroke="#F63854" stroke-width="1.2" stroke-miterlimit="10" stroke-linecap="round"></path></svg>