<svg data-v-421a01b6="" width="24" height="24" viewBox="0 0 24 24" fill="none" xmlns="http://www.w3.org/2000/svg"><g data-v-421a01b6="" clip-path="url(#clip0_742_3467)"><mask data-v-421a01b6="" id="mask0_742_3467" maskUnits="userSpaceOnUse" x="0" y="0" width="24" height="24" style="mask-type: luminance;"><path data-v-421a01b6="" d="M0 0H24V24H0V0Z" fill="white"></path></mask><g data-v-421a01b6="" mask="url(#mask0_742_3467)"><path data-v-421a01b6="" d="M18.4045 17.4447V6.55497M5.59521 17.4447V6.55497M17.4445 5.59497H6.55522M17.4445 18.4047H6.55522" stroke="#25282B" stroke-width="0.924672" stroke-linecap="round" stroke-linejoin="round"></path><path data-v-421a01b6="" d="M17.4448 5.59525C17.4448 6.12546 17.8746 6.55525 18.4048 6.55525C18.935 6.55525 19.3648 6.12546 19.3648 5.59525C19.3648 5.06505 18.935 4.63525 18.4048 4.63525C17.8746 4.63525 17.4448 5.06505 17.4448 5.59525ZM4.63525 5.59525C4.63525 6.12546 5.06505 6.55525 5.59525 6.55525C6.12546 6.55525 6.55525 6.12546 6.55525 5.59525C6.55525 5.06505 6.12546 4.63525 5.59525 4.63525C5.06505 4.63525 4.63525 5.06505 4.63525 5.59525ZM4.63525 18.4048C4.63525 18.935 5.06505 19.3648 5.59525 19.3648C6.12546 19.3648 6.55525 18.935 6.55525 18.4048C6.55525 17.8746 6.12546 17.4448 5.59525 17.4448C5.06505 17.4448 4.63525 17.8746 4.63525 18.4048ZM17.4448 18.4048C17.4448 18.935 17.8746 19.3648 18.4048 19.3648C18.935 19.3648 19.3648 18.935 19.3648 18.4048C19.3648 17.8746 18.935 17.4448 18.4048 17.4448C17.8746 17.4448 17.4448 17.8746 17.4448 18.4048Z" fill="white" stroke="#F63854" stroke-width="0.924672" stroke-linecap="round" stroke-linejoin="round"></path><path data-v-421a01b6="" d="M15.4274 9.7461H12.7943V15.8428M11.2059 15.8428V9.7461H8.57275M10.3524 15.8428H13.6478M8.57275 10.6798V8.1571H15.4274V10.6797" stroke="#F63854" stroke-width="0.924672" stroke-linecap="round" stroke-linejoin="round"></path></g></g><defs data-v-421a01b6=""><clipPath data-v-421a01b6="" id="clip0_742_3467"><rect data-v-421a01b6="" width="24" height="24" fill="white"></rect></clipPath></defs></svg>