<svg width="24" height="24" viewBox="0 0 24 24" fill="none" xmlns="http://www.w3.org/2000/svg" data-v-421a01b6=""><path d="M7.39578 17.9944C10.3654 20.4205 15.0534 19.5956 17.8668 16.1519C20.6803 12.7083 20.5536 7.94985 17.5841 5.52374C14.6145 3.09763 9.92644 3.92261 7.11301 7.36627C4.32095 10.7838 8.63509 10.4436 8.89271 12.296C9.09901 13.7793 4.24929 15.4238 7.39578 17.9944Z" stroke="#25282B" stroke-width="0.924672" stroke-linecap="round" stroke-linejoin="round" data-v-421a01b6=""></path><path d="M14.9346 13.3128C15.571 13.8328 16.5083 13.7383 17.0283 13.1019C17.5482 12.4655 17.4538 11.5282 16.8174 11.0083C16.181 10.4883 15.2436 10.5827 14.7237 11.2191C14.2038 11.8555 14.2982 12.7929 14.9346 13.3128ZM10.5221 17.1098C11.2611 17.7136 12.3497 17.6039 12.9535 16.8649C13.5573 16.1258 13.4476 15.0373 12.7086 14.4335C11.9695 13.8297 10.881 13.9393 10.2772 14.6784C9.67339 15.4174 9.78302 16.506 10.5221 17.1098ZM14.1349 8.57691C14.6687 9.01299 15.4548 8.93379 15.8909 8.40003C16.327 7.86627 16.2478 7.08008 15.714 6.644C15.1802 6.20792 14.3941 6.28712 13.958 6.82088C13.5219 7.35464 13.6011 8.14083 14.1349 8.57691ZM9.59073 9.36982C10.0218 9.72205 10.6568 9.65806 11.009 9.22697C11.3613 8.79589 11.2973 8.16089 10.8662 7.80867C10.4351 7.45645 9.80011 7.52043 9.44788 7.95152C9.09566 8.38261 9.15964 9.0176 9.59073 9.36982Z" stroke="#F63854" stroke-width="0.924672" stroke-linecap="round" stroke-linejoin="round" data-v-421a01b6=""></path><path d="M3.74292 15.7294C3.75828 14.335 3.98676 12.1423 4.40196 9.69864C5.10036 5.586 6.0618 2.31912 6.54948 2.40168C7.03716 2.48472 6.86628 5.886 6.16788 9.99864C5.94276 11.3225 5.69076 12.559 5.43588 13.6241C5.2338 14.4684 5.03028 15.2052 4.83684 15.7927" fill="white" data-v-421a01b6=""></path><path d="M3.74292 15.7294C3.75828 14.335 3.98676 12.1423 4.40196 9.69864C5.10036 5.586 6.0618 2.31912 6.54948 2.40168C7.03716 2.48472 6.86628 5.886 6.16788 9.99864C5.94276 11.3225 5.69076 12.559 5.43588 13.6241C5.2338 14.4684 5.03028 15.2052 4.83684 15.7927" stroke="#25282B" stroke-width="0.924672" stroke-linecap="round" stroke-linejoin="round" data-v-421a01b6=""></path><path d="M5.69671 18.0913C5.44696 19.2248 4.47938 19.7916 4.25234 21.562C2.99334 21.3271 2.20907 18.8931 2.44019 17.3738C2.61477 16.2263 3.62138 15.4819 4.52066 15.6801C5.41994 15.8782 5.94645 16.9577 5.69671 18.0913Z" fill="white" stroke="#F63854" stroke-width="0.924672" stroke-linecap="round" stroke-linejoin="round" data-v-421a01b6=""></path></svg>