<svg width="24" height="24" viewBox="0 0 24 24" fill="none" xmlns="http://www.w3.org/2000/svg" data-v-421a01b6=""><path d="M19.1578 12V4.63163C19.1578 4.24079 19.0247 3.86596 18.7878 3.58959C18.5509 3.31322 18.2296 3.15796 17.8946 3.15796H5.26315C4.92814 3.15796 4.60685 3.31322 4.36997 3.58959C4.13308 3.86596 4 4.24079 4 4.63163V19.3684C4 19.7592 4.13308 20.134 4.36997 20.4104C4.60685 20.6868 4.92814 20.842 5.26315 20.842H11.5789" stroke="#25282B" stroke-width="1.17894" stroke-linecap="round" stroke-linejoin="round" data-v-421a01b6=""></path><path d="M7.36841 8.21057H15.7894M7.36841 11.579H10.7368" stroke="#25282B" stroke-width="1.17894" stroke-linecap="round" stroke-linejoin="round" data-v-421a01b6=""></path><path d="M12.9539 18.7622C13.3102 19.4824 13.8879 20.0695 14.6024 20.4372C15.3117 20.8014 16.1204 20.9244 16.9059 20.7875C17.6939 20.649 18.4158 20.259 18.9636 19.6759C19.5165 19.0873 19.8685 18.3385 19.969 17.5372C20.0712 16.7341 19.9174 15.9193 19.5295 15.2087C19.1452 14.5035 18.5446 13.9404 17.8162 13.6023C17.0927 13.2672 16.2797 13.1773 15.5004 13.3463C14.7215 13.5151 14.0832 13.8991 13.5552 14.5063C13.4916 14.5737 13.2457 14.8457 13.0415 15.2563M14.3156 15.3683L12.7961 15.6715L12.4209 14.1051M16.2103 15.7894V17.4737L17.4735 18.3158" stroke="#F63854" stroke-width="1.01052" stroke-linecap="round" stroke-linejoin="round" data-v-421a01b6=""></path></svg>