<svg xmlns="http://www.w3.org/2000/svg" viewBox="0 0 1200 630" preserveAspectRatio="xMidYMid slice">
  <defs>
    <linearGradient id="bg" x1="0%" y1="0%" x2="100%" y2="100%">
      <stop offset="0%" stop-color="#5b21b6" />
      <stop offset="100%" stop-color="#8b5cf6" />
    </linearGradient>
    <linearGradient id="glow" x1="0%" y1="0%" x2="100%" y2="100%">
      <stop offset="0%" stop-color="#a78bfa" stop-opacity="0.6" />
      <stop offset="100%" stop-color="#c4b5fd" stop-opacity="0.2" />
    </linearGradient>
  </defs>
  <rect width="1200" height="630" fill="url(#bg)" />
  <rect x="100" y="80" width="1000" height="470" rx="40" fill="rgba(255,255,255,0.08)" />
  <rect x="120" y="100" width="960" height="430" rx="30" fill="rgba(255,255,255,0.12)" />
  <circle cx="320" cy="240" r="60" fill="#ffffff" fill-opacity="0.18" />
  <path d="M620 220h360v180H620z" fill="rgba(255,255,255,0.16)" rx="20" />
  <path d="M120 340h320v32H120z" fill="rgba(255,255,255,0.17)" />
  <path d="M120 400h560v32H120z" fill="rgba(255,255,255,0.14)" />
  <path d="M120 460h460v32H120z" fill="rgba(255,255,255,0.14)" />
  <text x="150" y="210" fill="#ffffff" font-family="Inter, sans-serif" font-size="72" font-weight="700">Portal</text>
  <text x="150" y="290" fill="#ffffff" font-family="Inter, sans-serif" font-size="72" font-weight="700">Input Tamu</text>
  <text x="150" y="370" fill="#e0e7ff" font-family="Inter, sans-serif" font-size="28" font-weight="500">Masuk ke portal input tamu Anda</text>
  <rect x="740" y="220" width="220" height="220" rx="30" fill="url(#glow)" />
  <circle cx="820" cy="300" r="48" fill="#ffffff" fill-opacity="0.9" />
  <path d="M820 270v60M790 300h60" stroke="#5b21b6" stroke-width="16" stroke-linecap="round" />
</svg>
