<svg xmlns="http://www.w3.org/2000/svg" width="50" viewBox="0 0 1131 2000"><path fill="#ededed66" clip-rule="evenodd" fill-rule="evenodd" d="M147 1868c3,-15 7,-30 11,-45 -6,-25 -9,-51 -18,-75 -8,-25 -19,-49 -31,-71 -16,-33 -36,-65 -56,-96 2,8 3,15 5,23 23,85 76,174 89,264zm-99 -310c26,38 51,76 72,116 19,36 38,79 45,121 3,-11 6,-23 9,-35 -2,-5 -1,-12 -1,-18 0,-5 0,-11 -1,-17 -1,-12 -3,-24 -6,-36l4 -6 5 4c4,12 6,24 8,37l0 3c4,-13 7,-26 11,-39 0,-9 0,-17 -1,-26 -3,-19 -9,-37 -16,-54 -13,-33 -32,-64 -53,-93 -33,-47 -71,-93 -94,-147 0,20 0,40 1,59l1 1c5,7 10,14 15,21 10,15 21,31 31,46 21,31 42,62 63,94 5,6 -5,15 -10,8 -25,-38 -50,-76 -75,-114 -8,-12 -16,-24 -24,-36 3,38 8,75 16,111zm4 -381c-7,33 -12,67 -16,101 4,10 10,19 14,26 10,19 23,36 36,53 22,28 47,56 68,85 33,47 56,99 67,155 7,-24 14,-48 22,-71 -7,-88 -33,-173 -77,-249 -27,-47 -85,-106 -97,-167 -6,22 -12,44 -17,67zm194 -436c-1,20 -1,39 3,60 4,24 12,48 21,71 11,26 24,52 37,77 6,13 13,26 19,39 5,11 12,23 13,35 0,4 -4,7 -7,4 -9,-11 -14,-28 -20,-41 -6,-13 -13,-26 -19,-39 -13,-27 -26,-53 -37,-81 -12,-33 -23,-72 -20,-109 -28,40 -53,82 -76,125 12,91 47,174 82,257 17,41 33,82 45,125 8,26 16,56 18,85 22,-56 44,-112 67,-167 1,-9 0,-19 -1,-28 -1,-5 7,-6 8,-1 1,3 1,7 1,10 4,-9 8,-17 11,-26 -1,-17 -2,-33 -5,-50 -6,-24 -14,-46 -23,-68 -19,-45 -44,-87 -65,-132 -23,-50 -43,-111 -36,-168 -5,7 -10,15 -16,22zm178 -212c-15,45 -22,92 -16,139 3,30 11,59 18,89 3,15 7,30 10,45 4,14 9,29 9,44 0,6 -7,6 -10,2 -7,-15 -8,-33 -12,-49 -3,-16 -7,-32 -11,-47 -6,-31 -14,-61 -17,-92 -3,-40 2,-80 16,-117 -47,49 -92,100 -133,154 -15,77 12,150 48,221 21,41 44,81 59,125 7,21 15,44 18,68 17,-39 35,-78 54,-117 1,-6 1,-11 1,-17l5 -4 3 2c5,-11 10,-21 16,-32 10,-90 -27,-176 -44,-263 -11,-57 -13,-123 12,-176 -9,8 -17,17 -26,25zm560 -185c-18,11 -37,20 -57,26 -16,5 -32,9 -47,12 -18,4 -36,8 -51,19l-1 0c-5,7 -10,15 -16,22 -3,5 -7,11 -10,16l0 1c0,3 -2,5 -4,5 -22,32 -43,65 -64,98 11,-7 23,-12 35,-16 30,-12 62,-19 89,-37 3,-2 7,2 4,4 -24,19 -52,28 -80,39 -27,10 -51,23 -71,45 -26,43 -53,86 -78,129 33,-44 87,-68 136,-91 34,-16 66,-34 95,-56 21,-16 40,-35 60,-53 20,-54 40,-108 60,-163zm-365 388c-2,4 -4,8 -6,12 3,-3 6,-5 10,-7l-4 -5zm295 -199c-33,33 -74,60 -113,80 -61,32 -125,57 -166,115 28,-18 57,-34 86,-49 61,-32 129,-60 179,-109 5,-12 9,-24 14,-37zm89 -243c-16,7 -32,16 -49,22 -20,8 -47,16 -68,8 -15,20 -29,41 -44,62 23,-10 51,-12 74,-19 25,-7 49,-18 72,-30 5,-15 10,-29 15,-43zm74 -214c-64,77 -126,156 -185,236 10,0 20,1 30,-1 12,-2 23,-6 33,-10 17,-7 34,-14 51,-20 24,-68 48,-137 71,-205zm-183 92c-1,21 -2,42 -2,64 0,12 -1,25 0,37 0,4 0,8 0,12 59,-77 122,-152 187,-224 -62,36 -124,72 -185,111zm-66 41c-15,64 -24,129 -25,194 25,-36 51,-72 78,-107l0 -9c0,-6 0,-13 0,-19 0,-12 0,-24 0,-36 0,-20 2,-40 4,-59 -19,12 -38,24 -57,36zm-63 42c-23,46 -38,95 -40,147 -2,28 2,56 4,84 0,9 1,19 1,29 19,-30 39,-60 60,-89 0,-69 8,-139 28,-206 -18,12 -35,23 -53,35zm-63 45c-10,50 -4,100 -1,152 2,29 1,59 -3,89 -2,11 -4,22 -7,33 9,-14 18,-27 27,-41 0,-7 1,-13 1,-20 1,-15 0,-29 -1,-44 -2,-26 -4,-52 -2,-79 4,-43 15,-87 37,-126 -17,12 -35,24 -51,36zm-49 36c-12,21 -23,42 -31,64 -13,36 -15,73 -10,111 4,35 12,69 17,103 2,18 4,37 3,56 12,-19 23,-38 34,-56 3,-12 9,-24 12,-36 4,-17 7,-33 10,-50 4,-31 3,-62 1,-94 -2,-44 -4,-86 4,-128 -13,10 -27,20 -40,30zm-67 52c-7,27 -12,54 -13,82 -1,40 6,80 13,120 6,37 11,73 9,110 0,14 -2,28 -5,42 9,-15 18,-30 26,-44 2,-16 4,-31 4,-47 -1,-18 -3,-36 -6,-54 -6,-35 -13,-70 -15,-105 -3,-51 11,-99 35,-142 -16,13 -32,25 -48,38zm-116 101c-80,130 25,289 24,432 19,-37 39,-74 59,-111l0 -3c1,-4 3,-7 5,-10l-1 -6c16,-35 25,-68 25,-107 0,-40 -8,-79 -13,-117 -9,-58 -10,-114 5,-169 -36,29 -70,59 -104,91zm-18 572c40,-45 111,-70 159,-96 46,-26 90,-57 129,-93 29,-26 53,-55 77,-84 26,-65 51,-130 76,-195 -40,38 -92,62 -141,88 -37,19 -75,39 -109,63 -16,11 -31,23 -46,35l-5 6c-21,37 -41,74 -60,112 72,-71 187,-88 255,-165l4 2c-70,98 -212,105 -278,208l-5 3c-20,38 -38,77 -56,116zm349 -233l1 0c-42,50 -98,94 -150,127 -37,24 -77,41 -115,62 -50,27 -80,58 -107,107l-7 1c-7,15 -14,30 -20,46 46,-64 106,-118 177,-151 3,-1 5,3 2,5 -85,54 -157,122 -206,210l-1 2c-12,30 -24,59 -35,89 51,-75 116,-141 191,-193 74,-51 155,-94 213,-163 11,-28 22,-55 33,-82 -13,19 -29,38 -46,55 -23,23 -51,43 -82,55 -8,3 -14,-10 -6,-13 32,-11 58,-30 81,-53 24,-23 43,-50 65,-74l0 0c4,-10 8,-20 12,-30zm-175 415c-59,63 -137,107 -206,157 -37,26 -72,55 -103,88 -18,19 -34,40 -47,63l-5 9c20,-23 41,-44 66,-62 16,-12 34,-23 53,-33 10,-5 20,-9 30,-14 4,-2 8,-4 13,-6 3,-1 13,-6 17,-11l0 0 1 -5 6 -1 3 4c0,14 -29,26 -39,32 -22,11 -43,21 -62,35 -39,27 -72,61 -99,101 -2,3 -5,3 -8,3l-4 6c-4,13 -8,26 -11,38 35,-34 89,-54 132,-71 30,-12 59,-24 87,-40 16,-9 30,-19 42,-30 49,-85 93,-173 134,-263zm-416 478c14,-17 33,-32 50,-45 19,-14 39,-24 61,-32 22,-8 44,-14 66,-22 19,-7 36,-17 53,-28 12,-20 24,-41 36,-62 -26,19 -56,32 -83,44 -29,13 -59,24 -88,38 -33,17 -56,38 -83,63 -4,14 -8,29 -12,44zm83 -335c-2,-20 -1,-40 -5,-60 -3,-22 -9,-44 -15,-66 -14,-45 -32,-88 -50,-131 -30,-74 -63,-150 -69,-231 -9,18 -18,36 -26,53l2 3c-1,92 47,172 90,250 21,38 41,78 54,120 7,21 14,48 15,73 2,-3 3,-7 4,-11zm371 -227c-45,45 -103,82 -152,115 -43,29 -86,58 -125,92 -23,20 -44,41 -63,64 -17,22 -28,46 -43,68l-4 3c-3,8 -6,17 -9,25 8,-11 16,-21 24,-29 29,-35 64,-65 100,-93 85,-62 173,-113 247,-188 8,-19 17,-38 25,-57zm-345 220c-7,21 -14,41 -22,62 17,-24 38,-46 58,-65 38,-35 80,-65 123,-94 44,-29 89,-58 131,-91 28,-23 51,-47 73,-74 18,-40 34,-80 51,-121 -48,54 -114,92 -172,132 -97,66 -174,149 -236,248l-6 3zm-240 -299c3,43 19,79 45,116 24,34 48,67 67,104 32,62 53,130 62,200 8,-23 16,-45 23,-68l-1 -2c-2,-22 0,-43 -4,-65 -4,-23 -11,-45 -19,-66 -15,-40 -36,-77 -56,-115 -38,-68 -74,-140 -73,-220 -17,38 -31,76 -44,116zm-48 268c28,69 78,124 119,186 19,30 37,61 47,96 3,8 5,17 7,26 3,-8 5,-17 7,-25 -10,-81 -45,-151 -95,-214 -25,-31 -51,-61 -71,-95 -3,-5 -7,-12 -11,-19 -1,15 -3,30 -3,45zm394 269c-26,15 -59,24 -85,33 -24,9 -47,18 -68,33 -22,16 -40,38 -61,56l-6 0c-19,67 -35,135 -50,203 105,-95 193,-206 270,-325zm-305 376c-8,-2 -14,-9 -11,-18 30,-79 -4,-161 -34,-235 -30,-73 -54,-147 -66,-226 -41,-287 62,-582 230,-813 222,-304 549,-508 869,-695 13,-8 26,8 22,20 -51,158 -105,314 -163,469 -102,273 -209,545 -334,809 -119,251 -264,495 -482,673l-4 1c-1,6 -2,11 -3,16 -3,14 -25,13 -24,-1z"></path></svg>