<svg xmlns="http://www.w3.org/2000/svg" width="60" viewBox="0 0 1600 1821"><path fill="#ededed66" clip-rule="evenodd" fill-rule="evenodd" d="M1530 134c-8,14 -16,29 -24,44 -1,28 -4,55 -2,84 2,27 7,55 13,82 9,39 20,77 33,115 0,-9 1,-17 1,-25 -1,-95 -33,-203 -21,-300zm19 350c-17,-46 -33,-92 -44,-141 -9,-42 -18,-92 -14,-138 -6,11 -12,23 -19,34 1,6 -2,13 -3,19 -2,6 -3,12 -4,18 -2,14 -3,27 -3,40l-6 5 -4 -6c-1,-13 0,-27 1,-40l1 -3c-8,12 -15,25 -22,37 -3,9 -5,18 -6,28 -2,20 -1,40 2,60 5,38 16,75 30,111 22,58 49,117 58,179 6,-20 11,-41 15,-61l0 -1c-4,-9 -7,-18 -10,-26 -7,-19 -14,-38 -20,-58 -14,-38 -28,-76 -41,-114 -3,-8 10,-14 12,-6 17,46 32,93 48,139 5,15 11,29 15,44 8,-40 12,-80 14,-120zm-108 397c17,-33 31,-67 45,-101 -2,-11 -6,-22 -8,-31 -6,-22 -14,-44 -23,-65 -16,-36 -34,-71 -48,-108 -22,-57 -32,-118 -28,-179 -14,23 -28,45 -42,68 -17,93 -13,189 12,281 16,56 61,134 56,200 13,-21 25,-43 36,-65zm-321 402c7,-20 12,-41 13,-63 2,-27 1,-54 -2,-80 -4,-31 -11,-60 -17,-90 -4,-16 -7,-31 -10,-47 -2,-12 -7,-27 -4,-40 1,-4 6,-6 8,-1 7,14 7,32 10,47 3,16 6,31 9,47 7,31 14,62 17,94 4,38 4,81 -9,120 40,-35 78,-72 113,-111 13,-98 -1,-193 -15,-290 -7,-48 -13,-95 -14,-143 0,-29 -1,-63 5,-94 -38,53 -76,105 -116,157 -3,9 -5,19 -6,29 0,5 -8,5 -8,-1l1 -11c-6,8 -12,16 -19,24 -3,18 -7,36 -7,55 -1,25 1,51 5,77 8,52 22,103 32,154 10,59 14,129 -9,186 8,-6 16,-13 23,-19zm-243 173c28,-42 48,-90 55,-140 4,-33 4,-66 5,-98 0,-17 1,-33 1,-50 1,-16 -1,-33 3,-49 1,-5 10,-4 11,1 3,17 0,37 -1,54 0,18 -1,35 -1,53 -1,33 -1,67 -7,100 -7,43 -24,83 -49,118 63,-38 124,-80 181,-125 37,-76 28,-160 10,-243 -11,-49 -23,-97 -28,-147 -2,-23 -3,-50 0,-75 -29,36 -58,72 -88,107 -2,6 -4,11 -6,17l-6 3 -3 -3c-8,10 -16,20 -25,29 -35,92 -20,191 -26,286 -4,64 -19,132 -60,181 11,-6 23,-13 34,-19zm-634 41c21,-6 44,-10 66,-12 18,-1 35,-1 53,0 20,2 39,2 57,-5l1 0c8,-6 15,-13 23,-19 5,-5 10,-9 15,-14l0 -1 6 -4c32,-28 63,-56 94,-84 -14,3 -28,6 -41,7 -35,4 -70,3 -103,14 -4,1 -7,-4 -3,-6 30,-12 62,-15 93,-18 32,-4 60,-11 86,-28 40,-37 79,-75 117,-114 -46,37 -109,48 -167,59 -39,7 -77,17 -114,32 -27,11 -51,26 -77,39 -35,51 -71,103 -106,154zm485 -306c4,-3 7,-7 10,-10 -4,1 -8,3 -12,4l2 6zm-361 127c44,-24 94,-42 140,-52 72,-17 146,-25 204,-75 -34,11 -68,20 -103,28 -73,17 -152,27 -217,65 -8,11 -16,23 -24,34zm-159 231c19,-4 38,-8 57,-11 23,-2 53,-4 73,11 21,-17 42,-35 63,-53 -27,4 -56,-1 -82,0 -29,1 -56,5 -84,12 -9,13 -18,27 -27,41zm-136 203c88,-64 174,-129 258,-197 -11,-3 -21,-6 -32,-7 -13,-1 -25,0 -37,2 -20,2 -39,6 -59,7 -44,65 -87,129 -130,195zm217 -46c7,-22 13,-44 19,-67 4,-13 7,-26 10,-39 2,-4 3,-8 4,-13 -83,65 -169,127 -257,184 75,-20 150,-42 224,-65zm79 -26c33,-63 60,-128 80,-196 -37,31 -73,62 -111,91l-2 9c-2,7 -4,14 -5,20 -4,13 -7,26 -11,38 -5,21 -12,41 -20,60 23,-7 46,-14 69,-22zm77 -27c37,-41 66,-88 83,-142 9,-29 12,-59 18,-89 2,-9 5,-20 7,-30 -28,26 -57,52 -87,77 -18,72 -46,143 -85,207 22,-8 43,-15 64,-23zm79 -29c23,-50 31,-104 42,-158 6,-32 15,-63 27,-93 5,-11 11,-22 16,-32 -13,12 -25,24 -38,36 -3,6 -6,13 -7,20 -5,15 -8,31 -11,46 -5,28 -10,56 -19,83 -16,44 -40,87 -73,121 21,-7 42,-15 63,-23zm61 -24c17,-19 35,-38 49,-59 24,-34 35,-73 41,-113 5,-38 6,-75 11,-112 2,-19 5,-40 11,-60 -17,17 -34,34 -51,50 -6,12 -15,23 -22,35 -9,15 -16,32 -23,49 -13,31 -21,64 -28,97 -9,46 -18,92 -39,133 17,-7 34,-13 51,-20zm83 -36c15,-26 28,-54 36,-82 13,-42 16,-86 20,-129 3,-40 8,-80 20,-118 4,-14 9,-28 16,-42 -13,13 -26,26 -39,39 -6,16 -12,31 -16,48 -4,19 -7,38 -9,58 -4,38 -5,76 -12,114 -11,54 -39,99 -76,138 20,-9 40,-17 60,-26zm149 -74c119,-114 53,-309 92,-458 -30,34 -60,67 -91,100l-1 4c-3,3 -5,6 -8,8l-1 6c-26,33 -45,65 -55,106 -11,41 -13,84 -18,126 -7,62 -21,121 -51,174 45,-20 89,-43 133,-66zm175 -592c-55,35 -136,43 -193,57 -55,14 -109,34 -160,61 -37,19 -70,44 -103,68 -45,60 -89,121 -132,182 52,-29 113,-40 171,-53 44,-10 89,-21 131,-37 20,-7 39,-15 57,-24l7 -4c32,-33 63,-67 94,-101 -95,54 -220,41 -312,103 -3,2 -6,-2 -4,-4 101,-82 250,-51 347,-141l7 -1c30,-35 60,-71 90,-106zm-429 148l0 0c58,-41 128,-72 190,-92 45,-15 92,-22 138,-34 59,-14 99,-38 140,-83 3,-2 6,-1 8,2 11,-14 23,-28 34,-43 -66,54 -143,94 -226,109l-1 -5c103,-33 197,-85 271,-164l2 -1c21,-28 42,-56 62,-84 -74,65 -161,116 -253,150 -91,33 -187,56 -266,112 -19,26 -38,52 -57,77 19,-17 41,-32 62,-45 31,-18 66,-32 101,-35 10,-1 12,14 3,14 -36,4 -68,17 -99,34 -31,18 -58,41 -88,60l0 0c-7,9 -14,19 -21,28zm296 -386c79,-49 172,-74 258,-107 45,-18 90,-38 131,-64 24,-16 46,-33 66,-53 3,-3 5,-6 7,-8 -26,18 -54,34 -84,46 -21,8 -43,15 -65,20 -12,3 -23,4 -35,7 -5,0 -10,1 -15,2 -4,1 -16,3 -21,7l0 1 -2 4 -7 0 -2 -5c4,-15 37,-20 50,-23 25,-5 50,-10 74,-19 48,-18 92,-45 130,-79 3,-3 7,-2 10,-1l5 -5c8,-13 15,-25 23,-37 -46,26 -109,32 -158,38 -34,5 -69,9 -102,18 -19,5 -36,12 -52,20 -74,76 -144,156 -211,238zm564 -385c-19,14 -43,24 -64,33 -24,9 -48,14 -73,17 -25,2 -50,2 -74,5 -23,2 -43,7 -63,15 -19,17 -37,36 -55,54 32,-12 67,-18 99,-23 34,-5 68,-9 102,-16 39,-9 69,-24 104,-43 8,-14 16,-28 24,-42zm-178 326c-3,21 -9,42 -11,64 -2,24 -3,49 -2,73 2,51 9,101 16,151 13,85 26,174 10,259 14,-16 28,-32 41,-48l0 -3c26,-96 -3,-193 -27,-286 -12,-46 -22,-92 -24,-139 -1,-25 -1,-55 5,-81 -3,3 -5,7 -8,10zm-448 137c59,-35 130,-58 190,-79 52,-19 105,-37 155,-62 29,-15 57,-31 83,-50 24,-18 42,-40 64,-59l5 -2c5,-8 10,-16 15,-24 -11,9 -22,17 -32,24 -40,29 -85,51 -130,69 -105,43 -211,72 -308,130 -15,17 -29,35 -42,53zm419 -136c14,-20 27,-39 40,-59 -24,20 -52,37 -78,52 -49,27 -101,46 -154,64 -54,19 -109,37 -161,60 -36,16 -67,36 -97,57 -29,38 -57,75 -86,113 65,-43 144,-65 216,-91 118,-43 222,-108 313,-195l7 -1zm169 377c10,-45 3,-87 -14,-133 -16,-42 -32,-83 -42,-127 -17,-74 -21,-150 -11,-226 -14,22 -28,43 -43,65l1 2c-3,24 -11,46 -13,70 -2,24 -1,49 2,73 5,46 16,91 27,136 21,81 39,166 16,249 28,-35 53,-71 77,-109zm124 -267c-11,-79 -48,-150 -74,-226 -12,-37 -22,-74 -24,-113 0,-9 0,-19 0,-29 -4,8 -9,16 -14,24 -11,87 6,169 42,249 17,39 36,77 48,118 2,6 4,15 6,23 6,-15 11,-30 16,-46zm-339 -387c32,-10 68,-9 99,-12 27,-2 53,-6 79,-16 28,-11 52,-29 79,-41l7 1c37,-65 73,-131 107,-199 -136,72 -258,164 -371,267zm421 -310c7,4 12,13 6,22 -52,75 -39,169 -27,254 11,85 16,168 6,254 -35,310 -222,591 -460,786 -314,257 -712,381 -1096,489 -15,5 -25,-15 -17,-27 96,-150 195,-299 297,-445 180,-257 367,-512 568,-753 193,-230 410,-446 686,-571l5 -1c2,-5 5,-10 7,-15 7,-15 30,-7 25,7z"></path></svg>