<svg xmlns="http://www.w3.org/2000/svg" viewBox="0 0 10100 7600" xmlns:xlink="http://www.w3.org/1999/xlink" width="200" fill="white"><path d="M4142 2851c1,0 1,0 1,0 82,69 156,145 223,228 33,41 64,84 92,128 11,17 22,34 32,52 -15,-63 -34,-126 -56,-187 -47,-127 -106,-248 -172,-366 -66,-118 -141,-230 -211,-346 -13,-21 -25,-41 -37,-62 31,187 86,368 128,553zm23 105c22,118 35,237 32,356 -2,117 -18,233 -41,348 -20,99 -47,196 -76,292 44,262 87,524 130,787 10,60 22,120 30,181 40,-101 80,-202 116,-304 89,-252 157,-515 178,-782 13,-167 4,-334 -27,-496 -25,-36 -45,-76 -69,-112 -30,-44 -60,-87 -93,-127 -58,-72 -123,-139 -192,-200 4,19 8,38 12,57zm-224 1407c-38,107 -74,213 -106,322 4,45 7,92 12,137 6,65 13,129 20,194 15,128 33,257 54,385 5,35 11,70 17,105 4,23 9,47 13,70 27,-55 53,-111 79,-167 67,-149 132,-299 194,-450 -15,-60 -23,-122 -33,-182 -12,-68 -23,-135 -34,-203 -23,-134 -46,-269 -69,-404 -9,-53 -18,-106 -27,-159 -38,118 -79,235 -120,352zm-194 723c-28,223 -13,446 59,660 7,21 15,42 23,62 3,-5 7,-11 10,-17 34,-61 66,-122 97,-185 -7,-25 -10,-51 -15,-76 -5,-31 -11,-62 -16,-94 -11,-65 -21,-130 -30,-196 -18,-128 -34,-256 -45,-386 -3,-38 -7,-76 -11,-114 -31,114 -57,229 -72,346zm130 691c229,-167 412,-388 560,-627 38,-63 75,-127 110,-192 -170,175 -342,349 -510,525 -4,4 -8,5 -12,4 -47,98 -95,195 -148,290zm916 -1376c83,-240 136,-495 125,-749 -4,-71 -13,-140 -27,-208 -39,116 -86,229 -136,340 -55,122 -113,242 -175,361 -17,34 -35,68 -53,102 -8,16 -16,32 -25,48 -6,11 -11,22 -19,32 -17,64 -36,127 -57,189 -92,274 -207,541 -325,805 -17,39 -35,78 -54,118 176,-174 349,-350 524,-525 87,-166 162,-338 222,-513zm-133 -1493c-53,-76 -111,-148 -174,-217 2,17 3,35 4,51 3,34 4,68 3,102 -1,34 -3,67 -8,100 -5,31 -9,65 -22,94 84,223 123,457 115,697 -5,166 -30,329 -68,490 12,-23 25,-46 37,-69 31,-59 61,-118 90,-178 59,-120 113,-243 165,-366 28,-65 55,-130 83,-194 -41,-182 -118,-353 -225,-510zm-207 -253c-118,-124 -249,-236 -385,-341 -4,-2 -7,-5 -11,-8 69,96 131,196 191,297 70,117 134,238 187,363 5,11 9,23 14,34 3,-18 7,-37 10,-55 5,-34 8,-67 9,-101 1,-32 0,-65 -3,-97 -1,-16 -3,-33 -5,-49 -2,-14 -6,-28 -7,-43zm-2025 4184c-18,8 -37,16 -55,25 20,-1 40,-1 59,-2 49,-3 99,-5 148,-8 93,-7 187,-14 281,-24 46,-40 94,-79 140,-121 36,-33 71,-68 105,-103 -48,14 -96,29 -143,45 -101,33 -202,66 -302,101 -77,28 -153,58 -230,85 -1,0 -2,1 -3,2zm20 82c96,17 191,39 286,62 186,44 375,90 568,91 161,1 316,-34 465,-88 -111,-9 -224,-30 -333,-53 -59,-12 -117,-25 -176,-39 -29,-8 -58,-15 -87,-23 -26,-7 -52,-13 -77,-22 -51,6 -102,13 -153,19 -109,12 -219,22 -329,30 -54,4 -108,7 -162,9 -22,2 -46,3 -69,4 23,3 45,7 67,10zm1356 51c32,-13 65,-26 97,-41 202,-90 393,-203 586,-310 121,-67 241,-134 362,-200 62,-33 123,-67 185,-101 23,-12 46,-25 69,-38 -327,147 -666,267 -1012,363 -307,85 -620,150 -936,195 7,2 14,4 20,5 29,8 58,16 88,23 59,15 119,28 179,41 120,24 241,39 360,62 1,0 1,0 2,1zm1117 -707c-95,8 -190,18 -285,29 -132,15 -265,33 -396,54 -25,28 -53,53 -79,79 -30,30 -60,60 -91,89 -46,44 -94,87 -142,130 220,-53 437,-116 652,-188 188,-64 375,-134 558,-209 -72,6 -144,10 -217,16zm-865 235c30,-29 59,-58 87,-88 19,-18 36,-38 54,-57 -40,6 -81,13 -122,20 -312,56 -622,128 -926,218 -78,82 -160,165 -251,233 183,-19 366,-45 547,-78 150,-27 299,-58 447,-93 55,-51 110,-103 164,-155zm-1460 -159c93,-98 184,-197 275,-297 86,-95 171,-192 243,-299 59,-87 105,-179 140,-275 -23,13 -47,25 -71,38 -34,19 -68,39 -101,59 -67,40 -133,83 -197,127 -126,88 -247,184 -361,288 -48,131 -102,260 -165,385 -76,153 -164,298 -268,433 183,-135 348,-294 505,-459zm745 -1252c23,-234 3,-469 -25,-701 -2,-23 -5,-46 -8,-68 -35,40 -74,78 -110,118 -42,45 -83,91 -124,137 -42,45 -82,92 -123,138 -20,22 -39,44 -59,65 -14,16 -28,36 -45,51 -18,73 -36,146 -54,219 -73,298 -148,597 -251,886 103,-92 211,-179 325,-258 67,-46 135,-90 204,-131 35,-21 70,-41 106,-60 28,-16 58,-34 89,-46 39,-112 63,-230 75,-350zm-37 -804c-26,-212 -55,-424 -51,-637 0,-1 0,-1 0,-1 -12,22 -23,43 -35,65 -45,106 -93,212 -134,321 -41,111 -79,224 -113,337 -40,133 -75,267 -109,401 2,-2 4,-5 6,-7 21,-23 42,-45 63,-68 42,-45 84,-90 126,-136 41,-45 82,-91 123,-137 41,-45 80,-94 123,-138 0,0 1,0 1,0zm-89 -645c0,1 -1,1 -1,1 -45,48 -91,94 -139,139 -94,90 -193,175 -291,262 -154,136 -307,278 -434,440 120,249 213,510 275,779 9,38 17,75 24,113 5,21 9,42 13,63 53,-199 101,-400 151,-601 0,-2 0,-3 0,-5 1,-1 1,-1 2,-2 33,-135 68,-269 107,-402 36,-123 75,-246 120,-366 38,-104 80,-208 131,-307 -2,-3 -4,-7 -2,-12 13,-35 28,-68 44,-102zm-955 969c-111,175 -173,371 -204,573 75,307 151,615 226,922 11,44 21,88 32,132 9,36 19,71 26,107 56,-114 106,-231 150,-351 -3,-4 -4,-9 1,-13 2,-2 3,-3 5,-4 24,-65 46,-130 66,-195 31,-98 60,-196 86,-295 -8,-27 -13,-55 -19,-84 -7,-35 -14,-71 -23,-107 -16,-69 -34,-138 -53,-207 -39,-136 -86,-270 -140,-400 -26,-61 -53,-121 -81,-181 -25,33 -50,67 -72,103zm-219 685c-24,245 -7,492 9,737 16,249 31,501 -4,749 -3,19 -6,38 -10,57 113,-146 209,-304 292,-469 -13,-37 -21,-75 -31,-113 -10,-40 -20,-81 -30,-121 -19,-79 -38,-158 -58,-237 -39,-160 -78,-319 -118,-479 -14,-58 -29,-117 -44,-175 -2,17 -4,34 -6,51zm3181 -286c124,-31 246,-67 367,-111 87,-31 173,-66 258,-103 55,-80 106,-162 151,-247 25,-49 49,-98 71,-148 11,-24 21,-50 32,-75 5,-13 8,-29 14,-44 -141,98 -278,201 -412,309 -166,133 -327,272 -481,419zm217 80c94,18 190,31 286,37 180,10 365,-11 531,-85 10,-5 20,-10 31,-15 -113,-19 -224,-42 -337,-57 -60,-8 -119,-15 -179,-21 -29,-3 -57,-5 -86,-7 -19,-2 -40,-2 -60,-4 -119,44 -241,84 -364,115 59,13 118,26 178,37zm869 -73c153,-79 285,-194 409,-312 20,-19 40,-39 60,-59 -9,-1 -18,-3 -27,-5 -19,-5 -38,-8 -57,-12 -38,-7 -76,-13 -114,-17 -39,-4 -78,-7 -117,-7 -20,-1 -39,-1 -59,0 -18,0 -39,4 -56,-1 0,0 -1,0 -1,0 -215,117 -435,224 -664,312 1,0 2,0 3,1 30,2 60,5 90,8 60,6 119,14 179,22 118,17 238,36 353,69 1,0 1,0 1,1zm847 -740c136,-133 270,-269 410,-399 -50,31 -100,61 -150,92 -89,54 -177,108 -266,162 -165,100 -330,201 -497,299 -85,50 -171,99 -257,147 2,0 4,0 6,0 19,-1 39,-1 59,0 39,1 78,3 118,8 39,4 78,10 116,17 19,4 38,9 57,14 14,3 30,6 42,14 122,-117 242,-236 362,-354zm470 -468c-1,-1 -2,-3 -2,-6 0,-1 0,-2 1,-3 -151,-32 -304,-33 -454,-11 0,1 0,1 0,2 -29,83 -65,164 -108,242 -31,58 -65,115 -105,169 38,-23 76,-45 114,-68 101,-58 201,-117 302,-175 85,-50 169,-100 256,-147 -2,0 -3,-1 -4,-3zm-940 129c-175,82 -339,185 -498,294 -14,9 -28,19 -43,29 1,1 1,2 2,3 3,23 -17,51 -25,71 -11,27 -23,53 -34,79 -23,50 -48,100 -75,149 -41,76 -87,150 -137,220 74,-32 147,-66 219,-102 280,-138 550,-295 819,-454 47,-68 94,-136 133,-209 40,-73 73,-148 101,-225 -159,26 -315,77 -462,145zm866 -1429c267,-36 529,-105 780,-204 78,-121 159,-241 247,-356 47,-60 94,-118 143,-176 26,-30 51,-60 77,-89 11,-12 22,-25 32,-38 -273,138 -547,274 -801,446 -92,62 -182,128 -265,202 -76,67 -145,140 -213,215zm612 195c178,-31 350,-90 512,-169 -91,2 -181,-6 -270,-24 -54,-11 -107,-25 -160,-41 -28,-9 -55,-19 -82,-29 -14,-6 -33,-10 -48,-18 -50,16 -99,30 -149,44 -132,35 -265,62 -400,81 136,183 390,193 597,156zm629 -230c279,-158 518,-375 713,-627 -5,3 -10,5 -15,7 -27,13 -54,25 -81,37 -54,24 -108,45 -163,64 -55,20 -110,38 -166,54 -55,16 -112,35 -169,42 0,0 0,0 0,0 -235,150 -489,270 -754,358 5,2 9,4 14,6 25,10 50,19 76,27 53,18 107,32 162,43 100,21 202,30 304,31 27,-13 53,-27 79,-42zm934 -959c64,-112 121,-229 172,-348 37,-88 69,-178 101,-268 -209,383 -509,721 -855,988 -56,43 -113,83 -171,123 33,-9 66,-16 98,-25 56,-17 111,-34 166,-54 54,-18 107,-39 160,-60 27,-11 53,-22 79,-34 18,-8 37,-17 56,-25 70,-94 135,-194 194,-297zm279 -667c-163,181 -356,330 -562,460 -7,12 -15,23 -21,35 -13,22 -25,44 -38,66 -23,43 -46,86 -67,130 -21,44 -42,89 -61,134 -10,23 -20,46 -29,69 -6,16 -12,33 -19,48 129,-105 251,-220 362,-344 167,-183 310,-385 435,-598zm-927 670c-62,33 -125,65 -188,97 0,1 0,2 0,3 -12,17 -29,30 -43,46 -12,13 -25,26 -37,40 -24,27 -48,55 -72,83 -49,58 -96,116 -143,176 -83,108 -164,218 -239,333 43,-18 85,-36 127,-54 251,-115 488,-261 702,-433 0,0 0,-1 0,-1 3,-23 13,-45 21,-67 9,-23 19,-46 28,-70 20,-47 41,-94 63,-141 22,-45 45,-90 69,-134 11,-20 23,-41 34,-61 -105,65 -213,126 -322,183zm-968 -178c49,-30 96,-64 140,-100 55,-43 106,-92 153,-145 -29,16 -59,29 -89,41 -27,11 -55,20 -83,29 -15,4 -29,8 -44,11 -13,4 -28,9 -42,8 0,0 0,0 -1,0 -40,68 -80,137 -121,205 3,-2 7,-4 11,-6 26,-13 51,-28 76,-43zm381 -352c85,-117 147,-249 188,-387 -40,31 -82,57 -126,81 -26,14 -53,27 -80,39 -14,6 -27,12 -41,18 -12,5 -24,10 -37,11 -77,136 -155,272 -235,407 8,-2 17,-3 24,-5 13,-3 26,-6 39,-10 27,-7 54,-16 81,-26 45,-17 90,-38 134,-60 18,-22 36,-45 53,-68zm228 -575c12,-89 14,-178 8,-267 -5,7 -10,15 -15,22 -97,184 -197,367 -298,548 1,0 2,-1 3,-1 14,-5 27,-11 41,-16 29,-13 58,-26 86,-41 49,-25 96,-54 142,-83 15,-53 26,-108 33,-162zm-535 272c3,50 8,100 19,150 6,24 13,48 21,72 5,15 12,31 17,46 115,-196 228,-393 340,-591 19,-35 39,-70 58,-105 -101,110 -224,201 -334,302 -43,40 -84,81 -121,126zm-81 117c-48,89 -75,185 -92,284 -17,101 -24,203 -32,305 84,-136 165,-273 246,-411 -12,-19 -19,-43 -26,-63 -9,-26 -16,-52 -22,-78 -9,-40 -16,-81 -19,-122 -20,27 -39,56 -55,85zm-743 944c8,-32 14,-64 18,-96 -36,47 -78,91 -120,132 -31,30 -63,59 -95,86 -18,15 -37,30 -55,45 -18,13 -35,28 -54,39 -16,142 -29,285 -41,427 170,-176 292,-395 347,-633zm-121 21c52,-52 98,-107 146,-161 17,-138 15,-278 11,-417 -37,41 -77,78 -119,115 -26,22 -52,43 -78,64 -20,16 -41,36 -64,49 0,1 0,2 0,3 -35,166 -59,334 -78,503 26,-22 55,-41 81,-63 35,-30 69,-61 101,-93zm151 -777c-2,-70 -2,-140 1,-210 2,-41 4,-82 9,-123 -1,2 -2,5 -4,7 -17,33 -33,66 -49,100 -33,69 -62,139 -88,211 -47,130 -84,264 -114,398 12,-8 23,-17 35,-25 25,-20 51,-41 75,-62 48,-41 94,-84 140,-126 -2,-57 -4,-114 -5,-170zm-253 -80c0,57 1,114 5,171 2,40 6,81 9,121 17,-63 35,-127 57,-189 27,-82 58,-161 94,-239 12,-26 24,-51 37,-76 -70,68 -138,138 -202,212zm-238 349c-8,17 -16,33 -23,50 34,147 93,285 174,413 14,-102 30,-204 51,-306 -1,-2 0,-5 1,-7 11,-52 23,-104 36,-156 -15,-54 -20,-111 -24,-167 -4,-48 -5,-95 -5,-143 -81,98 -154,202 -210,316zm-107 375c-9,127 12,256 48,378 38,132 92,258 145,384 13,-152 25,-304 40,-456 6,-62 13,-124 21,-186 -86,-123 -148,-262 -186,-407 -36,92 -61,188 -68,287zm-1140 2526c3,-93 9,-186 15,-279 2,-24 4,-48 6,-71 -1,-1 -2,-1 -3,-1 -94,-100 -169,-221 -236,-340 -68,-120 -127,-246 -175,-375 -20,-55 -38,-112 -54,-168 -7,53 -8,107 -4,161 15,182 75,363 144,532 79,194 183,377 301,551 2,-3 4,-7 6,-10zm300 -463c103,-157 208,-314 273,-492 19,-51 35,-104 48,-156 -11,13 -22,26 -34,38 -21,23 -43,45 -65,67 -46,45 -93,88 -142,129 -49,43 -101,83 -153,122 -48,34 -96,72 -149,97 -12,102 -23,204 -31,306 -8,102 -14,204 -19,306 88,-140 181,-278 272,-417zm204 -562c23,-22 44,-45 66,-68 20,-22 45,-45 63,-71 44,-218 42,-443 16,-665 -55,66 -120,125 -185,180 -40,33 -81,65 -123,95 -42,30 -86,62 -133,86 -53,259 -95,520 -127,783 42,-32 89,-59 132,-90 52,-38 102,-78 150,-119 49,-42 96,-86 141,-131zm141 -835c-5,-36 -10,-71 -15,-105 -32,-197 -82,-389 -130,-582 -1,1 -2,3 -4,5 -2,2 -4,5 -6,7 -22,79 -47,157 -71,236 -27,90 -53,180 -78,271 -46,171 -87,344 -124,518 35,-22 70,-43 103,-67 42,-29 82,-60 121,-93 72,-59 137,-125 204,-190zm-579 -219c-78,94 -154,190 -227,289 11,18 17,43 25,62 10,27 21,54 33,81 23,54 47,109 74,162 26,53 54,106 83,158 15,26 30,52 45,79 8,12 17,25 24,39 45,-257 102,-512 170,-763 27,-103 57,-204 88,-305 23,-76 46,-151 75,-224 -137,134 -267,275 -390,422zm-368 489c-52,79 -99,164 -125,256 -4,12 -6,24 -9,36 71,264 184,514 334,743 40,61 84,119 125,179 12,-159 27,-317 46,-475 14,-108 30,-216 48,-323 -15,-18 -27,-40 -40,-59 -16,-26 -31,-52 -46,-79 -30,-51 -58,-104 -84,-157 -27,-54 -53,-109 -76,-165 -12,-27 -23,-54 -34,-81 -5,-14 -13,-30 -19,-47 -41,57 -81,114 -120,172zm-1348 -336c235,159 455,352 627,577 167,218 283,471 313,744 29,256 -11,515 -86,760 -80,265 -197,520 -334,760 -151,264 -339,512 -582,701 -31,23 -62,46 -94,67 -3,2 -5,3 -8,3 -46,79 -95,156 -149,231 132,-87 262,-176 390,-268 398,-286 775,-598 1133,-932 0,-1 0,-1 0,-3 -5,-131 -8,-263 -8,-394 -1,-3 -2,-6 -2,-9 1,-2 2,-3 2,-5 1,-82 2,-164 6,-246 0,-9 17,-9 17,1 -2,72 -2,144 -1,217 3,-5 7,-9 11,-14 12,-14 24,-29 36,-44 23,-32 46,-64 67,-97 5,-8 20,-3 15,7 -18,35 -38,70 -60,103 -11,16 -22,33 -34,49 -9,13 -20,32 -35,41 2,123 6,245 16,367 140,-131 277,-265 411,-403 0,0 0,0 0,0 -5,-80 -5,-161 -3,-241 0,0 0,0 0,0 -1,-2 -3,-4 -4,-5 -1,1 -2,2 -3,4 -5,7 -18,-1 -13,-9 1,-3 3,-6 5,-9 -120,-150 -217,-318 -295,-493 -77,-171 -141,-353 -168,-539 -12,-87 -15,-177 0,-264 16,-93 52,-181 99,-262 49,-85 107,-165 165,-245 63,-86 128,-170 195,-253 137,-169 284,-331 437,-486 0,-1 0,-2 0,-3 3,-12 8,-20 16,-28 7,-8 15,-15 23,-22 8,-6 16,-12 25,-17 5,-3 10,-6 16,-8 9,-14 32,-17 37,3 93,354 182,720 173,1089 -4,166 -28,332 -79,491 -56,176 -155,332 -256,485 -114,174 -225,349 -344,519 -4,93 -6,187 -13,280 40,-41 80,-82 120,-124 408,-431 788,-888 1144,-1362 17,-167 36,-334 50,-501 1,-2 1,-5 1,-7 -6,-4 -9,-10 -8,-16 -112,-233 -222,-483 -217,-745 5,-274 137,-523 305,-733 106,-133 228,-253 350,-372 0,0 0,0 0,-1 1,1 3,3 4,4 2,1 4,3 6,5 3,4 7,8 11,12 2,3 5,5 7,8 0,0 -1,0 -1,1 -6,54 -12,108 -15,162 -3,64 -3,128 -2,192 3,128 10,255 11,383 0,76 -3,152 -10,227 5,0 11,4 8,10 -3,5 -7,10 -11,15 -4,42 -10,84 -19,126 -26,128 -70,251 -131,367 -68,130 -156,249 -261,351 -14,160 -28,321 -54,480 119,-159 234,-320 347,-482 231,-331 449,-668 659,-1011 -1,-1 -2,-3 -2,-5 0,-199 7,-405 92,-589 90,-195 264,-327 423,-465 92,-80 182,-166 244,-272 1,-2 3,-3 4,-5 0,-5 -1,-10 -1,-16 -3,-23 34,-26 37,-3 56,436 -117,880 -452,1168 -50,43 -103,83 -159,117 -28,19 -58,36 -88,51 -20,11 -40,22 -61,28 -158,259 -320,516 -489,768 -75,113 -152,225 -230,336 82,-5 164,-13 245,-23 56,-75 123,-142 191,-205 72,-66 148,-129 226,-187 160,-120 333,-222 508,-318 350,-193 717,-354 1049,-576 187,-125 362,-268 508,-439 12,-14 32,-4 34,11 6,-1 12,3 11,10 -28,114 -69,227 -113,336 -44,112 -95,221 -151,327 -110,208 -245,404 -405,578 -308,336 -714,592 -1167,686 -122,25 -249,40 -373,17 -124,-22 -243,-85 -315,-190 -2,-3 -3,-6 -4,-9 -90,11 -182,19 -273,23 -210,300 -430,594 -660,879 16,-8 32,-16 47,-23 32,-18 64,-35 96,-53 62,-33 125,-65 187,-98 15,-8 29,-16 44,-24 0,-3 1,-7 5,-11 61,-58 117,-121 167,-189 5,-7 18,1 13,8 -32,54 -69,105 -110,152 84,-45 169,-90 256,-132 5,-3 10,6 5,9 -122,76 -247,143 -371,214 -61,35 -121,70 -182,105 -31,17 -62,34 -92,51 -31,17 -64,41 -97,51 -6,2 -11,1 -14,-2 -172,212 -348,419 -531,620 -286,315 -586,617 -902,903 16,-4 32,-8 48,-12 1,-2 2,-3 3,-5 301,-282 620,-544 960,-778 306,-211 636,-413 1009,-474 170,-28 347,-27 514,18 0,0 0,0 0,1 1,0 2,0 3,0 2,0 5,1 7,2 2,1 4,2 5,4 2,1 3,3 4,4 1,1 1,1 2,2 0,2 1,3 2,5 1,4 1,8 1,11 -2,7 -5,12 -11,16 -1,2 -3,2 -5,3 -2,1 -4,2 -6,2 -2,0 -4,0 -6,0 -1,0 -2,-1 -3,-1 -135,145 -279,282 -420,421 -149,147 -297,295 -447,442 -136,134 -280,266 -452,354 -163,84 -344,117 -526,116 -106,-1 -211,-13 -316,-31 -100,-17 -201,-38 -299,-64 -36,8 -71,15 -107,21 -7,1 -13,-1 -17,-6 -238,214 -485,418 -740,611 -9,6 -18,13 -26,19 5,-1 11,-1 17,-2 36,-6 72,-11 108,-16 75,-12 151,-24 227,-37 8,-1 16,-3 24,-4 0,-4 2,-7 6,-10 89,-63 177,-128 269,-187 8,-6 16,6 9,12 -73,61 -149,117 -225,175 122,-21 243,-44 365,-66 6,-1 8,8 2,10 -145,38 -293,68 -440,97 -74,15 -148,28 -223,40 -37,7 -74,12 -112,18 -27,4 -55,8 -84,12 -477,354 -983,671 -1514,940 57,-19 114,-39 171,-57 182,-59 366,-110 551,-158 263,-67 530,-122 798,-165 2,-1 3,-1 5,-1 107,-17 214,-33 321,-46 107,-13 214,-24 321,-33 107,-9 215,-19 322,-18 7,0 10,4 12,8 5,-2 9,6 4,9 -50,38 -106,68 -161,99 -54,31 -108,61 -162,92 -110,61 -219,123 -329,184 -197,109 -391,224 -595,322 -186,89 -385,161 -593,174 -193,12 -385,-26 -573,-69 -108,-25 -215,-51 -323,-71 -90,-17 -179,-26 -269,-34 -136,60 -274,116 -414,169 0,1 -1,2 -2,2 -4,2 -7,3 -10,4 -2,2 -4,3 -7,5 -16,12 -33,21 -50,23 -2,0 -4,0 -5,0 -36,14 -71,28 -107,42 -54,21 -108,42 -164,57 156,37 314,68 473,94 8,2 5,13 -3,12 -188,-15 -376,-45 -560,-86 -337,108 -680,196 -1028,254 -90,16 -180,29 -270,40 -24,3 -26,-32 -3,-35 230,-42 458,-90 684,-146 16,-20 36,-35 55,-51 23,-20 45,-39 68,-58 37,-32 75,-65 112,-98 0,-7 2,-14 2,-20 1,-9 2,-18 2,-27 2,-18 3,-37 5,-56 2,-37 6,-73 10,-110 0,-10 17,-9 17,1 -1,36 -1,73 -2,110 -1,18 -2,37 -2,55 0,7 -1,13 -1,20 95,-84 186,-171 277,-258 6,-6 15,1 10,8 -84,94 -173,183 -264,271 -43,42 -88,83 -133,123 -24,22 -48,43 -73,64 -2,2 -4,4 -7,6 319,-81 632,-178 941,-292 8,-7 16,-13 23,-18 28,-23 55,-46 81,-70 27,-24 53,-48 78,-73 19,-20 40,-49 66,-60 5,-52 11,-103 15,-154 5,-65 8,-131 8,-196 1,-126 -5,-253 -13,-379 -15,-246 -37,-492 -24,-738 4,-74 12,-148 23,-220 0,-1 0,-2 -1,-3 -1,-4 1,-8 3,-11 27,-161 74,-317 153,-462 39,-73 85,-140 135,-205 -5,-10 4,-17 13,-17 104,-132 225,-251 350,-364 195,-176 400,-343 572,-543 8,-9 16,-18 23,-27 10,-21 19,-48 41,-59 6,-3 17,2 19,9 8,4 14,15 7,25 -6,9 -13,18 -19,26 -4,7 -7,13 -10,19 -11,22 -22,43 -33,64 3,112 8,224 18,335 12,125 28,249 43,374 29,235 55,471 41,709 -14,232 -68,462 -188,664 -65,111 -145,213 -229,310 -87,102 -179,201 -271,300 -186,199 -380,394 -603,553 -16,12 -33,23 -50,34 -9,16 -21,32 -32,46 -16,21 -33,40 -51,59 67,-27 133,-54 199,-82 1,-1 2,-1 3,-1 4,-2 8,-4 12,-6 513,-220 1005,-487 1472,-790 62,-89 120,-180 174,-274 0,0 0,0 0,-1 -51,-99 -84,-203 -101,-313 -17,-110 -20,-221 -12,-332 12,-188 55,-372 110,-552 0,-1 0,-2 0,-4 0,-3 1,-6 4,-7 15,-50 31,-99 47,-148 80,-237 171,-471 231,-714 58,-233 84,-471 49,-709 -36,-239 -115,-468 -159,-705 -6,-30 -11,-59 -15,-89 -1,-10 4,-16 12,-18 2,-8 12,-14 21,-8z"></path></svg>