<svg xmlns="http://www.w3.org/2000/svg" viewBox="0 0 10100 4100" xmlns:xlink="http://www.w3.org/1999/xlink" width="200" fill="white"><path d="M10043 1727c-217,-232 -487,-410 -770,-550 -286,-141 -590,-243 -903,-309 -78,-16 -156,-30 -235,-42 102,-51 200,-112 295,-171 150,-92 303,-190 437,-303 48,-40 86,-113 39,-169 -44,-52 -116,-30 -170,-10 -159,58 -311,136 -451,231 -159,108 -300,237 -425,382 -2,2 -3,4 -4,7 -455,-41 -916,-12 -1364,78 82,-59 159,-124 232,-193 71,-67 137,-137 200,-211 57,-69 122,-142 163,-221 33,-64 32,-160 -48,-189 -70,-25 -146,23 -204,56 -146,85 -275,198 -381,330 -117,146 -204,315 -253,496 -415,108 -817,263 -1203,450 228,-243 392,-547 494,-861 11,-34 -31,-52 -55,-33 -160,125 -300,276 -411,446 -55,85 -103,174 -143,267 -21,47 -39,94 -55,143 -15,45 -34,93 -35,140 -167,87 -333,180 -494,277 -139,83 -275,171 -410,260 173,-278 303,-585 365,-907 7,-35 11,-75 -9,-108 -20,-33 -60,-43 -95,-30 -35,13 -59,44 -84,70 -30,34 -58,68 -85,104 -101,134 -180,286 -232,445 -30,90 -50,182 -63,275 -12,93 -23,197 -6,291 0,1 1,1 1,2 -118,81 -234,164 -349,249 -190,139 -375,285 -562,427 -4,2 -9,3 -13,5 36,-105 50,-219 56,-329 3,-72 2,-145 -5,-217 -7,-70 -15,-144 -37,-211 -20,-61 -69,-115 -139,-98 -72,17 -101,89 -120,152 -42,139 -67,284 -72,429 -7,160 10,321 48,478 -51,36 -101,72 -153,107 -256,175 -538,337 -836,450 71,-88 131,-187 181,-285 82,-160 139,-333 168,-510 10,-64 42,-181 -24,-227 -75,-55 -146,48 -186,98 -115,142 -210,297 -283,465 -42,95 -76,193 -103,293 -12,48 -24,96 -33,146 -6,37 -14,76 -13,114 -290,75 -590,98 -892,39 -79,-16 -157,-34 -234,-60 -30,-10 -42,35 -14,46 365,148 758,146 1135,57 370,167 766,255 1172,260 70,1 190,16 229,-60 47,-93 -105,-144 -165,-171 -169,-76 -348,-125 -532,-145 -105,-12 -211,-14 -317,-6 148,-58 291,-127 425,-202 258,-145 499,-316 735,-493 414,147 857,210 1296,193 44,-2 100,3 137,-25 34,-25 33,-69 3,-98 -33,-31 -82,-51 -122,-72 -44,-22 -88,-42 -133,-61 -178,-75 -369,-119 -562,-132 -109,-7 -219,-3 -329,11 -19,3 -40,6 -60,9 19,-14 38,-29 56,-43 313,-240 630,-473 960,-689 52,-34 104,-67 156,-100 337,271 751,453 1170,556 123,30 248,52 374,68 35,4 45,-40 28,-62 -281,-352 -692,-584 -1135,-663 -78,-13 -156,-21 -235,-23 542,-325 1117,-598 1725,-773 34,-10 69,-19 103,-28 64,87 148,161 230,230 86,73 178,140 273,201 191,123 399,223 615,294 76,25 218,84 271,-9 48,-85 -58,-174 -110,-227 -148,-151 -324,-275 -515,-366 -184,-88 -381,-145 -582,-168 487,-111 987,-154 1485,-111 0,0 1,1 1,1 312,356 680,657 1087,898 61,37 193,127 243,26 18,-37 4,-79 -17,-112 -26,-42 -60,-82 -92,-120 -138,-165 -301,-308 -481,-426 -150,-98 -314,-179 -484,-238 622,92 1209,328 1715,703 64,47 126,96 188,146 24,19 58,-10 36,-34z"></path></svg>