<svg xmlns="http://www.w3.org/2000/svg" width="60" viewBox="0 0 2000 1841"><path fill="#ededed66" clip-rule="evenodd" fill-rule="evenodd" d="M1572 1047c6,16 11,33 16,48 18,65 26,132 30,199 9,123 -7,278 74,381l6 4c-72,-134 15,-297 -22,-437 -30,-67 -65,-132 -104,-195zm-845 -53c26,22 53,39 87,53 39,15 79,25 119,35 50,13 108,28 155,57 -19,-20 -37,-40 -56,-60l-5 1c-3,-6 -6,-11 -9,-16 -3,-4 -7,-8 -10,-12l-4 0c-34,-42 -90,-63 -138,-83 -52,-21 -104,-33 -158,-47 -6,-1 -3,-11 3,-10 57,8 114,29 167,51 30,13 64,28 92,48 -10,-11 -20,-22 -30,-33 -99,-90 -256,-99 -363,-176 49,65 98,129 150,192zm-641 -936c113,100 220,205 324,314 -20,-43 -38,-87 -57,-131 -3,-5 6,-9 8,-3 21,48 41,97 60,146 9,9 17,17 26,26 57,62 114,124 171,186 -14,-39 -28,-79 -43,-118 -9,-22 -18,-45 -28,-67 -5,-11 -9,-22 -14,-33 -5,-10 -10,-19 -13,-30 -1,-4 6,-7 8,-3 7,9 11,21 15,31 5,11 10,23 15,35 9,21 18,43 26,66 17,43 32,86 44,131 12,13 23,26 35,39 -22,-56 -33,-119 -52,-173 -18,-52 -40,-103 -70,-149 -14,-22 -29,-43 -47,-62 -18,-21 -40,-36 -60,-54 -114,-53 -231,-103 -348,-151zm395 172c23,22 43,49 60,73 29,43 51,89 69,137 18,49 31,99 45,150 7,26 15,52 26,77 42,48 85,96 128,144 -35,-62 -40,-141 -54,-210 -13,-58 -28,-116 -46,-174 -8,-25 -16,-52 -27,-76 -6,-13 -13,-25 -23,-35l0 0c-36,-18 -72,-35 -108,-53 -23,-11 -47,-22 -70,-33zm203 98c9,17 16,36 21,50 18,53 34,108 47,163 13,55 22,112 32,168 10,52 25,105 63,143l1 3c15,17 31,35 47,53 -36,-61 -62,-128 -77,-197 -14,-69 -16,-140 -30,-209 -12,-61 -35,-111 -73,-158 -10,-6 -21,-11 -31,-16zm62 31c62,84 61,210 75,306 15,105 56,202 114,288 21,23 42,46 62,69 -41,-95 -53,-200 -71,-302 -22,-132 -59,-257 -159,-350 -7,-4 -14,-7 -21,-11zm-347 193c6,8 12,17 18,26 4,3 9,7 13,10 20,14 41,27 63,39 42,23 86,42 129,62 41,19 82,40 119,67l3 3 -5 -6c-3,-4 -6,-7 -9,-11l-4 1c-13,-12 -25,-25 -34,-40 -66,-37 -138,-64 -205,-98 -29,-15 -60,-33 -88,-53zm-334 -487c68,95 134,192 199,289 6,2 11,5 14,6 31,18 62,37 93,56 53,33 106,68 158,104 -147,-160 -299,-314 -464,-455zm263 382c4,4 8,8 12,12 27,24 56,47 86,66 57,36 119,64 183,83 -21,-24 -42,-47 -63,-70 -47,-30 -94,-60 -141,-89 -11,-7 -85,-55 -128,-77 17,25 34,50 51,75zm44 64c13,13 27,26 43,37 30,22 63,40 97,56 57,29 116,53 170,85 -21,-23 -42,-47 -63,-71 -70,-17 -135,-44 -196,-83 -25,-16 -49,-34 -72,-53 7,10 14,20 21,29zm171 244c91,103 256,111 368,191 -42,-47 -84,-94 -126,-141l-4 3 -1 -2c2,-2 1,-6 -3,-10l-4 -5c-23,-23 -96,-64 -104,-68 -36,-19 -73,-35 -110,-52 -35,-16 -71,-33 -105,-54 -5,-3 -11,-6 -16,-10 23,33 46,66 69,99l3 2 6 10c9,12 18,25 27,37zm262 -365c74,75 106,189 125,289 23,122 32,248 84,361 25,27 50,54 75,81 -150,-205 -52,-527 -244,-710 -14,-7 -27,-14 -40,-21zm74 40c171,205 63,539 257,737l-1 3c19,19 37,38 55,57 -19,-33 -33,-69 -43,-106 -7,-22 -12,-45 -16,-68 -2,-11 -4,-22 -5,-34 -2,-10 -5,-21 -4,-32 0,-4 7,-6 9,-1 4,10 4,21 6,32 1,10 3,21 5,32 3,21 7,42 12,63 10,43 25,86 49,125l0 2c15,16 30,31 45,46 -37,-48 -58,-106 -70,-165 -9,-44 -14,-89 -19,-134 -5,-44 -13,-89 -14,-134 0,-5 7,-5 8,0 9,43 11,89 16,133 4,40 9,80 16,119 14,77 41,153 96,210l0 4c5,5 11,11 17,17 -70,-119 -73,-264 -84,-398 -6,-74 -17,-149 -41,-219 -12,-37 -28,-72 -50,-104 -21,-33 -49,-57 -78,-83l-1 -5c-54,-34 -109,-66 -165,-97zm427 294c117,247 -13,572 182,787l8 6c-166,-214 -1,-543 -157,-762 -11,-10 -22,-21 -33,-31zm425 652c1,28 -1,57 -6,83 -8,44 -17,86 -14,131 2,41 12,81 27,118 12,9 24,18 36,26 -12,-43 -20,-88 -19,-133 1,-26 4,-52 8,-77 2,-14 4,-27 5,-41 -11,-36 -24,-71 -37,-107zm117 408c-22,-91 -44,-182 -72,-272l0 3c-4,25 -8,49 -10,74 -2,51 3,102 16,151 9,6 17,11 26,17 -3,-13 -5,-26 -7,-40 -1,-7 -1,-14 -2,-21 -1,-6 -3,-13 -2,-20 0,-4 6,-5 7,-1 2,6 3,13 3,20 1,7 2,14 3,21 2,14 3,28 4,42l-2 2c12,8 24,16 36,24zm-881 -526c97,60 234,48 336,100 -34,-34 -69,-68 -103,-102l-4 2c-45,-37 -96,-62 -151,-82 -26,-10 -53,-18 -81,-26 -27,-7 -56,-12 -82,-21 -5,-3 -3,-11 3,-11 28,4 56,14 83,22 29,8 57,16 84,27 51,19 100,46 141,82 -19,-20 -39,-41 -59,-61 -32,-28 -66,-50 -107,-65 -41,-15 -84,-25 -126,-35 -44,-11 -93,-24 -135,-47 64,76 131,148 201,217zm102 95c147,130 308,241 484,325 21,5 43,6 66,8 30,4 63,6 92,17 -47,-34 -92,-68 -137,-104 -36,-12 -73,-23 -109,-33 -22,-5 -44,-11 -65,-16 -20,-4 -42,-7 -61,-14 -5,-2 -3,-9 2,-9 21,2 41,8 61,13 21,5 43,11 64,17 31,9 62,19 93,30 -21,-18 -43,-36 -64,-54l-6 4c-46,-25 -96,-44 -147,-53 -23,-4 -46,-6 -69,-11 -18,-4 -40,-10 -52,-24 -3,-4 2,-11 7,-9 10,5 19,11 29,15 12,4 24,7 37,9 22,4 44,7 66,12 47,11 90,29 131,53 -20,-16 -39,-33 -57,-50l1 3 -4 4c-7,-9 -13,-18 -19,-26 -29,-26 -57,-52 -85,-79 -81,-42 -170,-48 -258,-70 -25,-6 -49,-14 -72,-24 16,16 33,32 51,47 46,21 100,28 149,38 73,16 145,37 206,81l-3 4c-73,-49 -160,-67 -244,-83 -29,-6 -59,-12 -87,-21zm759 429c-31,-20 -61,-40 -91,-60 -43,-19 -88,-22 -135,-26 -5,0 -10,-1 -15,-2 24,11 48,21 73,31 8,1 16,3 24,4 29,5 57,10 85,16l0 4c-25,-4 -50,-7 -75,-11 44,17 89,31 134,44zm-133 -498c12,134 -55,280 16,405 6,4 12,8 18,13 -30,-67 -35,-140 -23,-212 8,-43 15,-85 11,-130 -1,-13 -4,-26 -7,-39 -3,-7 -6,-15 -9,-22 -2,-5 -4,-10 -6,-15zm-321 -494c117,225 -30,537 145,747 51,43 102,85 156,125 -67,-88 -58,-222 -65,-325 -4,-72 -10,-144 -27,-214 -8,-34 -19,-68 -34,-100 -7,-16 -16,-31 -25,-45 28,86 32,183 35,270 6,138 15,286 105,399l-5 3c-86,-101 -102,-238 -109,-366 -7,-127 -11,-252 -66,-366 -9,-12 -19,-25 -28,-37 -26,-32 -54,-62 -82,-91zm-275 -227c32,35 56,79 73,121 28,67 41,139 48,211 17,154 12,316 92,454 23,22 46,44 70,66 -64,-103 -100,-220 -110,-342 -12,-155 2,-340 -125,-455 -6,-5 1,-15 7,-10 116,105 119,268 126,413 4,84 14,167 42,248 20,58 47,113 80,164 20,19 40,37 60,55 -77,-98 -96,-230 -102,-352 -8,-146 -4,-304 -79,-434 -57,-50 -118,-96 -182,-139zm-1081 -562c212,84 422,177 627,277 328,161 656,342 877,641 97,132 173,278 233,430 56,144 102,295 128,447 36,9 73,17 110,23 10,2 9,18 -2,16 -35,-4 -70,-10 -104,-17l1 7c3,19 -25,22 -29,4 -2,-6 -3,-12 -5,-17 -145,-33 -284,-89 -415,-162 -318,-175 -577,-436 -798,-720 -229,-292 -422,-608 -638,-908 -8,-11 2,-26 15,-21z"></path></svg>