<svg xmlns="http://www.w3.org/2000/svg" width="400" viewBox="0 0 7367 6000"><path fill="#ededed66" clip-rule="evenodd" fill-rule="evenodd" d="M0 319c18,-5 36,-10 54,-15 73,-22 143,-31 219,-3 127,49 213,166 232,300 -20,98 -31,198 -30,299 0,33 1,65 3,98 -39,-137 -84,-273 -138,-405l-3 1c51,159 102,317 148,478 6,60 16,120 28,179 -54,-102 -103,-208 -144,-316 -29,-76 -52,-154 -78,-231 -23,-71 -53,-139 -110,-190 -4,-3 -9,3 -5,7 64,60 91,145 116,227 23,76 48,152 77,226 44,112 96,221 155,326 11,48 23,96 37,143 -20,-31 -41,-61 -62,-91 -65,-94 -117,-190 -156,-297 -69,-189 -112,-407 -264,-552l-4 4c142,161 186,369 258,564 36,97 83,185 141,271 36,52 72,104 104,158 30,98 65,195 103,291 -21,-39 -42,-77 -65,-115 -126,-213 -271,-415 -359,-648 -62,-166 -118,-362 -257,-479l0 20c64,59 112,137 148,216 48,106 79,219 125,326 46,105 103,205 163,303 61,101 126,199 185,301 30,51 58,102 83,155 26,52 44,108 70,161l6 2c91,219 185,437 253,663 -9,-17 -18,-34 -27,-51 -5,-12 -10,-24 -14,-36 3,-1 6,-3 5,-7 -40,-141 -97,-280 -159,-414 -111,-242 -249,-471 -410,-683 -78,-102 -160,-201 -232,-308 -75,-110 -133,-226 -171,-352 -2,-4 -8,-2 -7,2 26,134 96,257 173,369 73,107 157,208 236,312 80,107 155,218 223,333 70,118 133,240 189,365 43,96 79,194 115,293 -32,-70 -69,-138 -108,-205 -94,-159 -203,-309 -309,-459 -116,-163 -231,-325 -346,-488 -57,-81 -113,-163 -164,-248 -9,-16 -18,-32 -27,-48l0 24c18,31 36,62 55,92 52,84 109,164 166,244 111,158 222,315 334,473 149,212 306,430 406,669 -5,-8 -11,-17 -17,-25 -35,-71 -74,-140 -115,-208 -91,-152 -196,-297 -313,-432 -116,-135 -250,-253 -368,-386 -55,-63 -105,-130 -148,-202l0 28c10,15 19,31 30,46 48,71 104,136 163,199 119,125 244,242 354,375 120,146 227,304 320,469 -82,-115 -165,-230 -254,-339 -98,-121 -207,-231 -320,-337 -99,-95 -201,-191 -293,-294l0 21c90,100 188,191 286,283 117,112 230,227 332,354 99,124 192,254 283,384 7,10 13,20 20,30 40,78 77,158 110,240 7,25 13,51 18,78l0 1 -8 -6c-43,-95 -76,-194 -127,-285 -51,-93 -113,-180 -180,-262 -226,-274 -507,-494 -734,-766l0 25c116,138 246,263 375,388 136,132 272,265 388,416 59,77 112,159 156,245 36,72 63,147 94,221 -14,-9 -29,-18 -44,-25 3,-3 4,-6 3,-10 -73,-174 -187,-326 -314,-464 -210,-227 -455,-416 -658,-649l0 25c101,116 213,221 326,325 242,224 496,454 628,764 -9,-4 -17,-8 -26,-13 5,1 10,-6 6,-12 -99,-148 -199,-296 -317,-431 -103,-119 -223,-216 -339,-320 -99,-88 -189,-184 -278,-281l0 19c99,107 199,214 309,310 121,104 238,208 340,332 99,121 186,251 274,380l1 1c-7,-3 -13,-6 -20,-9l-3 -8c-41,-61 -85,-118 -132,-174 -6,-8 -12,-15 -19,-23l0 -4 -9 -6c-32,-37 -65,-72 -99,-107 5,-1 8,-5 5,-10 -121,-184 -328,-291 -487,-434 -62,-56 -112,-118 -160,-183l0 22c46,62 94,119 152,171 80,73 167,135 252,202 79,63 151,131 216,209 -144,-143 -307,-266 -485,-358 -39,-32 -78,-65 -114,-101 -7,-7 -14,-14 -21,-20l0 34c16,15 31,30 47,44 -15,-7 -31,-14 -47,-20l0 51c44,18 88,39 131,62 -43,-19 -87,-37 -131,-52l0 13c14,5 29,11 43,16 75,28 149,62 220,99 3,2 6,4 10,6 87,57 169,121 246,191 -4,-3 -8,-5 -12,-8 -67,-46 -135,-91 -206,-130 -96,-53 -197,-94 -301,-122l0 14c114,31 224,78 327,137 66,38 130,81 193,124 18,13 37,25 56,38 6,6 12,12 18,18 -63,-38 -126,-75 -191,-110 -128,-68 -264,-127 -403,-163l0 14c141,37 278,97 411,167 -5,-2 -10,-4 -14,-6 -128,-56 -262,-93 -397,-111l0 14c170,22 338,75 494,156 -95,-41 -194,-70 -290,-87 -68,-13 -136,-20 -204,-22l0 15c64,2 129,8 193,19 95,16 189,44 279,82 20,9 39,18 59,28 -7,-3 -13,-6 -20,-9 -160,-69 -337,-100 -511,-102l0 14c64,1 127,7 191,16 118,17 239,46 349,99 59,28 113,65 162,110 6,6 13,12 19,19 -25,-19 -51,-36 -78,-51l-4 -2c-31,-18 -63,-35 -95,-49 -174,-78 -360,-102 -544,-81l0 13c106,-11 214,-11 321,10 111,22 213,63 310,118 3,14 7,27 11,40 -63,-41 -136,-63 -209,-73 -146,-20 -294,-8 -433,29l0 14c18,-5 36,-9 55,-13 105,-23 215,-31 324,-23 92,8 185,28 265,79 -124,-36 -253,-45 -378,-28 -67,10 -133,27 -196,51 -22,8 -46,18 -70,28l0 21c23,-13 46,-25 71,-35 62,-24 126,-42 192,-52 128,-20 261,-11 389,23 3,7 8,14 12,21 -233,-55 -461,3 -664,113l0 13c50,-27 101,-51 154,-70 166,-62 343,-79 519,-44 5,6 10,13 16,19l2 2c-246,-57 -485,18 -691,147l0 13c63,-40 129,-75 200,-102 159,-62 330,-79 502,-47l3 3c-222,-14 -447,74 -608,218 -7,6 2,18 9,12 168,-153 383,-222 611,-221 3,3 7,6 12,9 -38,2 -75,16 -109,33 -57,27 -112,62 -163,99 -54,39 -104,84 -151,132 -44,45 -92,96 -122,152 -4,8 8,14 13,8 42,-47 76,-100 119,-145 43,-45 89,-87 138,-124 50,-39 103,-74 159,-103 41,-22 85,-39 131,-40 7,5 15,9 22,14 -25,6 -50,15 -72,24 -38,15 -75,33 -110,55 -73,46 -137,106 -187,176 -6,8 6,18 12,10 48,-69 109,-128 179,-173 36,-24 74,-44 114,-60 26,-10 52,-16 78,-24 19,11 39,22 59,32 -22,12 -40,30 -57,48 -14,16 -29,33 -43,51 -13,17 -30,35 -39,55 -3,5 5,11 9,7 13,-14 23,-32 35,-48 12,-16 25,-32 38,-48 19,-22 39,-47 65,-61 6,3 11,6 17,8 -11,8 -20,18 -29,27 -22,25 -41,52 -58,81 -17,28 -31,58 -44,89 -6,15 -11,30 -16,45 -4,14 -10,29 -9,44 0,5 8,8 11,3 7,-12 9,-27 13,-40 5,-14 9,-27 14,-41 11,-28 24,-55 38,-81 14,-26 31,-51 48,-74 13,-17 26,-36 43,-47 25,12 50,25 74,38l-5 5 -5 6 -2 4 -2 3 1 5 5 0 6 -6 4 -6 6 -7c5,3 10,6 16,9 -63,86 -110,186 -133,292 -2,8 12,12 14,4 27,-105 68,-202 126,-292 13,8 27,17 40,26 -12,23 -23,47 -33,71 -5,14 -10,28 -15,41 -2,7 -5,14 -7,21 -2,6 -3,11 1,16l4 2c6,-2 8,-10 10,-16 2,-6 4,-13 6,-19 5,-14 10,-27 14,-41 9,-23 18,-47 27,-70 15,11 28,22 41,34l2 9c-8,24 -15,49 -20,74 -3,16 -5,31 -7,46 -1,8 -2,16 -2,24 -1,6 -2,14 4,18l4 1c6,-3 6,-11 6,-17 1,-8 1,-16 2,-24 1,-14 3,-29 6,-44 4,-23 9,-47 14,-70l9 3c33,40 53,89 52,153 -3,117 -84,208 -199,216 -90,6 -180,-32 -264,-65 -87,-34 -176,-71 -269,-76 -104,-6 -190,41 -271,98 -42,31 -87,69 -135,98l0 42c81,-45 149,-112 229,-157 43,94 84,189 124,284 39,93 75,188 117,280 16,105 64,205 135,287 101,114 240,184 384,213 0,5 2,9 7,13l10 6c-36,158 -67,321 -59,486 15,295 174,581 421,747 221,148 496,191 740,121 11,-3 14,-20 7,-28 -85,-100 -162,-206 -235,-315 -60,-90 -119,-183 -179,-276 84,85 178,161 275,228 134,93 279,171 428,233 135,57 274,102 415,136 0,4 0,7 0,10 -102,88 -181,200 -229,327l32 0c13,-32 27,-64 44,-94 5,-4 11,-8 17,-12 15,-11 31,-22 47,-31 28,-17 56,-32 85,-45 0,29 0,57 1,86 -4,12 -9,24 -15,35 -12,21 -27,40 -42,59l-1 2 14 0c3,-5 7,-9 11,-14 11,-15 24,-33 34,-51 0,6 1,12 1,18 -4,17 -10,32 -18,47l13 0c2,-5 4,-10 7,-16l1 16 16 0 0 -6 5 6 16 0 -22 -24c-1,-26 -2,-52 -3,-77 2,-8 4,-15 5,-23l-5 -5c-1,-4 -1,-8 -1,-12 41,52 87,100 138,141l17 0c-57,-48 -110,-102 -155,-164l0 0c0,-9 0,-18 1,-27l1 0 -1 -6 0 -3c5,5 10,9 16,13 7,5 14,10 21,15 14,10 29,21 43,31 21,14 42,28 64,42 16,33 31,66 45,99l32 0 -5 -11c-46,-108 -101,-223 -179,-314 173,38 348,62 523,70l2 0c5,0 11,0 16,1 102,94 214,179 330,254l49 0c-83,-52 -162,-107 -240,-167 4,-3 7,-7 10,-11 3,-4 4,-8 5,-12 42,33 85,65 128,95l0 1 2 4 4 -1 0 0c46,32 94,62 143,91l49 0c-128,-72 -249,-155 -363,-251 135,0 270,-7 403,-22l-1 3c-1,3 -3,7 -3,10l4 2c3,-2 5,-6 6,-9l3 -7c74,-8 147,-19 220,-32 293,-54 578,-145 846,-272 20,-7 41,-15 61,-23 212,-85 414,-197 582,-350 6,3 12,6 17,8l2 2 1 0 3 3c103,78 207,155 319,218l7 4 0 0 4 2c93,52 193,93 296,112 115,20 230,7 338,-28 121,-40 231,-104 341,-167 127,-71 253,-142 380,-213 14,-8 14,-32 -5,-34 -135,-14 -268,-35 -402,-57 -228,-36 -458,-71 -687,-60 -67,4 -136,11 -204,23 49,-19 97,-40 145,-63 484,-235 866,-665 1037,-1187l0 -7c4,-3 7,-6 11,-9 9,-8 -2,-23 -11,-15 -5,4 -10,8 -15,12l-1 0c-171,33 -336,86 -495,155 -142,63 -277,139 -403,228 -123,88 -243,187 -340,304 -90,108 -138,234 -176,370 -28,98 -54,198 -102,287 -124,110 -261,208 -405,294 -17,8 -33,16 -48,27l-1 2c-103,60 -209,113 -317,161l-1 1c-8,3 -16,5 -24,8 13,-10 27,-21 40,-31l2 -2 0 0c52,-44 101,-92 146,-143 121,-138 211,-294 282,-461 3,-4 6,-8 9,-12l-2 -7c128,-312 186,-660 243,-995 2,-10 -10,-20 -19,-15 -126,70 -241,155 -343,257 -347,343 -595,898 -392,1404 -14,11 -29,21 -43,31 -245,78 -500,134 -756,170 -218,31 -439,46 -661,37l-6 -1c-64,-2 -127,-6 -191,-13 -17,-2 -35,-4 -52,-7 142,-41 277,-108 402,-186 461,-285 799,-760 916,-1304l3 -3c3,-3 2,-7 0,-10 3,-15 7,-30 10,-46 2,-10 -11,-18 -19,-15 -146,55 -285,126 -415,212 -462,305 -803,792 -930,1345l0 0 0 0 -3 3c-240,-33 -478,-97 -703,-197 -127,-56 -250,-124 -365,-203 -49,-32 -95,-68 -140,-104 42,15 84,27 127,36 273,61 554,20 803,-83 314,-130 579,-349 825,-578 6,-5 6,-12 4,-18l0 0c7,-1 5,-11 -2,-11 -72,-1 -144,5 -217,2 -66,-3 -132,-10 -198,-21 -65,-11 -129,-26 -193,-41l5 -1 -1 -4c-6,0 -12,1 -19,1 -57,-14 -115,-28 -173,-41 -101,-21 -202,-38 -304,-50l-2 0 -1 0c-15,-2 -30,-4 -45,-5 -212,-22 -425,-21 -634,1 279,-126 512,-354 700,-604l3 -3c29,-39 57,-78 85,-118 6,-9 0,-25 -12,-26 -139,-18 -279,-24 -418,-16 -242,16 -483,78 -683,211 -61,41 -115,88 -166,140 43,-64 79,-132 109,-203 28,-64 50,-131 67,-200 8,-33 14,-66 20,-100 5,-32 14,-68 10,-102l-1 -1c20,-6 39,-13 57,-22 47,-24 87,-58 122,-97 41,-49 70,-108 106,-160 39,-58 88,-108 161,-114 63,-4 126,20 186,36 114,32 237,59 351,33 123,-28 193,-121 267,-215 40,-52 85,-102 146,-129 58,-26 124,-33 189,-28 135,11 261,71 389,115 57,19 119,41 179,35 52,-5 97,-34 130,-73 77,-92 70,-223 41,-338 -64,-258 -202,-520 -435,-661 -96,-58 -205,-94 -314,-96 -117,-1 -223,42 -328,83 -110,44 -224,83 -347,56 -116,-27 -221,-80 -339,-43 -80,25 -148,78 -211,136 27,-43 50,-87 72,-133 109,-232 173,-492 312,-707 99,17 206,30 303,0 70,-22 172,-93 148,-183 -8,-28 -26,-49 -49,-64l4 1c12,1 14,-16 2,-19 -45,-11 -91,-23 -136,-38 -179,-60 -338,-170 -464,-314 -114,-129 -238,-297 -422,-305 -73,-3 -139,27 -201,59 -61,32 -127,75 -199,75 -91,1 -144,-80 -210,-133 -61,-49 -136,-65 -209,-51 -179,32 -277,208 -341,365 -19,49 -36,98 -50,149 -1,-3 -2,-7 -3,-11 -43,-127 -158,-229 -286,-257 -76,-17 -146,2 -217,23 -6,2 -13,3 -19,5l0 40zm5504 5681l-42 0 3 -3c-34,-4 -68,-8 -103,-10 -21,-1 -42,-2 -64,-2 -18,0 -36,2 -54,1l-3 3c-3,4 -5,7 -8,11l-46 0c21,-15 42,-31 63,-46 14,-27 24,-56 31,-85 6,-24 11,-48 14,-72 3,-20 4,-41 8,-61 -79,51 -153,109 -222,174l0 0c5,30 7,60 4,90l-11 0c2,-27 1,-54 -3,-81 -27,26 -53,53 -79,81l-38 0c191,-218 438,-382 715,-473 111,-36 227,-60 344,-71l9 3c8,0 16,12 7,17l-2 1 0 2c-159,187 -329,371 -523,521zm-371 0l-10 0c0,-2 0,-4 1,-6 1,-4 6,-4 7,0 1,2 2,4 2,6zm-2448 0l-17 0c6,-6 13,-11 21,-13l3 3c-2,4 -4,7 -7,10zm-2009 -3447c-10,-8 -21,-17 -32,-25 8,5 15,10 22,14 4,4 7,8 10,11zm-24 28c39,23 77,49 115,77l5 6c-5,-3 -10,-7 -15,-10 -26,-15 -54,-26 -83,-33 -9,-12 -16,-26 -22,-40zm58 81c-8,-8 -16,-16 -24,-25 23,6 46,15 67,27 14,8 27,16 40,26 4,6 8,11 13,17 -4,-2 -7,-3 -10,-4 -9,-4 -18,-7 -27,-10 -4,-2 -9,-4 -13,-5 -4,-2 -8,-4 -13,-4l-4 2c-7,-6 -14,-11 -21,-17l-2 -6 -6 -1zm106 71c-18,-10 -37,-20 -54,-32l4 2c9,3 18,6 26,9 8,3 16,5 24,8 6,7 12,14 17,21 -5,-2 -9,-4 -14,-6l-2 -2 -1 0zm-562 502c5,-2 9,-4 13,-6 7,-3 14,-6 20,-8 51,155 110,307 181,454 -3,23 -4,46 -4,69 -27,-75 -58,-148 -87,-221 -40,-97 -81,-193 -123,-288zm242 474c104,130 208,259 313,388 13,15 40,2 30,-17 -54,-104 -103,-215 -112,-331 -7,-92 28,-179 29,-270 115,155 194,332 232,520 4,21 31,19 35,0 40,-186 114,-362 216,-520 56,192 107,417 23,593 -17,19 -34,38 -51,57 4,-8 7,-15 11,-22 8,-20 16,-41 23,-61 3,-10 6,-21 9,-31 3,-9 7,-19 8,-28 0,-7 -8,-9 -11,-3 -4,9 -6,20 -9,30 -3,10 -6,20 -9,31 -7,18 -13,37 -21,56 -7,17 -15,34 -23,51 -20,21 -42,41 -64,60 24,-38 44,-81 61,-122 26,-64 46,-132 57,-202 2,-8 -11,-9 -12,-2 -12,69 -31,136 -57,200 -14,32 -29,64 -46,95 -11,19 -22,37 -34,55 -6,4 -12,9 -17,13 12,-21 23,-44 33,-64 23,-49 42,-101 59,-153 32,-105 51,-215 57,-326 1,-10 -15,-13 -16,-2 -6,108 -24,215 -55,317 -15,51 -33,102 -55,150 -12,26 -25,50 -39,74 -6,9 -12,17 -18,25 -4,2 -8,4 -11,6 29,-70 59,-139 80,-213 23,-79 40,-160 50,-242 1,-8 -11,-9 -12,-2 -10,84 -27,166 -51,246 -12,40 -25,79 -39,118 -11,29 -23,57 -34,86l0 0c13,-29 19,-63 23,-94 3,-17 4,-34 4,-50 1,-9 1,-17 1,-26 -1,-7 0,-16 -2,-23 -2,-6 -10,-4 -11,1 -2,8 0,17 0,25 0,8 0,16 0,24 -1,16 -2,32 -4,48 -2,16 -4,32 -8,48 0,4 -1,7 -2,11 0,-13 -2,-25 -4,-38 -3,-13 -6,-25 -10,-38 -4,-11 -9,-25 -17,-34 -3,-3 -10,-2 -9,3 3,12 11,23 15,34 4,12 8,24 10,36 4,20 5,39 5,58 -124,-202 -211,-417 -246,-651 -1,-8 -13,-7 -12,1 35,233 119,469 257,664l0 0c-6,-2 -12,-5 -18,-8 -16,-21 -32,-43 -47,-65 -12,-19 -24,-38 -35,-57 -10,-18 -18,-38 -30,-54 -4,-5 -10,-1 -8,4 5,19 19,38 29,55 11,19 22,38 35,56 12,18 24,36 37,53 -85,-41 -163,-93 -230,-163 -36,-37 -68,-78 -95,-123 -23,-36 -39,-96 -78,-119 -5,-2 -10,5 -6,9 38,40 58,96 90,143 28,40 59,78 95,113 67,66 148,121 236,154l6 7c-58,-22 -111,-48 -163,-84 -60,-43 -114,-93 -165,-146 -6,-6 -16,1 -10,7 53,55 109,107 171,150 35,23 73,46 112,63 -116,-32 -227,-93 -310,-185 -90,-101 -144,-236 -136,-369zm548 604c27,-15 53,-32 77,-50l-2 6 2 5 5 -2 2 -7 2 -5 0 -4 0 0c19,-16 38,-32 55,-49l-1 9c-1,7 -3,14 -5,22 -3,9 -6,17 -9,25 -23,12 -46,23 -68,34 -4,1 -8,2 -11,4l-3 3c-10,5 -20,10 -30,15 -4,-2 -8,-3 -12,-5l-2 -1zm-11 36c5,3 11,8 17,12 5,23 11,47 18,70 -15,75 -44,146 -85,209 9,-98 28,-196 50,-291zm-56 406c0,-34 2,-68 4,-101 44,-61 75,-130 92,-204 4,14 8,27 12,40l0 0c0,9 1,18 2,26l-5 4c-1,8 2,15 7,20 0,5 0,10 0,16 -1,21 -5,42 -10,63 -10,40 -26,78 -42,116 -23,55 -46,111 -50,171 -7,-50 -11,-100 -10,-151zm96 423l-1 -2 -1 0 -2 -5c-4,-7 -7,-15 -10,-22 -3,-20 -1,-42 1,-57 3,-22 8,-43 14,-63 12,-42 29,-82 44,-122 23,-66 36,-133 33,-203l6 6 2 7 -1 4c6,27 12,49 10,77 -2,25 -8,49 -15,73 -17,48 -41,93 -54,143 -21,83 -13,173 24,254 -18,-29 -35,-59 -50,-90zm265 323c-24,-28 -42,-63 -49,-100 -9,-40 -5,-81 2,-121 12,-66 33,-131 32,-199 14,24 28,48 42,71l1 5c55,87 22,192 42,286 0,3 5,3 5,-1 -10,-78 7,-161 -14,-238 42,64 89,125 140,182 5,20 5,40 5,59 0,28 2,55 7,82 7,41 22,80 47,112 -93,-31 -181,-78 -260,-138zm344 161c-4,-1 -9,-2 -13,-3l-1 -3c-32,-22 -38,-66 -47,-101 -4,-19 -9,-38 -13,-57 -4,-17 -7,-36 -14,-53 67,68 141,129 221,180 33,20 79,44 124,54 -85,7 -172,2 -257,-17zm386 -5c-11,3 -22,5 -33,7 6,-4 11,-9 16,-15 6,-7 -4,-21 -12,-16 -51,27 -99,24 -153,0 -56,-24 -107,-62 -155,-100 -41,-32 -79,-66 -116,-102 63,29 131,46 199,47 4,1 5,-5 1,-6 -77,-4 -154,-27 -223,-65 -11,-11 -22,-23 -32,-35 13,8 28,15 42,19 38,14 79,18 119,21 44,3 87,7 130,20 22,7 44,16 65,26 48,68 99,135 152,199zm-114 -416c-5,-3 -9,-7 -14,-10l3 -1c5,-3 9,-7 13,-11 6,-6 11,-13 14,-21 12,9 24,18 36,27 -6,4 -11,9 -17,13 -3,3 -7,6 -10,9l-7 6c-6,-4 -12,-8 -18,-12zm26 18l5 -5c4,-2 7,-5 10,-8 7,-5 13,-10 19,-15 6,4 12,8 18,12l-12 12 -6 8 -6 7c-2,4 2,9 6,6l7 -7 6 -8c4,-4 8,-9 12,-13 11,7 21,15 32,22l-1 0c-4,5 -9,10 -13,14l-7 7 -6 8 0 3c-22,-14 -43,-29 -64,-43zm346 200c-95,-45 -188,-96 -277,-154l1 0 8 -7 6 -7 13 -15 0 -2c6,3 11,7 16,10l-4 7c-4,7 -8,13 -10,20 -2,6 5,9 8,5 5,-5 8,-12 11,-18l5 -8c129,83 267,151 404,206 56,23 113,43 171,61 0,10 -5,18 -12,24l-8 5c-20,-6 -39,-12 -58,-19l8 -3c7,-4 13,-8 19,-14l1 -6 -6 -1c-6,5 -12,9 -18,12 -3,2 -7,3 -10,4l-9 3c-87,-30 -174,-64 -259,-103zm491 253c-1,33 -2,65 -2,98 -30,12 -59,26 -87,42 -17,10 -32,20 -48,30l-1 1c37,-63 83,-120 138,-171zm134 138c6,11 11,23 17,34 -16,-11 -32,-23 -48,-35 -14,-10 -28,-20 -43,-31 -7,-5 -14,-10 -21,-16 -6,-4 -12,-10 -20,-13l-3 0c1,-32 2,-64 4,-95l7 -6c6,-5 6,-13 2,-18l4 0c32,61 69,119 101,180zm208 -156c-4,-1 -8,-2 -13,-2l3 -6c2,-6 3,-12 2,-18l-1 -7c14,2 27,4 40,5 0,8 -2,15 -5,22l-5 8c-7,-1 -14,-2 -21,-2zm285 53c15,0 30,1 45,1l-3 2 -7 5 -4 2 -3 4 4 6c3,-1 6,-3 8,-4l7 -5 9 -7 5 9c8,7 16,13 23,19l-6 7c-5,3 -9,4 -14,5l-3 4 3 3c6,1 13,-2 19,-5l8 -8c7,6 15,12 23,19 -1,4 -3,9 -5,13 -3,3 -6,6 -9,9l-2 1c-33,-26 -66,-53 -98,-80zm760 -92l3 -6 3 -5 1 -2 1 -2 0 -2 -4 -3 -2 1 -1 2 -1 3 -3 5 -5 10 0 0c-6,1 -12,3 -19,4 1,-3 1,-6 2,-10 0,-4 0,-8 0,-13l-1 -2c7,-1 13,-2 19,-3 150,-26 300,-56 447,-95 -125,43 -253,78 -383,106l3 -6 2 -6 1 -2 1 -2 -1 -2 -4 -2 -2 1 -1 2 -1 3 -2 5c-1,4 -2,7 -4,11 -16,3 -33,6 -49,10zm1775 -412c-102,-60 -198,-132 -291,-202l-8 -3 1 0c3,-4 6,-9 9,-13 4,-3 9,-5 13,-7 -1,4 1,9 7,9 15,1 29,2 43,4 1,6 6,11 11,14 15,9 32,14 46,22 18,10 34,21 50,33 50,38 90,87 119,143zm1315 -258c-108,63 -216,125 -324,186 -39,4 -81,-18 -116,-36 -23,-13 -47,-26 -72,-33 -11,-4 -24,-7 -37,-7 171,-21 338,-59 498,-116 17,2 34,4 51,6zm-606 331c-78,32 -159,54 -244,60 -22,-2 -44,-7 -65,-16 -56,-23 -98,-69 -135,-116 -47,-59 -95,-127 -162,-161 5,1 10,2 16,3 30,4 60,8 90,11 54,26 101,64 147,103 25,21 50,43 75,63 20,15 40,29 65,28l-1 -5c-31,-1 -55,-26 -78,-46 -23,-21 -46,-42 -69,-62 -33,-29 -67,-56 -105,-77 9,1 19,2 28,2 -1,4 2,9 6,7 5,-2 9,-3 13,-5 40,3 79,5 119,6 10,3 20,5 30,10 17,9 33,20 48,33 30,26 55,57 82,85 39,38 88,70 140,77zm74 -32c-19,8 -37,17 -56,25 -28,-3 -55,-9 -81,-23 -39,-21 -69,-55 -98,-88 -25,-27 -51,-54 -81,-75 -5,-3 -10,-6 -15,-8 80,1 140,76 201,122 31,23 65,43 103,47 9,1 18,0 27,0zm154 -82c-43,25 -87,48 -131,70 -24,5 -49,5 -74,-2 -39,-12 -72,-39 -103,-67 -39,-34 -81,-73 -130,-91 71,-1 142,-4 212,-11 8,1 15,3 23,6l4 1c67,26 126,93 199,94zm11 -6c-49,1 -95,-31 -136,-58 -17,-11 -35,-23 -53,-32 6,0 12,0 18,1 14,1 27,5 40,10 25,10 48,23 72,35 27,14 60,26 90,26 -9,5 -19,11 -28,16l-3 2zm-209 -98l2 -1 -1 1 -1 0zm-672 -168c38,-21 77,-38 118,-52 15,-1 30,-2 46,-3 -42,13 -81,34 -117,61 -53,41 -107,90 -176,98 -6,-2 -12,-3 -17,-4 -4,-1 -6,1 -7,4 -4,-1 -7,-1 -11,-2 17,-8 34,-17 50,-27 38,-25 74,-53 114,-75zm325 -59c-54,22 -101,61 -148,97 -35,28 -72,55 -114,73 -27,12 -54,17 -81,17 -29,-5 -57,-10 -85,-15 47,-12 88,-41 126,-71 58,-45 115,-83 186,-100 38,-2 77,-2 116,-1zm69 2c-46,18 -86,52 -123,85 -71,65 -141,122 -244,108 115,-29 206,-151 318,-195 16,0 33,1 49,2zm305 31c-50,20 -92,58 -134,92 -38,31 -79,57 -126,74 -44,16 -88,19 -135,25l0 0c-18,-1 -35,-2 -52,-3 20,-9 39,-19 57,-30 30,-19 64,-41 86,-69 4,-4 -3,-10 -7,-7 -15,10 -28,23 -42,33 -14,11 -28,21 -43,31 -24,15 -49,28 -75,40 -30,-2 -60,-5 -90,-8l-8 -4 -7 2c-6,-1 -13,-2 -19,-3 48,-9 94,-41 129,-70 57,-49 114,-112 188,-133 92,6 185,17 278,30zm72 11c-49,11 -90,44 -127,77 -58,52 -114,98 -195,104l-3 2c-17,0 -34,0 -51,0 51,-12 100,-36 139,-63 59,-42 112,-103 181,-129 19,3 37,6 56,9zm99 15c102,16 203,33 305,46 -72,24 -144,44 -217,61 -106,24 -213,41 -321,51 -11,-2 -22,-2 -33,-1l-4 4c-36,3 -72,5 -107,6 50,-14 92,-42 132,-78 47,-42 95,-90 159,-102 24,3 48,7 72,11 -10,4 -21,8 -31,13 -11,5 -21,11 -32,18 -5,4 -10,7 -15,11 -5,4 -11,8 -14,14 -1,2 1,7 5,5 5,-2 9,-6 13,-10 5,-4 10,-8 15,-11 10,-8 20,-14 31,-20 14,-7 28,-13 42,-18zm-561 446c-17,-1 -33,-3 -50,-6 -75,-25 -125,-116 -174,-175 -33,-39 -74,-71 -115,-102 -11,-8 -24,-18 -37,-27 9,2 18,4 27,5l8 1c1,3 3,5 6,6 121,17 181,144 260,225 38,38 81,63 127,75 -13,0 -26,-1 -40,-1l-2 -1c-4,0 -7,0 -10,0zm-193 -45c-56,-46 -91,-126 -139,-177 -34,-36 -79,-61 -121,-85 -16,-9 -32,-18 -49,-25 26,4 52,8 77,13 15,7 30,14 45,24 21,14 42,30 63,46 48,37 87,78 123,127 30,40 67,85 112,110l-8 -1c-35,-8 -69,-19 -103,-32zm-171 -81c-19,-44 -46,-84 -79,-119 -20,-22 -43,-41 -67,-58 -11,-7 -23,-15 -35,-21 -6,-4 -13,-7 -20,-10 -3,-2 -6,-3 -10,-5l-5 -4c7,1 13,1 20,2l8 3 1 4c3,8 16,7 24,5 34,15 67,33 99,53 51,31 93,64 128,115 25,35 52,76 84,108 -51,-21 -100,-45 -148,-73zm15 -347c42,-9 85,-15 127,-21 -52,18 -102,42 -148,72 -28,19 -55,39 -85,55 -13,7 -27,14 -41,19l-2 0c-24,-4 -48,-7 -71,-10 -5,-2 -10,-4 -16,-5l-6 3c-16,-2 -32,-4 -48,-5 93,-47 187,-85 290,-108zm-197 33c-5,3 -10,5 -15,7l0 -2 2 -2c4,-1 9,-2 13,-3zm494 -226c-90,11 -191,-27 -277,-3 7,-7 15,-15 22,-22l3 -2c43,-43 110,-34 166,-28 49,5 100,7 141,-20 3,-3 -1,-8 -4,-6 -79,51 -187,-12 -269,19 4,-5 8,-9 13,-13 15,-15 30,-30 45,-45 10,-6 19,-13 30,-19 21,-11 44,-16 68,-14 38,2 76,11 115,13 73,3 146,-9 202,-56l-2 -3c-69,49 -158,55 -242,44 -36,-5 -74,-17 -111,-10l-6 2c5,-7 9,-15 13,-22 23,-22 45,-44 68,-66 5,-3 11,-5 17,-7 19,-6 38,-9 58,-11 37,-3 74,0 111,3 67,5 136,7 194,-28l-3 -5c-67,36 -147,25 -221,19 -35,-3 -70,-4 -105,1 -8,1 -17,2 -26,4 8,-8 16,-16 25,-24 11,-5 23,-11 35,-14 17,-5 35,-7 53,-8 35,-2 70,1 104,4 64,4 131,4 185,-34 3,-2 -1,-7 -5,-5 -62,42 -142,31 -215,25 -32,-2 -65,-4 -97,0 -10,2 -22,4 -34,7 70,-67 141,-133 212,-198 80,32 166,37 246,14l-2 -6c-76,20 -159,13 -234,-17l3 -2 5 2c2,-4 4,-9 6,-13 23,-20 45,-41 68,-62 6,4 13,6 19,8 11,3 21,7 32,10 22,5 44,9 66,11 44,4 88,0 130,-11l-1 -4c-42,10 -86,12 -129,7 -22,-3 -44,-7 -66,-14 -10,-3 -21,-6 -31,-11 -3,-1 -7,-3 -10,-4 60,-54 120,-108 181,-161l1 1c-1,3 0,7 5,8 41,9 85,9 126,5 30,-2 60,-8 89,-16 -13,23 -26,46 -40,68 -8,2 -16,4 -24,6 -7,1 -15,1 -22,2 -7,0 -15,-2 -22,-1 -4,1 -5,7 0,9 7,3 16,2 23,2 8,-1 15,-1 22,-3 6,-1 12,-3 17,-5l-3 5c-139,225 -321,420 -532,574 -60,44 -122,84 -186,120zm801 -844c-29,21 -68,27 -103,31 -36,4 -72,3 -107,-1 101,-88 204,-174 308,-259 -28,79 -61,155 -98,229zm76 -235c-93,77 -185,155 -276,234 -15,14 -31,27 -46,40 6,-31 15,-62 27,-91 7,-20 16,-39 26,-57 5,-8 10,-17 15,-25 5,-8 12,-15 15,-24 1,-4 -4,-8 -8,-6 -7,6 -12,17 -17,26 -5,8 -10,17 -15,26 -9,18 -18,37 -25,56 -12,33 -21,67 -26,102 -26,23 -52,46 -78,69 7,-46 18,-92 34,-135 9,-24 20,-48 31,-71 10,-18 22,-36 33,-54 101,-37 204,-67 310,-90zm-747 658c25,-56 15,-128 18,-187 3,-43 8,-86 19,-127 5,-19 11,-38 19,-56 4,-8 8,-15 12,-23 15,-9 30,-17 45,-26 -26,48 -37,103 -42,157 -4,41 -5,82 -8,122 -2,32 -3,66 -15,95 -16,15 -32,30 -48,45zm171 -158c15,-48 15,-99 17,-149 1,-36 4,-72 12,-106 5,-18 11,-35 20,-51 3,-6 7,-12 12,-17 16,-8 32,-15 48,-23 -11,16 -19,37 -25,53 -9,27 -16,55 -20,83 -11,61 -14,123 -32,182 -11,9 -21,18 -32,28zm41 -37c16,-51 22,-105 31,-158 4,-30 11,-61 21,-89 5,-15 12,-28 19,-41 6,-11 14,-20 20,-31 39,-17 78,-33 117,-48 -10,15 -18,31 -25,46 -12,23 -22,47 -31,71 -16,46 -27,94 -32,143 -40,35 -80,71 -120,107zm209 -163c10,-9 19,-17 29,-25l2 1c40,5 81,5 121,0 31,-5 65,-11 92,-28 -8,15 -15,30 -23,44 -31,8 -63,14 -95,16 -42,3 -83,-1 -124,-6l-2 0 0 -2zm-362 302c6,-18 10,-38 12,-57 4,-41 5,-82 8,-122 5,-69 17,-138 54,-195 25,-14 50,-27 75,-39 -6,13 -11,27 -15,40 -10,32 -13,67 -15,101 -2,60 0,123 -18,180 -34,31 -67,62 -101,92zm-236 13c-6,9 -4,26 -5,37 0,12 -1,25 -3,38 -2,26 -5,53 -9,78 -6,35 -15,69 -28,102 -13,13 -27,26 -40,39 29,-56 38,-123 39,-187 2,-53 -1,-105 1,-158 1,-24 2,-48 6,-71 2,-15 6,-27 11,-38 49,-40 100,-77 152,-113 32,-22 65,-43 98,-63 -7,18 -13,36 -18,52 -10,38 -16,77 -19,116 -3,41 -2,83 -3,124 -1,38 -5,76 -26,107 -50,46 -99,93 -148,140 -7,4 -13,9 -17,16l0 1c-7,6 -13,12 -20,19 9,-25 16,-50 21,-76 5,-28 9,-55 11,-82 2,-14 3,-29 4,-43 1,-11 5,-26 0,-37l-7 -1zm-73 305c3,-3 6,-6 10,-9l-4 7 -6 2zm25 -449c-5,22 -6,44 -7,62 -4,51 -1,103 -1,154 0,86 -9,177 -55,248 -4,4 -8,8 -11,11 -9,7 -17,14 -24,21l-1 4c-39,39 -78,78 -116,118 -9,4 -17,9 -24,15 -4,3 -3,7 0,9 -7,7 -13,14 -20,21 -4,2 -7,5 -9,8 24,-58 26,-127 29,-190 2,-52 6,-104 13,-156 4,-24 8,-49 13,-73 3,-18 6,-37 13,-54 7,-7 13,-15 20,-23 54,-63 116,-121 180,-175zm-380 804l6 -6 -3 5 -3 1zm63 -39c21,-15 40,-29 64,-38 24,-9 50,-14 75,-17 29,-4 57,-6 86,-9 -88,39 -180,72 -274,99 6,-8 11,-16 15,-25 28,-28 56,-57 84,-85l5 -2 4 -7 7 -7 3 -2c6,-3 14,-5 21,-7 15,-5 32,-8 48,-9 33,-4 66,-2 99,0 21,2 47,6 72,6 -20,10 -40,20 -60,29 -42,2 -84,4 -125,10 -45,6 -102,18 -131,57 -3,4 3,10 7,7zm328 -112c-16,0 -32,-2 -47,-3 -33,-3 -67,-7 -101,-7 -9,0 -57,1 -93,10 9,-9 18,-18 26,-26 83,-40 185,-2 277,-7 -21,11 -41,22 -62,33zm-284 -344l-4 3c16,-31 35,-59 56,-87 -5,21 -7,43 -11,62 -9,53 -14,106 -17,160 -4,85 -2,173 -41,248 -15,16 -30,32 -45,48 25,-55 39,-115 44,-176 3,-45 -1,-90 0,-135 1,-22 2,-45 7,-66 2,-11 5,-21 9,-31 3,-8 8,-14 7,-23l-5 -3zm-27 48c3,-7 6,-12 9,-18 -2,6 -3,12 -4,17 -5,19 -7,38 -8,57 -2,43 1,87 1,130 -2,80 -22,155 -56,225 -13,13 -26,27 -39,41 -12,3 -24,7 -36,10l-2 0 1 -1 1 -1 4 -5c7,-9 14,-17 21,-26 7,-8 -7,-18 -13,-10 -5,5 -10,10 -14,16l-8 -3c33,-79 55,-164 79,-247 18,-63 37,-126 64,-185zm-601 801c-6,3 -13,7 -19,10 4,-2 9,-5 13,-8l6 -2zm348 -245c-6,6 -12,11 -19,17l-3 0c8,-5 15,-11 22,-17zm61 -29l4 -7 7 -7 7 0c4,-1 9,-3 13,-5l1 0c-11,6 -21,13 -32,19zm-1581 682c1,-6 3,-12 4,-19l0 -8c10,-2 20,-3 29,-5l1 2c0,4 0,8 0,11 0,5 -1,9 -2,13 -11,2 -22,4 -32,6zm-6 -26l0 7c0,7 -1,14 -3,20 -59,10 -119,19 -179,26 0,-9 -1,-19 -3,-29 62,-7 124,-14 185,-24zm-279 63l1 -6c1,-8 0,-16 -1,-24 28,-2 57,-5 85,-8 1,10 2,20 1,29l0 1c-29,3 -57,6 -86,8zm-341 13l2 -5c3,-8 3,-17 3,-26 108,1 217,-3 325,-11 1,7 2,14 1,21 -1,4 -1,6 -2,9 -109,10 -219,13 -329,12zm-94 -3l2 -7c3,-7 4,-16 4,-24 28,1 56,2 85,3l-1 0c1,8 0,16 -3,23l-3 8c-12,-1 -24,-1 -36,-2 2,-4 3,-10 3,-15l-4 -5 -5 4 0 5 0 2 -1 0 0 1 -1 5 -1 2 -1 0 0 1 0 0c-13,0 -25,-1 -38,-1zm-221 -23c3,-8 5,-16 5,-25 71,8 141,14 211,17 0,7 -2,13 -4,20 -1,4 -2,7 -4,10 -70,-3 -140,-9 -211,-17l3 -5zm-54 -32l0 7 -1 8 -1 6 -2 3 0 2 -1 1 -2 3c-136,-18 -272,-45 -405,-83l2 -3 4 -8c2,-6 2,-13 1,-19l-2 -3c134,39 270,68 407,86zm-414 -78l0 0 0 1 0 2 0 4 0 0 -1 1 0 2 -2 4 0 0 -1 2 -2 3 -2 2 0 1c-15,-4 -31,-9 -46,-14l1 0c9,-8 14,-18 15,-30 14,5 27,9 41,13l-3 5 0 4zm-814 -373l3 -2c12,-8 20,-20 24,-34 7,6 15,12 23,18 -3,7 -7,14 -13,19 -3,4 -8,7 -12,9l-7 4c-6,-4 -12,-9 -18,-14zm-37 -29c4,-2 8,-4 11,-7 8,-9 13,-20 14,-32 10,9 20,17 30,25 -3,13 -11,24 -22,31l-7 4c-9,-7 -17,-14 -26,-21zm-11 -70c8,7 17,15 25,22l-1 4c1,10 -4,20 -11,27 -4,3 -8,6 -13,8l-1 0c-9,-7 -18,-15 -26,-22 3,-3 6,-5 9,-8 8,-9 14,-20 18,-31l0 0zm553 55c-136,11 -276,0 -410,-36 -33,-13 -65,-30 -94,-50 -71,-47 -126,-114 -175,-184 -76,-111 -141,-236 -243,-324 14,6 28,11 42,16 197,137 257,443 499,519 4,1 6,-4 2,-5 -226,-83 -286,-355 -461,-500 15,5 30,10 46,15 25,8 51,15 77,22 199,128 269,449 523,482l0 -2c-238,-48 -308,-327 -484,-468 30,8 60,14 90,21 -1,3 0,6 3,6 4,0 8,0 12,0l9 6c21,15 39,33 56,52 32,35 60,74 87,112 52,72 107,144 189,179l2 -4c-91,-44 -148,-133 -206,-213 -29,-42 -65,-91 -108,-128 11,2 23,4 34,6 213,92 302,376 536,428l1 -4c-216,-65 -306,-309 -493,-416 15,3 29,6 44,8 125,73 210,201 320,296 56,49 120,87 192,104 44,10 90,14 134,17 8,1 15,1 22,1 -80,22 -162,37 -246,44zm281 -54c-30,2 -61,-2 -92,-5 -44,-5 -88,-10 -131,-25 -72,-24 -132,-72 -187,-124 -85,-83 -160,-183 -259,-249 20,2 39,5 58,7 161,89 252,295 435,340l1 -5c-93,-33 -164,-99 -231,-171 -54,-58 -108,-117 -174,-160 24,3 48,5 72,6 56,23 101,66 144,109 45,44 89,87 143,120 98,62 212,94 324,87l0 -3c-121,-2 -242,-38 -345,-112 -80,-57 -141,-147 -227,-197 23,1 46,2 69,3 84,31 146,99 218,152 71,52 149,95 235,105l1 -4c-93,-18 -175,-68 -251,-127 -36,-28 -70,-60 -106,-88 -17,-13 -35,-26 -54,-36 14,0 28,1 41,1 7,2 15,4 21,7 18,7 35,15 51,23 36,19 70,40 105,61 64,39 129,76 203,87l0 -4c-77,-16 -147,-60 -214,-102 -32,-21 -64,-41 -97,-58 -10,-5 -20,-10 -31,-14 10,0 20,0 30,0 9,1 18,1 27,3 20,2 39,5 58,9 38,7 76,17 113,28 74,22 145,53 214,87l1 -3c-68,-41 -142,-72 -217,-96 -36,-11 -73,-21 -110,-28l-9 -2c30,-1 59,-2 89,-4 4,0 8,-1 13,-1 -3,3 -2,8 3,9 53,10 101,25 151,49 46,22 92,48 138,70 67,32 140,57 212,52 -136,86 -281,157 -435,203zm777 -459c-13,2 -26,1 -40,-1 -17,-2 -35,-5 -53,-9 -18,-3 -36,-7 -54,-11 -14,-3 -28,-7 -42,-10 110,-27 219,-57 327,-90 -46,41 -92,82 -138,121zm122 -148c-103,31 -207,61 -312,86l4 -3c15,-10 30,-20 45,-31 24,-17 48,-36 72,-55 63,5 128,8 191,3zm-267 -11c22,2 44,5 67,7 -22,16 -45,32 -67,48 -15,10 -29,19 -43,29 -8,5 -15,10 -23,15 -3,2 -7,4 -11,6 -57,14 -114,27 -172,38 -37,8 -75,14 -113,21 5,-3 9,-5 13,-7 15,-8 30,-16 44,-26 30,-21 56,-45 79,-72l-4 -4c-24,25 -51,47 -80,66 -15,10 -30,19 -45,27 -15,7 -32,12 -46,20l-2 2c-27,4 -54,8 -80,12 52,-17 100,-55 139,-87 61,-49 123,-102 201,-119 48,9 95,18 143,24zm-156 -27c-63,14 -116,53 -166,92 -31,25 -62,50 -96,71 -41,26 -82,37 -129,45 -5,1 -5,7 -2,9 -24,3 -47,6 -70,8 64,-21 119,-79 170,-117 71,-53 147,-101 234,-121 20,5 39,9 59,13zm-31 436c-83,6 -168,-28 -243,-67 -81,-42 -168,-98 -260,-108 32,-2 63,-5 95,-8 11,2 24,3 34,6 26,6 51,15 75,28 46,26 87,61 134,85 63,33 135,47 203,39 -13,8 -25,17 -38,25zm191 -135c-23,18 -47,35 -70,52 -78,12 -154,-5 -227,-41 -56,-29 -112,-63 -173,-74 23,-4 45,-7 68,-11 134,-3 269,131 402,74zm-60 -139c18,7 38,11 56,15 19,4 38,8 57,11 20,3 39,6 58,7 7,1 13,1 19,1 -40,33 -80,66 -120,97l-4 -1c-67,31 -145,7 -212,-20 -49,-21 -99,-43 -150,-52 18,-3 37,-7 55,-10 70,19 140,37 210,55l1 -5c-62,-18 -125,-37 -188,-55 73,-13 144,-29 215,-46l3 3zm-33 208c-15,11 -30,21 -46,32 -81,7 -163,-9 -235,-53 -42,-26 -81,-58 -125,-80 -18,-9 -38,-16 -57,-21 16,-2 32,-4 49,-6l4 3c78,3 147,49 216,83 66,31 135,44 205,34 -4,3 -7,5 -11,8zm-217 -404c25,6 51,12 76,18 -71,16 -135,52 -195,93 -40,28 -78,59 -117,89 -37,28 -77,56 -127,56 -4,0 -5,4 -3,7 -16,2 -32,3 -48,4 49,-24 90,-60 130,-97 49,-47 98,-92 159,-124 40,-21 82,-34 125,-46zm-26 -6c-84,22 -162,70 -225,127 -46,42 -90,89 -144,120 -21,13 -44,23 -68,29 -20,1 -41,1 -62,2 36,-13 70,-31 99,-50 41,-26 78,-58 112,-92 40,-41 77,-77 130,-99 4,-2 2,-7 -1,-7 -47,8 -84,42 -115,75 -33,33 -66,66 -104,94 -38,28 -80,52 -124,68 -17,6 -33,10 -50,13 -29,0 -57,-1 -86,-1l8 -1c31,-7 63,-13 93,-23 57,-19 111,-51 137,-108l-5 -3c-29,51 -79,82 -133,99 -29,9 -59,15 -88,21 -15,3 -30,6 -45,9 -6,1 -13,2 -19,4l-8 1c-55,-2 -111,-6 -167,-12 70,-20 130,-67 188,-112 98,-77 205,-128 324,-165l-1 -4c-104,21 -202,68 -287,129 -82,58 -161,136 -263,148 -16,-2 -32,-3 -48,-5 -11,-2 -21,-4 -32,-5 106,-30 201,-107 285,-168 67,-47 137,-92 215,-118 51,-16 104,-25 158,-28 95,13 190,31 284,52 14,4 28,7 42,10zm-503 -82c-71,22 -137,60 -195,105 -5,4 2,12 7,8 65,-52 139,-86 217,-111 35,4 69,8 103,12 -102,11 -198,48 -285,105 -67,44 -129,95 -197,137 -58,35 -117,57 -181,70l-3 -1 -5 -2 -6 0c-6,0 -11,-1 -16,-2 91,-23 174,-76 249,-131l-3 -4c-83,54 -170,111 -268,131 -34,-6 -68,-13 -101,-21 65,-8 130,-37 186,-68 63,-35 120,-77 175,-123l-3 -3c-56,42 -114,83 -176,116 -29,16 -60,31 -92,42 -34,12 -69,18 -104,26l-4 5c-29,-6 -58,-14 -87,-22 112,5 214,-79 300,-134 115,-74 240,-118 374,-143 39,2 77,4 115,8zm-261 -12c35,0 70,1 105,2 -107,18 -210,57 -302,111 -56,33 -109,72 -166,104 -56,31 -111,46 -176,52 -4,0 -5,5 -4,8 -10,-3 -20,-6 -30,-9 27,-7 53,-20 72,-30 52,-27 99,-62 146,-95 89,-64 183,-124 291,-142 22,0 43,-1 64,-1zm-411 21l1 0 -6 2 5 -2zm745 -647c-19,-3 -37,-6 -56,-8 -15,-2 -30,-4 -44,-5 -6,-1 -11,-2 -17,-3 61,-28 122,-56 183,-85l6 -6 6 0c-26,36 -51,72 -78,107zm-304 -118c-6,6 -11,12 -16,18 -15,19 -25,43 -34,66 -20,48 -45,92 -76,134l-113 53c9,-12 16,-25 21,-39 6,-15 11,-29 15,-45 4,-14 9,-28 10,-43 0,-5 -6,-6 -8,-2 -6,13 -8,28 -12,42 -3,14 -8,27 -13,40 -7,20 -17,39 -29,55l-48 22c28,-31 37,-80 49,-121 9,-33 24,-64 45,-91 20,-27 45,-47 71,-67l1 -8c46,-6 91,-11 137,-14zm-1080 668c2,-4 4,-9 5,-14 3,-8 4,-16 6,-24 0,-4 1,-8 1,-13l-1 -7c19,-19 38,-38 55,-58 -1,7 -1,14 -3,20 -2,11 -4,21 -7,31 -5,16 -11,31 -17,47 -13,6 -26,12 -39,18zm-38 40c4,-1 7,-3 10,-4 76,-14 146,19 215,53 37,18 76,36 116,45 -39,2 -78,2 -116,0 -41,-12 -79,-35 -116,-55 -27,-14 -54,-26 -83,-34 -8,-2 -16,-4 -26,-5zm-69 31c14,-6 27,-12 41,-18 7,-1 14,-2 22,-1 15,1 30,4 45,9 28,8 55,22 82,36 23,12 47,25 71,34 -88,-8 -176,-28 -261,-60zm-8 48c37,27 72,55 106,85l0 4c-4,-1 -8,-3 -12,-5 -14,-6 -27,-13 -41,-19 -6,-3 -12,-5 -18,-8 -6,-3 -12,-6 -18,-7 -6,-17 -11,-33 -17,-50zm22 65l8 4c7,3 13,6 20,8 13,6 26,12 40,18 17,7 34,14 51,22 27,25 53,50 78,77l1 1c-29,-7 -57,-17 -84,-29 -17,-8 -34,-17 -50,-27 -8,-5 -16,-10 -23,-15 -7,-5 -14,-12 -22,-14l-5 0c-4,-15 -9,-30 -14,-45zm94 276c-8,-22 -16,-45 -24,-67 9,6 19,11 28,15 31,16 65,26 98,35 56,15 116,31 164,65 20,27 40,55 59,82 -44,-22 -97,-28 -144,-39 -44,-9 -87,-26 -126,-50 -17,-11 -34,-23 -49,-36l-6 -5zm399 237c-15,-8 -30,-15 -47,-21 -36,-13 -73,-20 -110,-26 -42,-8 -83,-14 -123,-27 -25,-9 -47,-20 -68,-33 -14,-35 -28,-69 -41,-104 11,9 22,17 34,24 33,20 67,36 103,46 61,18 136,18 192,53 20,29 40,59 60,88zm63 20c-6,-6 -11,-11 -16,-16 -92,-138 -188,-272 -298,-392 43,37 82,79 118,122 74,90 137,189 212,277 -7,-2 -14,2 -16,9zm118 113c-24,-23 -49,-45 -73,-68 32,21 65,40 98,57l0 0c-5,2 -9,4 -14,6l-7 2 -4 3zm-633 -520l89 35c48,20 97,39 145,58 24,28 47,57 70,86 -36,-22 -77,-36 -118,-48 -35,-10 -72,-20 -106,-35 -18,-8 -35,-17 -51,-28l-7 -6c-8,-21 -15,-42 -22,-62zm167 16c19,20 37,41 55,62 -37,-16 -73,-31 -109,-46 -29,-12 -57,-24 -85,-36 -11,-4 -22,-9 -34,-13 -5,-17 -11,-34 -16,-50 5,4 11,8 17,12 8,5 16,10 24,16 16,9 33,17 50,25 32,14 65,24 98,30zm540 486c-56,-26 -109,-57 -160,-94 -83,-101 -152,-214 -236,-314 -47,-57 -107,-119 -173,-161 -28,-27 -56,-54 -85,-79 15,10 31,19 47,28 -1,3 -1,6 2,8 35,21 71,40 105,65 32,24 63,52 91,81 55,56 104,118 152,181 80,102 160,207 263,285l-6 0zm-49 -703c-117,45 -217,144 -342,159 -15,-7 -31,-14 -47,-21 6,-1 11,-2 16,-2 29,-6 57,-13 85,-23 60,-20 116,-49 172,-79l1 -2c39,-9 78,-20 115,-32zm384 -248c-13,10 -25,20 -38,29 -71,3 -138,-43 -199,-79 -57,-34 -117,-55 -179,-53 3,-2 7,-3 11,-5 7,0 15,0 23,1 21,2 42,6 63,10 42,10 83,24 123,43 38,18 74,42 115,51 27,6 54,6 81,3zm260 -245c-11,12 -22,23 -32,35 -55,5 -112,-27 -165,-43 -30,-9 -60,-15 -91,-17 -10,0 -20,0 -30,0 17,-8 33,-15 49,-23 19,-1 39,0 59,4 33,8 59,26 90,39 39,16 80,14 120,5zm26 -30c-6,7 -12,14 -18,20 -49,9 -98,10 -146,-17 -30,-17 -65,-30 -101,-35 8,-3 15,-7 23,-11 5,1 9,2 13,4 13,3 26,8 39,12 25,9 50,19 76,25 38,9 77,9 114,2zm39 -48c-10,12 -20,24 -30,37 -43,8 -88,8 -131,-5 -26,-7 -50,-17 -76,-26 -9,-3 -18,-6 -27,-9 19,-8 37,-17 56,-26 19,7 39,12 57,16 24,6 48,11 72,14 22,2 45,3 66,1 5,-1 9,-2 13,-2zm-56 -209c50,1 99,4 148,9 -82,38 -164,77 -247,115 16,-16 27,-39 37,-57 11,-18 21,-36 37,-50 8,-7 16,-12 25,-17zm-445 42c38,-9 76,-17 115,-23 -47,29 -83,78 -104,129 -22,57 -24,137 -79,171l-73 34c28,-30 47,-68 58,-111 17,-69 24,-156 83,-200zm-37 9c4,-1 9,-2 13,-3 -35,38 -49,92 -60,144 -9,41 -17,84 -38,120 -14,22 -31,41 -51,57l-45 21c28,-25 52,-54 70,-87 20,-36 29,-74 38,-114 11,-51 25,-104 70,-134l3 -4zm-150 48c-32,41 -54,94 -70,139 -16,43 -29,86 -48,128 -16,35 -36,63 -59,92 -27,13 -54,26 -81,39l-1 0c22,-23 39,-51 51,-82 8,-21 15,-42 21,-64 3,-11 6,-21 9,-31 3,-11 5,-24 15,-31 5,-4 -2,-13 -7,-9 -15,12 -17,36 -22,54 -6,21 -12,43 -20,63 -14,41 -34,79 -65,108 -8,4 -15,7 -23,11 39,-62 57,-135 87,-203 21,-48 51,-93 87,-131 19,-20 39,-37 61,-53l9 -6c18,-9 37,-17 56,-24zm-110 50c-7,6 -13,12 -19,18 -32,33 -60,72 -82,113 -40,78 -57,168 -102,242 -12,6 -23,11 -35,16 35,-44 49,-104 64,-160 13,-45 28,-89 56,-127 24,-32 54,-59 84,-84 11,-7 22,-13 34,-18zm-184 122c-39,100 -34,230 -117,297 -7,3 -14,7 -21,10l4 -5c11,-15 22,-30 25,-49l-4 -1c-12,13 -20,29 -30,44 -5,7 -10,14 -15,21 -14,6 -27,12 -41,19l-7 -1c-4,0 -5,4 -5,7 -11,5 -22,10 -34,16 14,-19 23,-42 30,-65 6,-19 11,-40 16,-59 3,-10 6,-19 9,-28 3,-7 7,-14 10,-22 56,-66 114,-129 180,-184zm3 531c-57,-6 -113,-36 -165,-61 -49,-25 -105,-50 -160,-52 6,-2 12,-5 17,-7 9,-1 17,-2 26,-2 21,0 43,2 64,6 45,8 86,25 127,44 45,21 90,39 137,55 9,3 19,6 29,8 -25,4 -50,7 -75,9zm-266 -139c17,-4 33,-7 51,-8 25,-1 51,1 76,7 53,12 99,41 147,68 45,26 93,43 142,49 -17,4 -35,7 -52,10 -30,-2 -63,-18 -89,-28 -44,-16 -85,-37 -128,-57 -37,-16 -75,-28 -114,-33 -15,-2 -30,-3 -45,-3 4,-2 8,-4 12,-5zm123 244c-14,-6 -28,-13 -42,-20 7,0 14,-2 21,-3 8,-2 17,-4 25,-6 16,-4 32,-8 48,-13 26,-8 51,-18 75,-29 51,-3 100,-10 148,-19 -48,22 -96,45 -146,63 -29,10 -58,18 -88,23 -13,3 -27,4 -41,4zm-9 33c-7,-6 -13,-11 -20,-17 10,5 20,10 30,15l-4 -1 -6 3zm49 -102c20,0 39,0 59,-1 -16,6 -32,11 -48,16 -17,6 -35,10 -52,14 -9,2 -17,4 -26,6 -7,1 -16,2 -23,5l-2 4c-52,-25 -103,-52 -154,-81 81,23 163,36 246,37zm-102 -357c-2,6 -3,11 -5,16 -5,19 -9,37 -14,56 -9,30 -20,61 -41,84 -6,3 -13,6 -19,9 5,-11 10,-24 14,-36 3,-11 6,-22 8,-33 3,-11 6,-22 4,-33l0 -1c18,-20 36,-41 53,-62zm291 -278c-36,39 -64,83 -80,135 -23,73 -33,156 -85,211 -6,3 -11,5 -16,8 71,-75 64,-207 109,-301 23,-19 47,-36 72,-52l0 -1zm328 -145c-57,52 -52,143 -81,212 -23,58 -65,102 -113,139l-2 0c-3,1 -7,1 -10,1l-4 6 -5 3c53,-52 92,-119 113,-191 1,-7 -9,-12 -11,-5 -23,84 -70,155 -133,210l-32 15c41,-47 63,-121 83,-176 16,-45 32,-90 57,-130 14,-22 29,-39 46,-55 30,-11 60,-20 90,-29l2 0zm361 -57c45,-2 90,-2 135,-1 -18,10 -34,25 -47,43 -11,17 -19,36 -31,52 -5,8 -11,16 -18,23 -9,7 -18,12 -28,17l-1 8c-12,5 -24,10 -36,16l-43 20c33,-69 74,-140 150,-161 7,-2 3,-12 -4,-10 -82,23 -122,101 -154,175l-62 30c24,-30 44,-63 60,-98 10,-24 18,-49 32,-71 7,-11 16,-22 26,-31 6,-5 14,-8 21,-12zm173 117c14,2 29,3 43,5 17,2 34,4 52,5 -10,13 -19,25 -29,37 -22,0 -43,-2 -65,-6 -15,-2 -30,-5 -45,-9 -14,-4 -29,-10 -44,-12 18,-8 36,-16 54,-25 11,3 23,3 34,5zm39 81c-9,2 -18,3 -27,4 -22,1 -44,-1 -66,-4 -23,-3 -46,-8 -68,-14 -13,-4 -26,-8 -39,-12 23,-11 46,-22 70,-33l0 6c13,8 30,11 45,15 15,4 31,7 46,9 20,3 40,4 59,4 -6,8 -13,17 -20,25zm-144 164c-56,58 -116,113 -180,163 -35,1 -70,1 -105,-11 -40,-13 -76,-39 -115,-56 -37,-16 -76,-29 -116,-37 -18,-4 -36,-7 -55,-9 8,-4 15,-7 23,-11 5,0 10,0 15,0 18,0 35,2 51,6 31,6 60,18 88,30 53,23 106,48 163,41l0 -4c-61,2 -118,-29 -173,-53 -28,-12 -57,-23 -87,-29 -10,-1 -20,-3 -30,-3 21,-10 41,-19 62,-29 3,0 7,-1 11,-1 8,-1 16,-1 25,-1 18,0 35,1 53,3 35,5 70,13 103,27l1 -3c-33,-15 -68,-27 -104,-32 -18,-3 -36,-5 -55,-5l-8 0c29,-13 57,-26 85,-40 15,-1 31,-2 46,-2 32,1 63,5 95,13 31,8 60,22 90,33 24,9 48,14 71,3l-2 -4c-29,11 -60,-4 -88,-17 -27,-12 -56,-23 -85,-30 -30,-7 -60,-10 -91,-10l-7 1c13,-6 26,-12 39,-18 8,-2 17,-3 24,-3 18,-1 35,-1 53,1 33,3 66,10 98,22 44,15 91,35 136,32 -10,11 -20,22 -31,33zm-544 371c-36,6 -74,8 -110,3 -21,-2 -42,-7 -63,-13 -10,-3 -20,-6 -30,-10 -9,-4 -18,-9 -27,-10 -5,-1 -7,5 -3,8 8,7 19,10 29,14 10,3 20,7 30,9 21,6 43,10 64,13 24,2 48,2 72,-1 -21,8 -42,14 -64,20 -3,1 -6,2 -10,3 -21,-1 -41,-3 -62,-7 -52,-12 -98,-38 -145,-65 -44,-26 -90,-48 -141,-55 -17,-3 -36,-4 -54,-4 14,-6 29,-13 44,-20 64,7 128,30 184,64 3,2 7,-2 4,-4 -53,-35 -112,-58 -173,-67 8,-4 15,-7 23,-11 63,-1 122,33 178,61 31,15 63,29 97,36 33,7 67,9 101,6l-1 -3c-36,0 -74,-4 -110,-13 -36,-10 -69,-27 -102,-45 -45,-23 -91,-46 -139,-53 64,-30 128,-59 192,-89 12,-2 24,-3 37,-2 28,4 58,15 85,24 25,9 48,22 72,33 20,10 42,17 64,15l0 -5c-26,0 -51,-12 -74,-24 -24,-13 -48,-24 -74,-33 -26,-9 -53,-20 -80,-22l-1 0c11,-5 23,-10 34,-16 10,-1 20,-3 29,-3 20,-1 39,0 58,4 36,6 70,20 103,35 61,29 122,66 190,68l0 -2c-73,-9 -135,-52 -201,-83 -33,-16 -67,-27 -103,-32 -12,-2 -26,-3 -40,-3 5,-2 9,-4 13,-6 40,-8 81,-8 121,2 46,12 87,37 127,61 49,29 104,59 160,59 -94,67 -196,123 -304,163zm94 29c-68,16 -131,52 -188,89 -44,30 -85,66 -136,85 -31,12 -65,17 -99,18 -7,-2 -13,-5 -20,-7 131,-27 235,-140 364,-176 27,-3 53,-6 79,-9zm-397 203c20,-2 40,-5 60,-11 46,-14 85,-43 123,-70 87,-62 177,-110 283,-127l0 -1c8,-1 16,-1 23,-2 -68,12 -128,49 -184,91 -73,54 -154,135 -251,139l-5 -1c-16,-6 -33,-12 -49,-18zm83 29c66,-14 125,-59 177,-100 85,-67 177,-143 293,-139l0 -4 -6 0c20,-1 40,-2 60,-3 -74,18 -142,55 -204,97 -55,37 -108,77 -164,110 -26,15 -53,29 -81,38 -17,5 -36,5 -54,8 -7,-3 -14,-5 -21,-7zm286 508c-125,-90 -218,-215 -311,-337 -48,-61 -96,-122 -151,-176 -14,-13 -28,-26 -42,-39 11,1 22,2 33,2 5,3 11,5 16,7 -1,4 2,10 7,10 4,0 8,0 13,-1 138,95 209,260 309,391 54,70 118,127 190,166 -22,-7 -43,-14 -64,-23zm-111 5l0 0 6 -3c5,-2 9,-4 13,-6l3 -6c18,10 37,19 56,27 -4,14 -14,26 -26,35 -8,-7 -16,-14 -23,-20l7 -3 5 -7 2 -8 -7 -5 -3 2 -1 4 0 0 0 1 0 0 -1 0 0 1 -1 1 0 1 -1 0 -1 1 -1 1 -2 0 0 0 -2 1 -2 0 0 0 0 0 -1 -1 -2 0 -2 -1c-6,-5 -11,-10 -16,-15zm-142 -67c-43,-27 -95,-40 -143,-50 -46,-11 -94,-19 -139,-35 -20,-7 -40,-15 -58,-25 -13,-7 -24,-16 -36,-24 -3,-8 -6,-15 -9,-22 46,24 103,34 150,41 42,7 84,13 125,25 25,7 48,18 70,29 14,20 27,40 40,61zm137 211c-65,-31 -143,-30 -210,-50 -45,-13 -89,-31 -131,-54 -22,-13 -45,-27 -66,-42l-8 -7c-18,-30 -34,-60 -50,-90 -12,-25 -24,-51 -36,-76 19,12 39,21 58,28 38,15 78,23 118,31 64,13 140,25 198,64 42,65 84,131 127,196zm-400 -127c14,10 28,19 43,27 41,23 84,42 129,56 42,13 85,20 128,27 37,6 75,14 109,31 13,21 27,42 41,63 -53,-25 -117,-29 -169,-37 -97,-14 -200,-44 -260,-132 -7,-12 -14,-23 -21,-35zm61 97c50,41 114,63 177,75 48,10 98,12 147,23 30,7 56,18 80,33 8,12 16,23 24,35 -56,-28 -119,-39 -179,-48 -45,-7 -90,-12 -134,-25 -22,-7 -44,-16 -63,-29 -4,-2 -8,-5 -12,-8 -13,-19 -27,-37 -40,-56zm62 85c48,24 107,32 151,38 77,11 155,22 225,58 13,19 26,37 39,56 -48,-23 -99,-36 -152,-41 -42,-5 -85,-6 -127,-17 -21,-6 -41,-14 -59,-25 -18,-10 -31,-24 -46,-38l-6 0c-8,-10 -16,-21 -25,-31zm118 351c-33,-42 -48,-95 -53,-147 -3,-29 0,-62 -4,-93 12,12 24,25 36,37l-4 5c1,11 5,22 8,33 2,10 4,20 7,30 5,21 10,42 15,63 8,31 18,65 45,86 -17,-4 -34,-9 -50,-14zm-359 -218c-5,-34 -10,-68 -12,-103 -3,-44 4,-87 14,-129 16,-61 34,-122 31,-186 7,15 15,29 22,43 -3,0 -6,5 -3,8l8 9c5,83 -27,160 -36,241 -7,62 5,123 37,173 -21,-18 -41,-36 -61,-56zm-120 -152c-40,-95 -44,-199 -9,-293 18,-47 41,-91 52,-140 4,-19 8,-42 7,-65 6,15 12,30 18,45 -5,-4 -12,3 -8,8 6,6 12,12 18,17 19,45 39,89 61,133 12,81 -15,155 -32,232 -15,70 -9,137 5,207 -42,-43 -80,-90 -114,-140l2 -4zm-138 -332c-2,-79 32,-153 61,-222 16,-37 30,-74 39,-113 3,-16 7,-36 8,-55l2 2c5,14 10,29 15,44 -4,0 -7,3 -5,7 3,6 8,12 13,18 2,6 4,13 7,20 9,54 10,108 1,162 -8,48 -25,92 -42,137 -15,41 -31,83 -38,127 -3,14 -6,35 -6,56 -25,-59 -43,-121 -55,-183zm30 -663l-1 3 -7 -1 -4 -1 -5 -8c3,2 7,3 10,4l3 -1 2 0 2 4zm-22 -374c12,-87 16,-178 16,-266 1,-101 -5,-201 -16,-302l0 -2c13,-3 27,-8 39,-15 -2,104 2,209 1,313 -1,81 -4,163 -21,242 -5,16 -10,31 -14,47 -1,-5 -3,-11 -5,-17zm-554 -696c14,2 28,5 41,8 30,112 64,223 101,332 20,59 41,118 63,176 22,58 43,118 71,173 8,25 17,49 26,73 -24,-30 -48,-59 -73,-89 -49,-92 -83,-194 -116,-291 -44,-126 -81,-253 -113,-382zm-14 -2c32,131 71,261 116,388 24,68 50,136 78,203 7,17 14,34 22,51 -22,-27 -44,-53 -66,-80 -11,-28 -20,-57 -30,-84 -19,-53 -37,-106 -54,-160 -18,-56 -36,-113 -52,-170 -14,-49 -24,-102 -42,-150 9,0 19,1 28,2zm-60 98c-6,-34 -15,-66 -27,-98 16,-2 32,-3 48,-2l0 1c8,55 28,111 44,164 16,55 33,111 51,166 18,55 38,109 58,164 6,15 12,31 18,47 -16,-20 -32,-39 -48,-59 -11,-27 -21,-54 -32,-80 -7,-18 -14,-36 -21,-54 -7,-16 -13,-33 -22,-48 -2,-5 -10,-1 -9,4 4,17 12,34 19,51 7,17 15,34 22,51 7,17 14,33 21,50 -8,-8 -19,-6 -24,1 -63,-146 -122,-294 -171,-446 11,-3 22,-6 34,-8 12,32 22,64 30,97 2,6 10,5 9,-1zm175 -19c2,-9 2,-19 1,-29 -1,-5 -2,-10 -4,-15 0,-4 -2,-7 -3,-10 101,33 202,85 301,105 49,11 99,12 146,1l0 1c11,102 17,205 16,307 0,78 -6,156 -11,233 -6,-20 -13,-40 -20,-60 1,-32 2,-64 0,-96 -1,-19 -2,-38 -4,-57 0,-9 -1,-18 -2,-28 -1,-8 -1,-17 -4,-25 -2,-5 -9,-3 -10,1 -1,8 1,18 2,26 0,9 1,18 2,27 1,18 3,36 3,54 2,23 3,46 4,70 -51,-136 -124,-263 -217,-375 -11,-13 -33,-6 -30,12 9,50 1,98 -9,146l0 -2c-6,-9 -11,-19 -15,-29 -5,-10 -7,-20 -11,-30 -1,-5 -10,-4 -9,1l0 9 3 9c1,5 3,10 6,16 2,5 5,11 8,15 3,5 7,10 11,14l7 0c-2,8 -4,17 -5,26 -8,37 -12,73 -12,110 -9,-29 -18,-58 -27,-87 -8,-22 -15,-44 -22,-67 -7,-21 -13,-43 -22,-64 -3,-5 -12,-3 -10,3 5,22 13,44 21,66 7,21 14,43 21,64 13,37 27,75 40,112 0,8 0,16 1,23 2,24 7,48 12,71 -14,-36 -29,-71 -42,-107 -21,-56 -41,-113 -61,-170 -37,-111 -71,-223 -101,-336 9,2 19,5 28,8l0 2c1,5 3,10 5,14 1,4 3,9 4,13 2,9 4,18 4,28 0,3 5,4 5,0zm765 717c8,-32 14,-65 16,-99l1 0c4,-2 8,-4 11,-7 4,-1 2,-6 -2,-5l-1 0c57,-91 96,-194 120,-300 2,-8 -11,-10 -12,-2 -24,105 -64,203 -116,296 1,-18 1,-37 1,-55l0 -1c17,-28 30,-58 41,-89 6,-16 11,-32 15,-48 2,-8 4,-16 6,-24 2,-8 4,-15 4,-22 -1,-6 -9,-6 -11,-2 -3,7 -3,16 -5,23 -2,8 -4,17 -6,25 -4,15 -9,30 -14,45 -9,26 -19,51 -31,76 -6,-125 -41,-256 -73,-367 -3,-11 -17,-18 -24,-7 -82,115 -147,241 -194,376 9,-58 11,-118 12,-177 2,-108 6,-217 1,-324 19,-11 36,-24 52,-40 58,-61 83,-155 65,-242 62,84 125,177 214,233 51,32 107,46 162,45 -6,116 -34,228 -75,335 -41,110 -96,212 -146,318l5 3c117,-195 216,-421 228,-657 12,-1 24,-2 36,-5 -7,29 -7,60 -12,89 -5,37 -12,73 -21,109 -16,64 -36,126 -62,186 -47,115 -112,216 -185,314zm232 -726c-116,7 -205,-76 -276,-163 -44,-55 -85,-113 -133,-164 -4,-8 -9,-15 -14,-22 100,47 187,122 250,216 2,4 7,-1 5,-4 -63,-100 -153,-178 -257,-227 3,-3 4,-8 3,-14l-1 -2 5 -7c149,32 277,131 357,265l5 -2c-72,-139 -208,-240 -355,-275 4,-6 8,-12 12,-18 31,-4 63,-9 95,-10 55,-1 110,3 164,17 109,27 212,94 271,195l5 -3c-55,-103 -154,-171 -262,-201 -55,-16 -112,-22 -168,-21 -31,0 -62,1 -94,5 3,-4 5,-8 8,-12 62,-7 123,-15 185,-20 68,-6 136,-5 203,13 3,1 5,-5 1,-6 -64,-23 -131,-25 -197,-20 -61,3 -121,11 -182,18l3 -5 6 -6 10 -6c5,-1 10,-3 16,-4 25,-6 50,-11 75,-15 49,-8 99,-12 149,-13 105,-3 212,10 316,36l0 -4c-103,-29 -208,-44 -313,-44 -49,1 -97,4 -145,10 119,-30 242,-40 368,-31 39,3 79,5 118,2 44,-4 86,-15 130,-17 84,-4 168,28 234,85 4,2 7,-3 4,-6 -60,-55 -136,-88 -215,-91 -42,-1 -83,7 -124,13 -48,7 -97,6 -146,2 -136,-11 -269,0 -396,35 56,-31 114,-59 174,-83 97,-37 200,-62 305,-64 54,-1 108,7 162,4 52,-2 101,-16 149,-31 101,-30 198,-42 302,-4 93,34 173,97 230,180 3,4 9,0 6,-5 -56,-94 -151,-163 -253,-194 -97,-30 -187,-20 -280,7 -61,18 -121,35 -186,34 -56,-2 -111,-7 -167,-4 -148,9 -286,60 -415,127 77,-54 157,-104 244,-140 107,-44 213,-56 329,-53 49,1 96,-2 143,-15 57,-15 110,-39 168,-50 95,-19 196,-8 289,29 96,37 172,99 240,177l5 -4c-62,-92 -165,-158 -267,-193 -90,-31 -187,-39 -278,-20 -55,12 -107,34 -162,49 -64,17 -128,13 -194,11 -199,-4 -377,87 -532,200 17,-16 34,-31 52,-47 65,-49 133,-93 206,-130 105,-54 219,-100 340,-108 56,-3 113,1 169,0 53,0 104,-6 155,-14 99,-17 202,-38 304,-7l1 -4c-84,-29 -168,-21 -252,-9 -88,13 -173,23 -263,21 -92,-3 -181,1 -269,27 -89,28 -177,67 -259,115l8 -6c26,-18 52,-35 78,-51 123,-78 259,-151 403,-183 70,-16 138,-11 210,2 62,12 121,13 183,4 63,-10 124,-26 188,-31 60,-5 121,0 180,15 123,30 237,100 324,197l4 -4c-88,-105 -210,-178 -341,-208 -57,-13 -116,-17 -174,-12 -67,5 -131,22 -198,31 -74,10 -142,-3 -217,-14 -66,-10 -130,-3 -194,14 -72,20 -141,48 -208,80 80,-51 163,-96 254,-125 103,-33 206,-37 314,-23 52,7 104,14 156,12 56,-1 112,-7 168,-7 191,2 387,73 517,228l5 -4c-68,-87 -160,-148 -261,-186 -88,-34 -183,-49 -275,-49 -61,1 -122,9 -183,7 -60,-1 -120,-13 -180,-19 -145,-14 -282,24 -407,88 69,-63 149,-110 235,-137l4 2c10,-4 20,-7 30,-11 80,-20 165,-24 252,-10 91,14 180,39 272,38 86,-1 177,-17 257,29l3 -5c-76,-45 -162,-35 -243,-33 -105,2 -205,-29 -309,-44 -52,-8 -104,-8 -156,-2 68,-23 138,-41 212,-34 48,5 95,18 142,29 47,11 95,18 143,23 97,11 195,13 292,24 182,19 380,78 493,241l3 -2c-57,-88 -141,-148 -236,-187 -189,-78 -392,-64 -589,-91 -99,-13 -199,-53 -299,-49 -75,3 -148,25 -216,54 -40,8 -79,20 -116,36 70,-41 144,-77 222,-101 94,-30 198,-46 297,-16 41,12 81,29 124,36 37,5 75,3 112,-3 84,-13 164,-46 249,-55 85,-8 173,10 253,45 88,39 167,98 234,167 74,75 131,162 191,248 3,3 9,0 7,-4 -102,-190 -268,-370 -471,-441 -79,-29 -163,-39 -245,-26 -87,14 -169,48 -257,55 -97,8 -182,-47 -278,-53 -91,-6 -184,16 -267,48 -189,71 -353,200 -515,316 -61,44 -122,89 -182,135 -13,10 -27,19 -41,29 106,-99 215,-195 330,-284 137,-107 284,-226 459,-263 86,-18 168,-6 255,14 40,10 81,18 122,19 44,1 87,-7 129,-18 77,-18 153,-34 234,-36 80,-1 161,8 240,27 158,38 307,118 431,229l3 -4c-134,-126 -302,-210 -478,-245 -77,-16 -156,-21 -234,-17 -87,5 -168,32 -254,46 -94,16 -181,-16 -274,-32 -81,-14 -161,-6 -237,19 -172,55 -318,177 -456,288 -135,108 -266,222 -388,345l-1 1c36,-53 74,-105 114,-155 54,-60 112,-118 173,-172 113,-103 236,-201 370,-276 133,-75 279,-97 434,-91 134,6 274,41 407,21 119,-18 236,-95 360,-56 3,1 5,-3 2,-5 -136,-48 -263,42 -395,52 -75,6 -151,-5 -227,-14 -70,-7 -140,-14 -210,-13 -153,0 -290,37 -417,117 -135,83 -259,184 -374,292l-3 3c73,-79 150,-155 232,-225 142,-121 309,-257 504,-275 102,-9 195,30 295,50 88,18 176,7 262,-13 88,-19 174,-46 265,-54 88,-8 177,6 261,40 167,66 307,200 396,357l5 -2c-94,-175 -251,-320 -438,-381 -82,-27 -166,-35 -250,-25 -95,12 -185,42 -278,59 -49,10 -98,16 -148,14 -51,-2 -101,-15 -151,-29 -97,-27 -189,-43 -286,-20 -191,44 -356,184 -498,311 -81,74 -158,152 -230,235 76,-94 155,-186 237,-275 92,-100 187,-197 288,-288 93,-84 198,-152 330,-126 56,12 110,33 165,47 53,13 107,17 160,10 111,-14 211,-64 314,-102 107,-38 215,-56 330,-30 110,26 213,84 298,161 106,95 183,221 238,352 49,117 99,257 83,383 -8,60 -35,118 -82,154 -53,41 -116,35 -179,17 -124,-36 -242,-95 -369,-121 -109,-23 -227,-22 -323,33 -105,62 -155,180 -244,260 -91,81 -213,88 -331,68 -59,-9 -117,-25 -175,-41 -55,-16 -111,-32 -167,-27 -126,12 -182,134 -243,228 -60,92 -150,169 -263,175zm-488 -413l6 -3c2,4 3,8 5,12 -4,-3 -7,-6 -11,-9zm215 -190l1 3 -9 7c2,-3 5,-7 8,-10zm-188 68l-1 0 0 0 1 0zm0 -46c-2,9 -4,18 -6,26 -2,-7 -4,-13 -6,-20 4,-16 8,-32 11,-49 0,12 0,25 1,37l0 6zm539 -259c29,-22 59,-43 88,-64 37,-26 74,-52 112,-79 -7,6 -13,12 -19,18l2 7c-55,29 -107,63 -157,100l-1 3c-8,5 -17,10 -25,15zm-585 311c7,16 13,32 19,49 -5,-12 -10,-23 -15,-35 -1,-5 -3,-10 -4,-14zm846 -850c-5,5 -10,9 -14,14 -24,23 -48,47 -71,71 36,-68 64,-141 90,-214 130,-364 209,-789 523,-1036 9,-7 -2,-21 -11,-14 -80,66 -148,146 -205,234 -104,162 -168,347 -228,532 -56,178 -109,362 -196,526 -46,47 -91,95 -135,144 75,-157 139,-323 186,-490 2,-7 -8,-12 -10,-5 -32,96 -63,191 -99,285 -31,79 -65,157 -99,235 -12,13 -23,26 -34,39 -13,14 -25,29 -38,44 30,-58 53,-119 73,-180 62,-185 108,-376 173,-561 68,-192 147,-380 236,-562 4,-8 -10,-14 -14,-6 -48,102 -94,205 -137,310 -75,184 -140,374 -195,566 -45,161 -89,320 -165,467 -29,34 -57,69 -85,104 35,-71 65,-145 90,-221 181,-532 188,-1201 652,-1572 8,-7 -3,-21 -11,-14 -117,94 -208,215 -280,348 -249,465 -245,1037 -486,1504 -6,7 -11,14 -17,21 39,-89 67,-182 89,-278 106,-466 61,-992 325,-1402 6,-9 -8,-19 -13,-10 -71,111 -121,235 -156,363 -121,444 -80,933 -266,1355 -12,16 -24,32 -36,48 46,-128 76,-261 97,-397 82,-531 40,-1107 319,-1577 5,-8 -7,-18 -12,-9 -76,123 -129,261 -167,403 -140,524 -74,1094 -256,1607 -3,3 -5,6 -8,10 30,-92 49,-190 67,-285 38,-201 58,-406 61,-612 4,-202 -26,-406 -1,-606 1,-8 -11,-11 -13,-4 -23,105 -13,218 -6,326 12,209 9,418 -13,625 -11,101 -26,201 -46,301 -18,93 -44,183 -64,276 -13,18 -26,36 -39,54 40,-134 70,-272 91,-412 22,-141 35,-285 39,-429 4,-154 -5,-309 -9,-464 -3,-147 1,-294 29,-437 26,-140 72,-275 133,-401 4,-9 -10,-15 -15,-7 -66,139 -113,287 -138,441 -49,295 -2,600 -13,899 -9,283 -57,560 -131,830 -19,29 -39,57 -58,86l-2 2c56,-146 87,-302 104,-459 41,-362 13,-730 44,-1093 28,-331 56,-687 258,-954 6,-8 -7,-19 -14,-11 -109,132 -163,305 -196,474 -67,353 -75,717 -79,1079 -3,328 -18,656 -125,961 40,-141 57,-292 66,-438 20,-339 -14,-682 -13,-1022 2,-336 36,-685 194,-978 6,-12 -10,-21 -16,-10 -81,160 -132,335 -160,515 -52,333 -29,676 -18,1015 6,173 8,347 -4,519 -11,152 -39,296 -76,441l-3 1 1 7c-1,4 -2,7 -3,11l-5 4 -8 6c-5,3 -3,9 1,12l-2 3c-4,-16 -8,-32 -13,-49 34,-122 52,-250 61,-378 19,-278 1,-561 -13,-841 -8,-151 -17,-302 -27,-452 -10,-135 -32,-279 19,-405 3,-8 -11,-14 -14,-6 -51,131 -28,280 -18,418 22,305 38,611 46,916 6,244 -2,490 -60,725 -1,-4 -2,-7 -3,-11 3,-18 3,-35 4,-53 23,-88 32,-181 35,-272 8,-216 -17,-434 -35,-650l-63 -746c-1,-10 -16,-8 -15,2l36 410c20,232 43,464 58,695 8,106 11,213 6,318 -4,62 -12,123 -23,183 0,-17 0,-35 -1,-52 5,-47 8,-95 10,-140 17,-407 -112,-807 -140,-1212 -1,-11 -16,-9 -16,1 9,118 26,235 45,352 33,198 74,396 91,597 9,97 12,194 7,291 -1,10 -2,20 -3,30 -7,-87 -18,-174 -33,-260 -115,-659 -441,-1398 -114,-2024 6,-10 -11,-17 -16,-7 -79,153 -120,325 -133,500 -26,347 57,694 140,1033 43,173 86,346 116,521 15,89 26,178 33,267 1,10 1,21 2,31 -2,16 -4,32 -6,48l-2 9c0,-114 -17,-229 -40,-340 -63,-309 -159,-613 -244,-917 -81,-288 -145,-596 -63,-884 3,-9 -11,-15 -14,-6 -42,147 -47,302 -30,456 17,153 56,304 98,453 46,159 92,318 135,478 70,259 143,520 145,786 -6,-19 -12,-38 -18,-56 -4,-102 -21,-205 -41,-304 -42,-207 -117,-404 -193,-601 -77,-199 -150,-402 -171,-613 0,-9 -14,-8 -13,1 11,114 37,226 72,337 63,201 150,395 217,595 35,106 64,213 84,322 14,72 22,145 30,218 -11,-32 -22,-64 -34,-95 -12,-177 -69,-350 -134,-517 -75,-193 -164,-382 -225,-581 -2,-9 -16,-4 -13,5 111,359 310,692 362,1064 -80,-212 -174,-421 -257,-632 -52,-131 -100,-264 -137,-400 4,0 8,-6 5,-12 -5,-8 -10,-17 -15,-26 -47,-180 -74,-364 -64,-550 11,-184 59,-361 139,-523 43,-87 99,-174 184,-223 69,-39 159,-51 234,-11 74,40 119,124 200,153 61,22 123,8 179,-17 65,-29 125,-70 192,-93 80,-27 162,-12 236,31 85,48 150,124 213,197 61,72 124,141 198,199 99,77 215,140 336,176l-2 0c-70,10 -132,51 -181,99 -110,107 -183,252 -242,394 -62,148 -110,302 -175,449 -39,90 -85,174 -141,251zm485 -952c9,-11 17,-23 25,-35 44,-57 94,-111 158,-144 57,-29 146,-47 198,10 39,43 -1,97 -34,125 -29,25 -65,40 -102,49 -80,17 -164,8 -245,-5zm3405 4775c-27,28 -54,55 -82,82 -54,-9 -109,-14 -163,-13 19,-13 38,-26 57,-38l2 3c10,0 20,-2 30,-2 10,0 21,1 31,4 3,1 5,-4 2,-5 -11,-4 -22,-6 -33,-6 -10,-1 -21,0 -30,4 120,-79 242,-156 367,-229 -59,68 -119,136 -181,200zm190 -229c-73,43 -146,87 -218,132 2,-6 5,-13 8,-19 3,-6 5,-13 8,-20l4 -10c1,-3 3,-7 3,-10 1,-4 -3,-5 -5,-3 -3,3 -4,7 -6,10l-4 9c-3,7 -6,13 -9,20 -3,7 -6,13 -8,20 -2,4 -3,7 -5,11 -26,16 -51,33 -77,49 8,-20 16,-40 25,-60 5,-12 11,-25 17,-37 6,-13 14,-25 19,-38l0 -1c81,-24 164,-42 248,-53zm-322 77c-6,12 -10,25 -15,37 -6,16 -12,31 -18,47 -8,24 -17,49 -25,74 -33,21 -66,43 -98,65l-7 0c-3,0 -4,3 -3,6l-9 7c4,-11 9,-21 12,-32 2,-5 -5,-10 -8,-5 -6,12 -11,24 -16,37 -2,3 -3,7 -4,10 -21,14 -42,28 -62,42 13,-26 24,-53 31,-81 4,-20 8,-40 9,-61 1,-10 1,-20 1,-30 0,-8 0,-15 -1,-22 68,-37 140,-68 213,-94zm-170 425c-37,-7 -74,-12 -111,-15 -20,-1 -40,-2 -61,-2 -13,0 -27,-1 -41,0 20,-14 39,-28 59,-42 5,-1 11,-1 16,-2 10,-1 19,-1 29,-2 21,-1 41,-1 62,-1 38,1 76,5 113,11 -22,18 -44,36 -66,53zm132 -109c-19,17 -39,34 -59,50 -41,-8 -81,-13 -123,-15 -20,0 -40,0 -60,1 -9,0 -17,1 -26,1 26,-18 52,-37 79,-55 7,1 15,0 23,-1 8,0 17,-1 25,-1 18,0 35,0 53,2 30,2 59,9 88,18zm-184 -218c0,6 0,13 0,19 0,10 -1,19 -2,29 -1,20 -4,39 -9,58 -8,34 -20,66 -37,96 -15,10 -30,21 -45,32 32,-62 47,-133 42,-205 17,-10 34,-20 51,-29zm-62 35c5,74 -12,147 -47,210 -14,10 -28,20 -42,30 9,-21 17,-43 22,-66 6,-23 11,-47 14,-71 4,-24 9,-50 9,-75l-1 0c15,-10 30,-19 45,-28zm239 16c7,-20 15,-41 22,-61 6,-15 12,-31 19,-47 5,-14 13,-29 17,-45l-1 0c16,-6 32,-11 48,-16 -5,9 -10,19 -14,28 -7,13 -13,25 -18,38 -11,24 -20,49 -28,74 -15,10 -30,20 -45,29zm13 161c-30,-10 -62,-17 -93,-21 -18,-2 -36,-3 -54,-3 -9,0 -18,1 -27,2l-6 0c4,-3 8,-6 13,-9l6 -2 0 -2c21,-15 42,-29 63,-43 58,-1 116,1 174,8 -25,24 -50,47 -76,70zm-640 -527c10,-27 20,-53 30,-80 7,0 14,-5 20,-8 8,-4 16,-8 24,-12 15,-9 29,-18 43,-29 9,-6 18,-14 27,-21 -19,22 -38,44 -57,66 -28,29 -57,57 -87,84zm304 -390c-11,21 -23,41 -35,61 -17,17 -32,38 -50,56 -17,18 -36,35 -55,50 -19,16 -39,31 -60,44 -16,10 -32,19 -48,29 16,-44 32,-88 49,-132 18,-10 35,-20 52,-31 10,-6 19,-13 28,-19 9,-6 19,-12 27,-20 3,-3 0,-10 -5,-8 -9,5 -18,12 -26,18 -10,6 -19,12 -28,18 -15,10 -29,19 -43,28 4,-10 7,-20 11,-30 6,-16 12,-31 18,-47 53,-18 104,-43 150,-75 26,-18 50,-37 73,-59 -18,40 -37,79 -58,117zm284 -906c-4,10 -8,19 -13,28 -13,23 -28,45 -45,66 -29,35 -63,65 -99,92 18,-44 36,-88 54,-132 41,-96 88,-190 123,-289 8,-5 15,-10 23,-15 -13,84 -28,167 -43,250zm-136 564c-16,47 -34,93 -52,139 -13,14 -26,28 -39,40 -22,20 -45,39 -68,56 -44,33 -91,58 -139,84 13,-33 25,-66 38,-99 30,-11 60,-29 86,-47 32,-22 62,-46 89,-72 32,-31 60,-65 85,-101zm99 -370c-3,14 -6,29 -10,43 -32,47 -66,92 -107,132 -37,38 -77,71 -119,101 9,-23 18,-46 28,-69 50,-29 95,-66 134,-109 27,-29 52,-62 74,-98zm-126 6c43,-26 80,-59 112,-98 16,-20 31,-42 44,-64 -1,5 -2,11 -3,16 -3,6 -5,12 -8,17 -6,11 -13,21 -19,31 -14,21 -30,41 -46,59 -29,32 -62,59 -98,82 6,-14 12,-29 18,-43zm-107 -205c-32,61 -41,138 -40,204 0,45 5,89 12,134 7,41 17,83 13,124 -23,56 -45,113 -67,169 4,-33 3,-66 -2,-99 -4,-26 -11,-50 -18,-75 -4,-12 -7,-25 -9,-37 -2,-13 -2,-26 -4,-38 -1,-3 -6,-5 -7,-1 -7,21 2,48 7,69 7,24 15,48 20,72 8,45 8,89 3,133 -3,10 -7,20 -11,30 9,-77 -22,-157 -39,-233 -13,-56 -17,-114 -13,-171 2,-30 6,-61 13,-90 4,-16 10,-32 15,-48 39,-50 82,-98 127,-143zm89 208l-1 2c-8,18 -15,36 -22,54l-1 2c-17,41 -34,82 -50,123 5,-51 4,-104 -1,-155l-3 -5 -1 0 -3 0 -2 1 -1 5c6,58 5,116 2,175 -4,10 -8,20 -12,31 0,-29 -4,-57 -9,-86 -8,-45 -14,-91 -15,-137 -1,-45 2,-90 13,-133 10,-42 28,-78 47,-116 32,-30 65,-58 99,-85 -32,78 1,171 -11,255 -10,23 -20,46 -29,69zm51 -122c-4,8 -7,17 -11,25 5,-82 -25,-172 21,-244l0 0c13,-10 25,-19 38,-29 -9,11 -14,27 -16,39 -5,20 -10,40 -14,61 -4,21 -7,43 -8,65 -1,20 1,39 0,58 -4,9 -7,17 -10,25zm130 -304c-43,84 -77,174 -113,261 1,-12 1,-23 1,-35 1,-20 4,-40 7,-60 4,-21 9,-41 14,-62 2,-8 5,-17 8,-26 5,-9 11,-14 17,-22 3,-4 -1,-9 -5,-7l-1 0c24,-17 48,-33 72,-49zm-28 374c-26,46 -52,90 -88,130 -36,41 -79,76 -124,107 4,-11 9,-23 13,-34 14,-33 27,-65 41,-98 40,-21 77,-50 109,-84 18,-19 35,-40 50,-62 3,-5 6,-10 9,-15 -3,19 -6,37 -10,56zm-93 365c-31,54 -70,104 -115,147 -25,23 -52,45 -81,65 -24,16 -49,28 -74,42 7,-18 14,-37 22,-56 18,-8 36,-20 52,-33 9,-6 18,-14 26,-21 9,-8 19,-15 25,-25 3,-5 -2,-10 -7,-7 -9,6 -17,15 -25,22 -8,8 -17,15 -26,22 -13,10 -27,20 -40,29 28,-72 57,-145 86,-217 85,-53 164,-127 223,-211 -11,47 -23,93 -35,139l-3 6c-5,11 -11,21 -17,31 -13,21 -27,40 -44,58 -3,3 1,9 5,6 17,-16 33,-34 46,-54 -6,19 -12,38 -18,57zm-181 322c-45,32 -94,58 -145,78 3,-8 6,-15 9,-23 53,-20 102,-50 147,-83 24,-18 48,-37 71,-57 6,-6 12,-12 19,-18 -4,8 -7,16 -11,24 -8,9 -16,18 -25,26 -20,19 -42,37 -65,53zm-163 -606c14,-22 30,-44 46,-65 -2,6 -3,12 -4,18 -6,25 -10,51 -13,77 -4,52 -2,104 7,156 18,99 65,198 42,298 -9,22 -17,45 -26,68l-1 2c-13,34 -25,67 -38,101 2,-29 0,-58 -5,-86 -4,-22 -9,-44 -15,-66 -3,-10 -6,-19 -9,-29 -3,-10 -6,-20 -11,-29 -3,-4 -8,-1 -8,4 1,9 6,19 9,29 3,10 7,20 10,31 5,20 10,40 14,61 7,37 10,73 6,110 -15,39 -29,79 -44,119 5,-59 -8,-122 -27,-177 -20,-61 -47,-119 -67,-180 -17,-51 -24,-98 -24,-149 12,-29 25,-58 38,-86 -7,74 17,156 40,225 32,93 98,219 51,314l4 2c46,-79 3,-181 -24,-262 -20,-58 -40,-115 -50,-175 -9,-52 -6,-100 3,-151 29,-56 61,-109 96,-160zm-58 849c-5,13 -9,27 -14,40 -2,4 -4,8 -6,12 6,-68 -10,-137 -34,-203 -19,-51 -45,-100 -64,-151 -11,-27 -20,-55 -23,-84 -2,-28 2,-52 7,-78 5,-17 11,-34 18,-51 7,79 44,160 72,229 37,92 68,193 44,286zm-31 124c5,-15 11,-31 17,-46 44,-18 84,-48 120,-77 21,-17 40,-35 59,-54l1 -1c-15,22 -30,43 -45,64 -6,5 -12,11 -17,17 -7,6 -13,12 -20,18 -13,11 -26,22 -39,32 -14,10 -28,19 -42,27 -8,6 -17,11 -25,16l-9 4zm-124 -520c2,21 7,42 12,61 15,50 41,97 61,145 37,85 64,177 53,267l-1 0 0 4 -1 8c-4,10 -8,22 -12,32 2,-18 2,-36 1,-54 -2,-17 -4,-35 -8,-51 -2,-8 -4,-16 -6,-24 -2,-7 -3,-16 -10,-20l-4 1c-2,7 2,13 4,20 2,8 5,17 7,25 3,16 6,32 7,49 3,29 2,59 -2,88 -7,20 -14,40 -21,60 -2,-52 -29,-104 -50,-151 -34,-75 -65,-150 -59,-232 0,-6 -6,-8 -10,-6 6,-75 19,-149 39,-222zm27 663c-22,-59 -39,-121 -51,-183l1 1c11,16 22,33 32,50 21,35 38,72 45,111 -9,7 -18,14 -27,21zm-68 -389c5,55 25,109 48,159 26,59 68,126 67,192 -5,4 -9,8 -14,12 -6,-37 -20,-72 -39,-105 -10,-18 -21,-35 -32,-52 -6,-9 -12,-18 -18,-27l0 0c-9,-60 -13,-119 -12,-179zm-993 204c-15,14 -31,28 -47,41 -43,18 -90,26 -138,22 -29,-2 -59,-8 -89,-6 -9,1 -19,3 -28,6 15,-17 30,-34 45,-51l2 -2 0 -1c13,-14 25,-28 37,-42 84,-43 201,-7 290,-36 -23,24 -47,47 -72,69zm604 -1019c-29,118 -67,233 -116,343l-4 7c-34,25 -78,38 -120,46 -26,6 -52,10 -78,16 -11,3 -22,5 -33,9 20,-24 39,-48 59,-72l2 -2 1 -1c32,-39 65,-78 98,-118l3 -2 0 -2c63,-75 125,-149 188,-224zm9 -40c-65,79 -130,157 -194,235 2,-24 5,-48 10,-72 4,-17 8,-34 13,-51 3,-8 6,-16 8,-24 3,-7 7,-15 8,-23 0,-4 -5,-6 -7,-3 -6,6 -8,16 -11,24 -3,8 -5,16 -8,24 -5,16 -9,33 -12,49 -6,28 -8,57 -9,86 -20,24 -40,49 -61,74 -9,11 -18,22 -27,33 18,-91 23,-185 46,-275 81,-46 166,-87 254,-122 -3,15 -7,30 -10,45zm-328 127c-11,51 -7,107 -9,158 -1,53 -7,106 -26,154 -42,51 -84,102 -126,153 7,-19 12,-38 15,-58 2,-16 3,-33 3,-49 0,-8 0,-16 0,-24 -1,-7 0,-16 -4,-22l-6 0c-2,7 0,15 1,22 0,9 1,17 1,26 0,15 -1,31 -3,46 -4,25 -10,49 -18,73 -11,14 -23,28 -35,42l0 0c17,-54 18,-113 18,-170 -1,-39 -2,-78 1,-117 2,-18 4,-37 8,-55 4,-20 14,-38 19,-58l-4 -7c53,-41 108,-79 165,-114zm-842 990c1,14 2,28 3,42 2,28 3,57 3,85 -1,45 0,95 -21,135 -28,25 -56,51 -84,77 -5,2 -10,4 -15,6 28,-118 66,-234 114,-345zm266 13c17,-4 34,-5 52,-4 28,2 57,7 86,6 31,-2 62,-8 90,-18 -26,22 -53,44 -81,64 -37,13 -79,13 -119,13 -34,0 -71,-1 -106,7l1 -1 1 -5 7 -6c12,-14 24,-27 36,-40 10,-7 20,-13 33,-16zm-82 69l1 -1 0 1 -1 0zm-61 -328c-3,21 -3,43 -2,63 2,36 8,71 14,106 10,63 19,131 -1,192 -26,27 -53,55 -81,81l-4 3 -1 3 -8 7c11,-48 17,-97 16,-147 -1,-29 -3,-57 -8,-86 -2,-14 -5,-28 -8,-43 -1,-5 -2,-10 -3,-16 26,-55 55,-110 86,-163zm-94 180l0 3c3,13 6,27 8,40 5,28 8,56 9,84 1,53 -3,106 -14,157l-5 5c-9,8 -18,16 -26,24 13,-35 14,-76 14,-114 1,-29 0,-59 -1,-88 -1,-15 -2,-31 -3,-46 -1,-7 -1,-14 -2,-20 7,-15 13,-30 20,-45zm144 -261c1,15 4,31 7,44 7,39 14,78 18,117 8,75 8,151 -10,223 -7,8 -14,16 -22,24 -3,4 -7,8 -11,12 -3,1 -7,3 -10,5 14,-49 10,-103 2,-155 -5,-36 -12,-72 -15,-109 -1,-19 -2,-39 0,-59 1,-17 5,-33 8,-50 11,-17 22,-35 33,-52zm25 373c15,-62 18,-126 13,-192 -4,-40 -10,-80 -17,-120 -3,-19 -7,-37 -8,-56 -1,-8 -1,-16 -1,-24 81,-123 174,-237 277,-340 -9,25 -12,54 -13,79 -2,46 6,92 11,137 6,51 8,101 -1,150 -6,35 -17,69 -31,101 -5,6 -10,12 -15,18 -18,21 -36,43 -54,64l-6 5 -2 4c-9,11 -19,23 -29,34l-6 4c9,-32 15,-66 17,-99 1,-25 0,-49 -2,-73 -2,-24 -5,-49 -13,-72 -2,-5 -9,-3 -9,2 4,24 10,47 12,71 3,24 3,48 2,72 -2,40 -8,79 -20,117 -34,40 -69,79 -105,118zm507 -254c-20,23 -40,44 -61,65 -86,37 -198,1 -288,32 6,-6 12,-13 17,-20 13,-5 25,-10 40,-12 17,-3 35,-3 53,-4 37,0 73,-3 108,-11 35,-8 69,-20 102,-35 8,-4 19,-9 29,-15zm251 -352c-8,14 -16,28 -24,42 -56,31 -118,51 -180,65 -32,7 -64,12 -96,21 -14,4 -33,10 -48,20 13,-16 27,-33 40,-49 101,-35 223,-32 308,-99zm-288 -309c-8,14 -12,32 -16,47 -4,17 -7,34 -8,52 -4,38 -4,77 -3,116 2,68 3,139 -20,202 -40,48 -79,96 -119,143 23,-62 18,-135 13,-200 -4,-51 -9,-102 -1,-151 3,-23 9,-45 17,-66 5,-11 11,-22 17,-31 6,-8 13,-15 16,-25l0 0c34,-30 69,-59 104,-87zm-137 116c-1,3 -3,7 -4,9 -9,18 -15,37 -20,56 -10,44 -9,90 -6,136 6,91 20,185 -18,267 -14,16 -28,33 -42,50 27,-62 37,-131 32,-200 -4,-52 -14,-103 -13,-155 0,-22 1,-43 6,-64 4,-21 13,-39 21,-57 15,-14 30,-28 44,-42zm470 110c-11,22 -22,43 -34,64 -84,69 -202,70 -305,101 13,-15 25,-30 37,-45 8,-9 15,-18 23,-27 87,-40 200,-39 279,-93zm-206 5c23,-7 46,-16 71,-22 27,-6 54,-10 81,-17 32,-8 62,-20 89,-38 -10,20 -19,41 -29,61 -76,53 -183,54 -270,86 19,-23 38,-46 58,-70zm26 -57c14,-39 19,-82 21,-125 2,-31 3,-63 4,-94 1,-29 3,-57 10,-85 19,-11 38,-23 57,-34 -22,91 -24,188 -43,280 -16,19 -32,39 -49,58zm38 290c-39,56 -80,110 -124,162l-5 0c-6,20 -29,28 -46,36 -16,8 -32,15 -49,21 -33,12 -67,20 -102,25 -32,4 -65,3 -97,4 -14,1 -30,2 -45,6 41,-49 83,-99 124,-148 36,-17 73,-30 112,-36 4,-1 3,-6 0,-6 -35,5 -68,13 -100,27 19,-23 37,-46 56,-68l2 0c16,-8 28,-21 44,-29 18,-8 36,-14 55,-18 32,-8 64,-14 96,-22 51,-14 100,-32 146,-57 -18,29 -36,58 -55,86 -19,13 -39,24 -60,33 -15,7 -30,13 -46,17 -9,3 -17,5 -26,7 -8,1 -15,2 -22,5 -4,1 -4,8 1,9 16,1 33,-5 48,-10 17,-5 33,-11 49,-19 16,-7 30,-16 44,-25zm-595 568c-26,5 -54,7 -81,9 -24,1 -49,2 -73,7 -7,1 -16,2 -24,4 27,-27 54,-54 80,-82 20,-7 39,-13 62,-15 27,-3 54,-3 82,-3 29,-1 60,-3 88,-10 -43,32 -88,62 -134,90zm-224 70c-2,2 -2,6 2,7 4,1 9,-1 13,-1 5,-1 10,-2 15,-2 10,-1 20,-2 30,-3 14,0 27,-1 41,-1 -68,35 -138,66 -209,94 43,-35 84,-74 124,-113 3,-4 7,-8 11,-11 6,-3 12,-6 18,-8 13,-3 25,-6 38,-8 23,-4 47,-5 71,-7 17,-1 35,-3 52,-5 -6,3 -11,7 -17,10 -26,15 -52,30 -79,44 -16,-2 -33,-3 -50,-3 -10,1 -20,1 -30,2 -5,1 -11,1 -16,2 -4,1 -10,1 -14,3z"></path></svg>